  0
SECTION
  2
HEADER
  9
$ACADVER
  1
AC1024
  9
$ACADMAINTVER
 70
     6
  9
$DWGCODEPAGE
  3
ANSI_1252
  9
$INSBASE
 10
0.0
 20
0.0
 30
0.0
  9
$EXTMIN
 10
1.000000000000000E+20
 20
1.000000000000000E+20
 30
1.000000000000000E+20
  9
$EXTMAX
 10
-1.000000000000000E+20
 20
-1.000000000000000E+20
 30
-1.000000000000000E+20
  9
$LIMMIN
 10
0.0
 20
0.0
  9
$LIMMAX
 10
12.0
 20
9.0
  9
$ORTHOMODE
 70
     0
  9
$REGENMODE
 70
     1
  9
$FILLMODE
 70
     1
  9
$QTEXTMODE
 70
     0
  9
$MIRRTEXT
 70
     1
  9
$LTSCALE
 40
1.0
  9
$ATTMODE
 70
     1
  9
$TEXTSIZE
 40
0.2
  9
$TRACEWID
 40
0.05
  9
$TEXTSTYLE
  7
Standard
  9
$CLAYER
  8
0
  9
$CELTYPE
  6
ByLayer
  9
$CECOLOR
 62
   256
  9
$CELTSCALE
 40
1.0
  9
$DISPSILH
 70
     0
  9
$DIMSCALE
 40
1.0
  9
$DIMASZ
 40
0.18
  9
$DIMEXO
 40
0.0625
  9
$DIMDLI
 40
0.38
  9
$DIMRND
 40
0.0
  9
$DIMDLE
 40
0.0
  9
$DIMEXE
 40
0.18
  9
$DIMTP
 40
0.0
  9
$DIMTM
 40
0.0
  9
$DIMTXT
 40
0.18
  9
$DIMCEN
 40
0.09
  9
$DIMTSZ
 40
0.0
  9
$DIMTOL
 70
     0
  9
$DIMLIM
 70
     0
  9
$DIMTIH
 70
     1
  9
$DIMTOH
 70
     1
  9
$DIMSE1
 70
     0
  9
$DIMSE2
 70
     0
  9
$DIMTAD
 70
     0
  9
$DIMZIN
 70
     0
  9
$DIMBLK
  1

  9
$DIMASO
 70
     1
  9
$DIMSHO
 70
     1
  9
$DIMPOST
  1

  9
$DIMAPOST
  1

  9
$DIMALT
 70
     0
  9
$DIMALTD
 70
     2
  9
$DIMALTF
 40
25.4
  9
$DIMLFAC
 40
1.0
  9
$DIMTOFL
 70
     0
  9
$DIMTVP
 40
0.0
  9
$DIMTIX
 70
     0
  9
$DIMSOXD
 70
     0
  9
$DIMSAH
 70
     0
  9
$DIMBLK1
  1

  9
$DIMBLK2
  1

  9
$DIMSTYLE
  2
Standard
  9
$DIMCLRD
 70
     0
  9
$DIMCLRE
 70
     0
  9
$DIMCLRT
 70
     0
  9
$DIMTFAC
 40
1.0
  9
$DIMGAP
 40
0.09
  9
$DIMJUST
 70
     0
  9
$DIMSD1
 70
     0
  9
$DIMSD2
 70
     0
  9
$DIMTOLJ
 70
     1
  9
$DIMTZIN
 70
     0
  9
$DIMALTZ
 70
     0
  9
$DIMALTTZ
 70
     0
  9
$DIMUPT
 70
     0
  9
$DIMDEC
 70
     4
  9
$DIMTDEC
 70
     4
  9
$DIMALTU
 70
     2
  9
$DIMALTTD
 70
     2
  9
$DIMTXSTY
  7
Standard
  9
$DIMAUNIT
 70
     0
  9
$DIMADEC
 70
     0
  9
$DIMALTRND
 40
0.0
  9
$DIMAZIN
 70
     0
  9
$DIMDSEP
 70
    46
  9
$DIMATFIT
 70
     3
  9
$DIMFRAC
 70
     0
  9
$DIMLDRBLK
  1

  9
$DIMLUNIT
 70
     2
  9
$DIMLWD
 70
    -2
  9
$DIMLWE
 70
    -2
  9
$DIMTMOVE
 70
     0
  9
$DIMFXL
 40
1.0
  9
$DIMFXLON
 70
     0
  9
$DIMJOGANG
 40
0.7853981633974483
  9
$DIMTFILL
 70
     0
  9
$DIMTFILLCLR
 70
     0
  9
$DIMARCSYM
 70
     0
  9
$DIMLTYPE
  6

  9
$DIMLTEX1
  6

  9
$DIMLTEX2
  6

  9
$DIMTXTDIRECTION
 70
     0
  9
$LUNITS
 70
     2
  9
$LUPREC
 70
     4
  9
$SKETCHINC
 40
0.1
  9
$FILLETRAD
 40
0.5
  9
$AUNITS
 70
     0
  9
$AUPREC
 70
     0
  9
$MENU
  1
.
  9
$ELEVATION
 40
0.0
  9
$PELEVATION
 40
0.0
  9
$THICKNESS
 40
0.0
  9
$LIMCHECK
 70
     0
  9
$CHAMFERA
 40
0.5
  9
$CHAMFERB
 40
0.5
  9
$CHAMFERC
 40
1.0
  9
$CHAMFERD
 40
0.0
  9
$SKPOLY
 70
     0
  9
$TDCREATE
 40
2457641.545745567
  9
$TDUCREATE
 40
2457641.5040789
  9
$TDUPDATE
 40
2457641.545745764
  9
$TDUUPDATE
 40
2457641.504079097
  9
$TDINDWG
 40
0.0000000116
  9
$TDUSRTIMER
 40
0.0000000116
  9
$USRTIMER
 70
     1
  9
$ANGBASE
 50
0.0
  9
$ANGDIR
 70
     0
  9
$PDMODE
 70
     0
  9
$PDSIZE
 40
0.0
  9
$PLINEWID
 40
0.0
  9
$SPLFRAME
 70
     0
  9
$SPLINETYPE
 70
     6
  9
$SPLINESEGS
 70
     8
  9
$HANDSEED
  5
1B4
  9
$SURFTAB1
 70
     6
  9
$SURFTAB2
 70
     6
  9
$SURFTYPE
 70
     6
  9
$SURFU
 70
     6
  9
$SURFV
 70
     6
  9
$UCSBASE
  2

  9
$UCSNAME
  2

  9
$UCSORG
 10
0.0
 20
0.0
 30
0.0
  9
$UCSXDIR
 10
1.0
 20
0.0
 30
0.0
  9
$UCSYDIR
 10
0.0
 20
1.0
 30
0.0
  9
$UCSORTHOREF
  2

  9
$UCSORTHOVIEW
 70
     0
  9
$UCSORGTOP
 10
0.0
 20
0.0
 30
0.0
  9
$UCSORGBOTTOM
 10
0.0
 20
0.0
 30
0.0
  9
$UCSORGLEFT
 10
0.0
 20
0.0
 30
0.0
  9
$UCSORGRIGHT
 10
0.0
 20
0.0
 30
0.0
  9
$UCSORGFRONT
 10
0.0
 20
0.0
 30
0.0
  9
$UCSORGBACK
 10
0.0
 20
0.0
 30
0.0
  9
$PUCSBASE
  2

  9
$PUCSNAME
  2

  9
$PUCSORG
 10
0.0
 20
0.0
 30
0.0
  9
$PUCSXDIR
 10
1.0
 20
0.0
 30
0.0
  9
$PUCSYDIR
 10
0.0
 20
1.0
 30
0.0
  9
$PUCSORTHOREF
  2

  9
$PUCSORTHOVIEW
 70
     0
  9
$PUCSORGTOP
 10
0.0
 20
0.0
 30
0.0
  9
$PUCSORGBOTTOM
 10
0.0
 20
0.0
 30
0.0
  9
$PUCSORGLEFT
 10
0.0
 20
0.0
 30
0.0
  9
$PUCSORGRIGHT
 10
0.0
 20
0.0
 30
0.0
  9
$PUCSORGFRONT
 10
0.0
 20
0.0
 30
0.0
  9
$PUCSORGBACK
 10
0.0
 20
0.0
 30
0.0
  9
$USERI1
 70
     0
  9
$USERI2
 70
     0
  9
$USERI3
 70
     0
  9
$USERI4
 70
     0
  9
$USERI5
 70
     0
  9
$USERR1
 40
0.0
  9
$USERR2
 40
0.0
  9
$USERR3
 40
0.0
  9
$USERR4
 40
0.0
  9
$USERR5
 40
0.0
  9
$WORLDVIEW
 70
     1
  9
$SHADEDGE
 70
     3
  9
$SHADEDIF
 70
    70
  9
$TILEMODE
 70
     1
  9
$MAXACTVP
 70
    64
  9
$PINSBASE
 10
0.0
 20
0.0
 30
0.0
  9
$PLIMCHECK
 70
     0
  9
$PEXTMIN
 10
1.000000000000000E+20
 20
1.000000000000000E+20
 30
1.000000000000000E+20
  9
$PEXTMAX
 10
-1.000000000000000E+20
 20
-1.000000000000000E+20
 30
-1.000000000000000E+20
  9
$PLIMMIN
 10
0.0
 20
0.0
  9
$PLIMMAX
 10
12.0
 20
9.0
  9
$UNITMODE
 70
     0
  9
$VISRETAIN
 70
     1
  9
$PLINEGEN
 70
     0
  9
$PSLTSCALE
 70
     1
  9
$TREEDEPTH
 70
  3020
  9
$CMLSTYLE
  2
Standard
  9
$CMLJUST
 70
     0
  9
$CMLSCALE
 40
1.0
  9
$PROXYGRAPHICS
 70
     1
  9
$MEASUREMENT
 70
     0
  9
$CELWEIGHT
370
    -1
  9
$ENDCAPS
280
     0
  9
$JOINSTYLE
280
     0
  9
$LWDISPLAY
290
     1
  9
$INSUNITS
 70
     1
  9
$HYPERLINKBASE
  1

  9
$STYLESHEET
  1

  9
$XEDIT
290
     1
  9
$CEPSNTYPE
380
     0
  9
$PSTYLEMODE
290
     1
  9
$FINGERPRINTGUID
  2
{E5EA2D51-DD2D-47B0-9BCF-E9005C245AF2}
  9
$VERSIONGUID
  2
{FAEB1C32-E019-11D5-929B-00C0DF256EC4}
  9
$EXTNAMES
290
     1
  9
$PSVPSCALE
 40
0.0
  9
$OLESTARTUP
290
     0
  9
$SORTENTS
280
   127
  9
$INDEXCTL
280
     0
  9
$HIDETEXT
280
     1
  9
$XCLIPFRAME
280
     2
  9
$HALOGAP
280
     0
  9
$OBSCOLOR
 70
   257
  9
$OBSLTYPE
280
     0
  9
$INTERSECTIONDISPLAY
280
     0
  9
$INTERSECTIONCOLOR
 70
   257
  9
$DIMASSOC
280
     2
  9
$PROJECTNAME
  1

  9
$CAMERADISPLAY
290
     0
  9
$LENSLENGTH
 40
50.0
  9
$CAMERAHEIGHT
 40
0.0
  9
$STEPSPERSEC
 40
2.0
  9
$STEPSIZE
 40
6.0
  9
$3DDWFPREC
 40
2.0
  9
$PSOLWIDTH
 40
0.25
  9
$PSOLHEIGHT
 40
4.0
  9
$LOFTANG1
 40
1.570796326794897
  9
$LOFTANG2
 40
1.570796326794897
  9
$LOFTMAG1
 40
0.0
  9
$LOFTMAG2
 40
0.0
  9
$LOFTPARAM
 70
     7
  9
$LOFTNORMALS
280
     1
  9
$LATITUDE
 40
37.795
  9
$LONGITUDE
 40
-122.394
  9
$NORTHDIRECTION
 40
0.0
  9
$TIMEZONE
 70
 -8000
  9
$LIGHTGLYPHDISPLAY
280
     1
  9
$TILEMODELIGHTSYNCH
280
     1
  9
$CMATERIAL
347
3C
  9
$SOLIDHIST
280
     1
  9
$SHOWHIST
280
     1
  9
$DWFFRAME
280
     2
  9
$DGNFRAME
280
     2
  9
$REALWORLDSCALE
290
     1
  9
$INTERFERECOLOR
 62
   256
  9
$CSHADOW
280
     0
  9
$SHADOWPLANELOCATION
 40
0.0
  0
ENDSEC
  0
SECTION
  2
CLASSES
  0
CLASS
  1
ACDBDICTIONARYWDFLT
  2
AcDbDictionaryWithDefault
  3
ObjectDBX Classes
 90
        0
 91
        4
280
     0
281
     0
  0
CLASS
  1
VISUALSTYLE
  2
AcDbVisualStyle
  3
ObjectDBX Classes
 90
     4095
 91
        4
280
     0
281
     0
  0
CLASS
  1
MATERIAL
  2
AcDbMaterial
  3
ObjectDBX Classes
 90
     1153
 91
        4
280
     0
281
     0
  0
CLASS
  1
SUN
  2
AcDbSun
  3
SCENEOE
 90
     1024
 91
        4
280
     0
281
     0
  0
ENDSEC
  0
SECTION
  2
TABLES
  0
TABLE
  2
VPORT
  5
8
330
0
100
AcDbSymbolTable
 70
     1
  0
VPORT
  5
29
330
8
100
AcDbSymbolTableRecord
100
AcDbViewportTableRecord
  2
*Active
 70
     0
 10
0.0
 20
0.0
 11
1.0
 21
1.0
 12
0.0
 22
0.0
 13
0.0
 23
0.0
 14
0.5
 24
0.5
 15
0.5
 25
0.5
 16
0.0
 26
0.0
 36
1.0
 17
148.5000416295412
 27
-105.0007777515279
 37
0.0
 40
296.9999999257502
 41
1.414141414141414
 42
50.0
 43
0.0
 44
0.0
 50
0.0
 51
0.0
 71
     0
 72
   100
 73
     1
 74
     3
 75
     0
 76
     0
 77
     0
 78
     0
281
     0
 65
     1
110
0.0
120
0.0
130
0.0
111
1.0
121
0.0
131
0.0
112
0.0
122
1.0
132
0.0
 79
     0
146
0.0
 60
     3
 61
     5
292
     1
282
     1
141
0.0
142
0.0
 63
   250
361
3F
  0
ENDTAB
  0
TABLE
  2
LTYPE
  5
5
330
0
100
AcDbSymbolTable
 70
     1
  0
LTYPE
  5
14
330
5
100
AcDbSymbolTableRecord
100
AcDbLinetypeTableRecord
  2
ByBlock
 70
     0
  3

 72
    65
 73
     0
 40
0.0
  0
LTYPE
  5
15
330
5
100
AcDbSymbolTableRecord
100
AcDbLinetypeTableRecord
  2
ByLayer
 70
     0
  3

 72
    65
 73
     0
 40
0.0
  0
LTYPE
  5
16
330
5
100
AcDbSymbolTableRecord
100
AcDbLinetypeTableRecord
  2
Continuous
 70
     0
  3
Solid line
 72
    65
 73
     0
 40
0.0
  0
ENDTAB
  0
TABLE
  2
LAYER
  5
2
330
0
100
AcDbSymbolTable
 70
     2
  0
LAYER
  5
10
330
2
100
AcDbSymbolTableRecord
100
AcDbLayerTableRecord
  2
0
 70
     0
 62
     7
  6
Continuous
370
    -3
390
F
347
3E
  0
LAYER
  5
40
330
2
100
AcDbSymbolTableRecord
100
AcDbLayerTableRecord
  2
Layer 1
 70
     0
 62
     7
  6
Continuous
370
    -3
390
F
347
3E
  0
ENDTAB
  0
TABLE
  2
STYLE
  5
3
330
0
100
AcDbSymbolTable
 70
     1
  0
STYLE
  5
11
330
3
100
AcDbSymbolTableRecord
100
AcDbTextStyleTableRecord
  2
Standard
 70
     0
 40
0.0
 41
1.0
 50
0.0
 71
     0
 42
0.2
  3
txt
  4

  0
ENDTAB
  0
TABLE
  2
VIEW
  5
6
330
0
100
AcDbSymbolTable
 70
     0
  0
ENDTAB
  0
TABLE
  2
UCS
  5
7
330
0
100
AcDbSymbolTable
 70
     0
  0
ENDTAB
  0
TABLE
  2
APPID
  5
9
330
0
100
AcDbSymbolTable
 70
     1
  0
APPID
  5
12
330
9
100
AcDbSymbolTableRecord
100
AcDbRegAppTableRecord
  2
ACAD
 70
     0
  0
ENDTAB
  0
TABLE
  2
DIMSTYLE
  5
A
330
0
100
AcDbSymbolTable
 70
     1
100
AcDbDimStyleTable
  0
DIMSTYLE
105
27
330
A
100
AcDbSymbolTableRecord
100
AcDbDimStyleTableRecord
  2
Standard
 70
     0
178
     0
340
11
  0
ENDTAB
  0
TABLE
  2
BLOCK_RECORD
  5
1
330
0
100
AcDbSymbolTable
 70
    27
  0
BLOCK_RECORD
  5
1F
330
1
100
AcDbSymbolTableRecord
100
AcDbBlockTableRecord
  2
*Model_Space
340
22
 70
     0
280
     1
281
     0
  0
BLOCK_RECORD
  5
1B
330
1
100
AcDbSymbolTableRecord
100
AcDbBlockTableRecord
  2
*Paper_Space
340
1E
 70
     0
280
     1
281
     0
  0
BLOCK_RECORD
  5
23
330
1
100
AcDbSymbolTableRecord
100
AcDbBlockTableRecord
  2
*Paper_Space0
340
26
 70
     0
280
     1
281
     0
  0
BLOCK_RECORD
  5
41
330
1
100
AcDbSymbolTableRecord
100
AcDbBlockTableRecord
  2
block 2
340
0
102
{BLKREFS
331
42
102
}
 70
     0
280
     1
281
     0
  0
BLOCK_RECORD
  5
46
330
1
100
AcDbSymbolTableRecord
100
AcDbBlockTableRecord
  2
block 3
340
0
102
{BLKREFS
331
47
102
}
 70
     0
280
     1
281
     0
  0
BLOCK_RECORD
  5
4A
330
1
100
AcDbSymbolTableRecord
100
AcDbBlockTableRecord
  2
block 4
340
0
102
{BLKREFS
331
4B
102
}
 70
     0
280
     1
281
     0
  0
BLOCK_RECORD
  5
4F
330
1
100
AcDbSymbolTableRecord
100
AcDbBlockTableRecord
  2
block 5
340
0
102
{BLKREFS
331
50
102
}
 70
     0
280
     1
281
     0
  0
BLOCK_RECORD
  5
54
330
1
100
AcDbSymbolTableRecord
100
AcDbBlockTableRecord
  2
block 6
340
0
102
{BLKREFS
331
55
102
}
 70
     0
280
     1
281
     0
  0
BLOCK_RECORD
  5
59
330
1
100
AcDbSymbolTableRecord
100
AcDbBlockTableRecord
  2
block 7
340
0
102
{BLKREFS
331
5A
102
}
 70
     0
280
     1
281
     0
  0
BLOCK_RECORD
  5
5E
330
1
100
AcDbSymbolTableRecord
100
AcDbBlockTableRecord
  2
block 8
340
0
102
{BLKREFS
331
5F
102
}
 70
     0
280
     1
281
     0
  0
BLOCK_RECORD
  5
63
330
1
100
AcDbSymbolTableRecord
100
AcDbBlockTableRecord
  2
block 9
340
0
102
{BLKREFS
331
64
102
}
 70
     0
280
     1
281
     0
  0
BLOCK_RECORD
  5
68
330
1
100
AcDbSymbolTableRecord
100
AcDbBlockTableRecord
  2
block 10
340
0
102
{BLKREFS
331
69
102
}
 70
     0
280
     1
281
     0
  0
BLOCK_RECORD
  5
6D
330
1
100
AcDbSymbolTableRecord
100
AcDbBlockTableRecord
  2
block 11
340
0
102
{BLKREFS
331
6E
102
}
 70
     0
280
     1
281
     0
  0
BLOCK_RECORD
  5
72
330
1
100
AcDbSymbolTableRecord
100
AcDbBlockTableRecord
  2
block 12
340
0
102
{BLKREFS
331
73
102
}
 70
     0
280
     1
281
     0
  0
BLOCK_RECORD
  5
B7
330
1
100
AcDbSymbolTableRecord
100
AcDbBlockTableRecord
  2
block 13
340
0
102
{BLKREFS
331
B8
102
}
 70
     0
280
     1
281
     0
  0
BLOCK_RECORD
  5
EC
330
1
100
AcDbSymbolTableRecord
100
AcDbBlockTableRecord
  2
block 14
340
0
102
{BLKREFS
331
ED
102
}
 70
     0
280
     1
281
     0
  0
BLOCK_RECORD
  5
F0
330
1
100
AcDbSymbolTableRecord
100
AcDbBlockTableRecord
  2
block 15
340
0
102
{BLKREFS
331
F1
102
}
 70
     0
280
     1
281
     0
  0
BLOCK_RECORD
  5
F5
330
1
100
AcDbSymbolTableRecord
100
AcDbBlockTableRecord
  2
block 16
340
0
102
{BLKREFS
331
F6
102
}
 70
     0
280
     1
281
     0
  0
BLOCK_RECORD
  5
FA
330
1
100
AcDbSymbolTableRecord
100
AcDbBlockTableRecord
  2
block 17
340
0
102
{BLKREFS
331
FB
102
}
 70
     0
280
     1
281
     0
  0
BLOCK_RECORD
  5
FF
330
1
100
AcDbSymbolTableRecord
100
AcDbBlockTableRecord
  2
block 18
340
0
102
{BLKREFS
331
100
102
}
 70
     0
280
     1
281
     0
  0
BLOCK_RECORD
  5
104
330
1
100
AcDbSymbolTableRecord
100
AcDbBlockTableRecord
  2
block 19
340
0
102
{BLKREFS
331
105
102
}
 70
     0
280
     1
281
     0
  0
BLOCK_RECORD
  5
109
330
1
100
AcDbSymbolTableRecord
100
AcDbBlockTableRecord
  2
block 20
340
0
102
{BLKREFS
331
10A
102
}
 70
     0
280
     1
281
     0
  0
BLOCK_RECORD
  5
10E
330
1
100
AcDbSymbolTableRecord
100
AcDbBlockTableRecord
  2
block 21
340
0
102
{BLKREFS
331
10F
102
}
 70
     0
280
     1
281
     0
  0
BLOCK_RECORD
  5
113
330
1
100
AcDbSymbolTableRecord
100
AcDbBlockTableRecord
  2
block 22
340
0
102
{BLKREFS
331
114
102
}
 70
     0
280
     1
281
     0
  0
BLOCK_RECORD
  5
118
330
1
100
AcDbSymbolTableRecord
100
AcDbBlockTableRecord
  2
block 23
340
0
102
{BLKREFS
331
119
102
}
 70
     0
280
     1
281
     0
  0
BLOCK_RECORD
  5
134
330
1
100
AcDbSymbolTableRecord
100
AcDbBlockTableRecord
  2
block 24
340
0
102
{BLKREFS
331
135
102
}
 70
     0
280
     1
281
     0
  0
BLOCK_RECORD
  5
13B
330
1
100
AcDbSymbolTableRecord
100
AcDbBlockTableRecord
  2
block 25
340
0
102
{BLKREFS
331
13C
102
}
 70
     0
280
     1
281
     0
  0
BLOCK_RECORD
  5
187
330
1
100
AcDbSymbolTableRecord
100
AcDbBlockTableRecord
  2
block 26
340
0
102
{BLKREFS
331
188
102
}
 70
     0
280
     1
281
     0
  0
BLOCK_RECORD
  5
198
330
1
100
AcDbSymbolTableRecord
100
AcDbBlockTableRecord
  2
block 27
340
0
102
{BLKREFS
331
199
102
}
 70
     0
280
     1
281
     0
  0
ENDTAB
  0
ENDSEC
  0
SECTION
  2
BLOCKS
  0
BLOCK
  5
20
330
1F
100
AcDbEntity
  8
0
100
AcDbBlockBegin
  2
*Model_Space
 70
     0
 10
0.0
 20
0.0
 30
0.0
  3
*Model_Space
  1

  0
ENDBLK
  5
21
330
1F
100
AcDbEntity
  8
0
100
AcDbBlockEnd
  0
BLOCK
  5
1C
330
1B
100
AcDbEntity
 67
     1
  8
0
100
AcDbBlockBegin
  2
*Paper_Space
 70
     0
 10
0.0
 20
0.0
 30
0.0
  3
*Paper_Space
  1

  0
ENDBLK
  5
1D
330
1B
100
AcDbEntity
 67
     1
  8
0
100
AcDbBlockEnd
  0
BLOCK
  5
24
330
23
100
AcDbEntity
  8
0
100
AcDbBlockBegin
  2
*Paper_Space0
 70
     0
 10
0.0
 20
0.0
 30
0.0
  3
*Paper_Space0
  1

  0
ENDBLK
  5
25
330
23
100
AcDbEntity
  8
0
100
AcDbBlockEnd
  0
BLOCK
  5
43
330
41
100
AcDbEntity
  8
0
100
AcDbBlockBegin
  2
block 2
 70
     0
 10
0.0
 20
0.0
 30
0.0
  3
block 2
  1

  0
SPLINE
  5
45
330
41
100
AcDbEntity
  8
Layer 1
 62
   155
420
  2976177
370
    35
100
AcDbSpline
210
0.0
220
0.0
230
1.0
 70
    11
 71
     3
 72
    47
 73
    43
 74
     0
 42
0.0000000001
 43
0.0000000001
 12
1.0
 22
0.0
 32
0.0
 13
1.0
 23
0.0
 33
0.0
 40
0.0
 40
0.0
 40
0.0
 40
0.0
 40
1.0
 40
1.0
 40
1.0
 40
2.0
 40
2.0
 40
2.0
 40
3.0
 40
3.0
 40
3.0
 40
4.0
 40
4.0
 40
4.0
 40
5.0
 40
5.0
 40
5.0
 40
6.0
 40
6.0
 40
6.0
 40
7.0
 40
7.0
 40
7.0
 40
8.0
 40
8.0
 40
8.0
 40
9.0
 40
9.0
 40
9.0
 40
10.0
 40
10.0
 40
10.0
 40
11.0
 40
11.0
 40
11.0
 40
12.0
 40
12.0
 40
12.0
 40
13.0
 40
13.0
 40
13.0
 40
14.0
 40
14.0
 40
14.0
 40
14.0
 10
62.28263801812478
 20
23.86898399764083
 30
0.0
 10
62.28263801812478
 20
23.86898399764083
 30
0.0
 10
62.28263801812478
 20
24.09739382831289
 30
0.0
 10
62.28263801812478
 20
24.09739382831289
 30
0.0
 10
62.28263801812478
 20
24.09739382831289
 30
0.0
 10
62.57443760572544
 20
24.38092518674896
 30
0.0
 10
62.57443760572544
 20
24.38092518674896
 30
0.0
 10
63.27689257516788
 20
25.04927371088742
 30
0.0
 10
63.59418586935939
 20
25.40480756496521
 30
0.0
 10
63.59831998394169
 20
25.81959706138929
 30
0.0
 10
63.59831998394169
 20
26.09864979569452
 30
0.0
 10
63.46292773137137
 20
26.35668744753974
 30
0.0
 10
63.05261685907811
 20
26.35668744753974
 30
0.0
 10
62.8028474363975
 20
26.35668744753974
 30
0.0
 10
62.59545268818546
 20
26.22990793368254
 30
0.0
 10
62.46867317432827
 20
26.12414350228537
 30
0.0
 10
62.46867317432827
 20
26.12414350228537
 30
0.0
 10
62.35016188963567
 20
26.38631526871288
 30
0.0
 10
62.35016188963567
 20
26.38631526871288
 30
0.0
 10
62.54067566996999
 20
26.54720122787405
 30
0.0
 10
62.81146017511062
 20
26.66571251256665
 30
0.0
 10
63.12875346930213
 20
26.66571251256665
 30
0.0
 10
63.72096538321658
 20
26.66571251256665
 30
0.0
 10
63.97073480589719
 20
26.25953575485569
 30
0.0
 10
63.97073480589719
 20
25.86610585044016
 30
0.0
 10
63.97073480589719
 20
25.35829877591434
 30
0.0
 10
63.60245409852399
 20
24.94798790362108
 30
0.0
 10
63.02298903790496
 20
24.38953792546208
 30
0.0
 10
63.02298903790496
 20
24.38953792546208
 30
0.0
 10
62.8028474363975
 20
24.18627729183234
 30
0.0
 10
62.8028474363975
 20
24.18627729183234
 30
0.0
 10
62.8028474363975
 20
24.18627729183234
 30
0.0
 10
62.8028474363975
 20
24.17800906266774
 30
0.0
 10
62.8028474363975
 20
24.17800906266774
 30
0.0
 10
62.8028474363975
 20
24.17800906266774
 30
0.0
 10
64.0382586774081
 20
24.17800906266774
 30
0.0
 10
64.0382586774081
 20
24.17800906266774
 30
0.0
 10
64.0382586774081
 20
24.17800906266774
 30
0.0
 10
64.0382586774081
 20
23.86898399764083
 30
0.0
 10
64.0382586774081
 20
23.86898399764083
 30
0.0
 10
64.0382586774081
 20
23.86898399764083
 30
0.0
 10
62.28263801812478
 20
23.86898399764083
 30
0.0
 10
62.28263801812478
 20
23.86898399764083
 30
0.0
  0
ENDBLK
  5
44
330
41
100
AcDbEntity
  8
0
100
AcDbBlockEnd
  0
BLOCK
  5
48
330
46
100
AcDbEntity
  8
0
100
AcDbBlockBegin
  2
block 3
 70
     0
 10
0.0
 20
0.0
 30
0.0
  3
block 3
  1

  0
INSERT
  5
4B
330
46
100
AcDbEntity
  8
Layer 1
100
AcDbBlockReference
  2
block 4
 10
0.0
 20
0.0
 30
0.0
  0
INSERT
  5
50
330
46
100
AcDbEntity
  8
Layer 1
100
AcDbBlockReference
  2
block 5
 10
0.0
 20
0.0
 30
0.0
  0
INSERT
  5
55
330
46
100
AcDbEntity
  8
Layer 1
100
AcDbBlockReference
  2
block 6
 10
0.0
 20
0.0
 30
0.0
  0
INSERT
  5
5A
330
46
100
AcDbEntity
  8
Layer 1
100
AcDbBlockReference
  2
block 7
 10
0.0
 20
0.0
 30
0.0
  0
INSERT
  5
5F
330
46
100
AcDbEntity
  8
Layer 1
100
AcDbBlockReference
  2
block 8
 10
0.0
 20
0.0
 30
0.0
  0
INSERT
  5
64
330
46
100
AcDbEntity
  8
Layer 1
100
AcDbBlockReference
  2
block 9
 10
0.0
 20
0.0
 30
0.0
  0
INSERT
  5
69
330
46
100
AcDbEntity
  8
Layer 1
100
AcDbBlockReference
  2
block 10
 10
0.0
 20
0.0
 30
0.0
  0
INSERT
  5
6E
330
46
100
AcDbEntity
  8
Layer 1
100
AcDbBlockReference
  2
block 11
 10
0.0
 20
0.0
 30
0.0
  0
INSERT
  5
73
330
46
100
AcDbEntity
  8
Layer 1
100
AcDbBlockReference
  2
block 12
 10
0.0
 20
0.0
 30
0.0
  0
ENDBLK
  5
49
330
46
100
AcDbEntity
  8
0
100
AcDbBlockEnd
  0
BLOCK
  5
4C
330
4A
100
AcDbEntity
  8
0
100
AcDbBlockBegin
  2
block 4
 70
     0
 10
0.0
 20
0.0
 30
0.0
  3
block 4
  1

  0
SPLINE
  5
4E
330
4A
100
AcDbEntity
  8
Layer 1
 62
    22
420
 13900569
370
    35
100
AcDbSpline
210
0.0
220
0.0
230
1.0
 70
    11
 71
     3
 72
    17
 73
    13
 74
     0
 42
0.0000000001
 43
0.0000000001
 12
1.0
 22
0.0
 32
0.0
 13
1.0
 23
0.0
 33
0.0
 40
0.0
 40
0.0
 40
0.0
 40
0.0
 40
1.0
 40
1.0
 40
1.0
 40
2.0
 40
2.0
 40
2.0
 40
3.0
 40
3.0
 40
3.0
 40
4.0
 40
4.0
 40
4.0
 40
4.0
 10
138.3833999197205
 20
-67.2432797747301
 30
0.0
 10
138.383399919596
 20
-65.86317786549499
 30
0.0
 10
139.5016701687442
 20
-64.74384928284023
 30
0.0
 10
140.8821248557481
 20
-64.74384928271574
 30
0.0
 10
142.2632498205127
 20
-64.74384928259254
 30
0.0
 10
143.3828959031593
 20
-65.86317786504709
 30
0.0
 10
143.3828959032838
 20
-67.2432797742822
 30
0.0
 10
143.382895903407
 20
-68.62405196127798
 30
0.0
 10
142.2632498209606
 20
-69.74338054393276
 30
0.0
 10
140.882124856196
 20
-69.74338054405595
 30
0.0
 10
139.5016701691921
 20
-69.74338054418173
 30
0.0
 10
138.3833999198437
 20
-68.6240519617259
 30
0.0
 10
138.3833999197205
 20
-67.2432797747301
 30
0.0
  0
ENDBLK
  5
4D
330
4A
100
AcDbEntity
  8
0
100
AcDbBlockEnd
  0
BLOCK
  5
51
330
4F
100
AcDbEntity
  8
0
100
AcDbBlockBegin
  2
block 5
 70
     0
 10
0.0
 20
0.0
 30
0.0
  3
block 5
  1

  0
SPLINE
  5
53
330
4F
100
AcDbEntity
  8
Layer 1
 62
    22
420
 13900569
370
    35
100
AcDbSpline
210
0.0
220
0.0
230
1.0
 70
    11
 71
     3
 72
    17
 73
    13
 74
     0
 42
0.0000000001
 43
0.0000000001
 12
1.0
 22
0.0
 32
0.0
 13
1.0
 23
0.0
 33
0.0
 40
0.0
 40
0.0
 40
0.0
 40
0.0
 40
1.0
 40
1.0
 40
1.0
 40
2.0
 40
2.0
 40
2.0
 40
3.0
 40
3.0
 40
3.0
 40
4.0
 40
4.0
 40
4.0
 40
4.0
 10
128.2233809407338
 20
-67.24327977473139
 30
0.0
 10
128.2233809406094
 20
-65.86317786549628
 30
0.0
 10
129.3416511897576
 20
-64.74384928284151
 30
0.0
 10
130.7221058767615
 20
-64.74384928271702
 30
0.0
 10
132.103230841526
 20
-64.74384928259254
 30
0.0
 10
133.2228769241727
 20
-65.86317786504709
 30
0.0
 10
133.2228769242972
 20
-67.2432797742822
 30
0.0
 10
133.2228769244217
 20
-68.62405196127798
 30
0.0
 10
132.1032308419752
 20
-69.74338054393276
 30
0.0
 10
130.7221058772107
 20
-69.74338054405725
 30
0.0
 10
129.3416511902068
 20
-69.74338054418173
 30
0.0
 10
128.2233809408583
 20
-68.62405196172718
 30
0.0
 10
128.2233809407338
 20
-67.24327977473139
 30
0.0
  0
ENDBLK
  5
52
330
4F
100
AcDbEntity
  8
0
100
AcDbBlockEnd
  0
BLOCK
  5
56
330
54
100
AcDbEntity
  8
0
100
AcDbBlockBegin
  2
block 6
 70
     0
 10
0.0
 20
0.0
 30
0.0
  3
block 6
  1

  0
SPLINE
  5
58
330
54
100
AcDbEntity
  8
Layer 1
 62
    22
420
 13900569
370
    35
100
AcDbSpline
210
0.0
220
0.0
230
1.0
 70
    11
 71
     3
 72
    17
 73
    13
 74
     0
 42
0.0000000001
 43
0.0000000001
 12
1.0
 22
0.0
 32
0.0
 13
1.0
 23
0.0
 33
0.0
 40
0.0
 40
0.0
 40
0.0
 40
0.0
 40
1.0
 40
1.0
 40
1.0
 40
2.0
 40
2.0
 40
2.0
 40
3.0
 40
3.0
 40
3.0
 40
4.0
 40
4.0
 40
4.0
 40
4.0
 10
120.603399924165
 20
-67.24327977562207
 30
0.0
 10
120.6033999240405
 20
-65.86317786638695
 30
0.0
 10
121.7230460064869
 20
-64.74384928373091
 30
0.0
 10
123.1031465471898
 20
-64.7438492836077
 30
0.0
 10
124.4846243246225
 20
-64.7438492834845
 30
0.0
 10
125.6028959076038
 20
-65.86317786593777
 30
0.0
 10
125.6028959077283
 20
-67.24327977517288
 30
0.0
 10
125.6028959078515
 20
-68.62405196216866
 30
0.0
 10
124.4846243250717
 20
-69.74338054482472
 30
0.0
 10
123.1031465476389
 20
-69.74338054494793
 30
0.0
 10
121.7230460069348
 20
-69.74338054507112
 30
0.0
 10
120.6033999242882
 20
-68.62405196261786
 30
0.0
 10
120.603399924165
 20
-67.24327977562207
 30
0.0
  0
ENDBLK
  5
57
330
54
100
AcDbEntity
  8
0
100
AcDbBlockEnd
  0
BLOCK
  5
5B
330
59
100
AcDbEntity
  8
0
100
AcDbBlockBegin
  2
block 7
 70
     0
 10
0.0
 20
0.0
 30
0.0
  3
block 7
  1

  0
SPLINE
  5
5D
330
59
100
AcDbEntity
  8
Layer 1
 62
    22
420
 13900569
370
    35
100
AcDbSpline
210
0.0
220
0.0
230
1.0
 70
    11
 71
     3
 72
    17
 73
    13
 74
     0
 42
0.0000000001
 43
0.0000000001
 12
1.0
 22
0.0
 32
0.0
 13
1.0
 23
0.0
 33
0.0
 40
0.0
 40
0.0
 40
0.0
 40
0.0
 40
1.0
 40
1.0
 40
1.0
 40
2.0
 40
2.0
 40
2.0
 40
3.0
 40
3.0
 40
3.0
 40
4.0
 40
4.0
 40
4.0
 40
4.0
 10
112.9833822871801
 20
-67.24327977651275
 30
0.0
 10
112.9833822870563
 20
-65.86317786727763
 30
0.0
 10
114.1030636472796
 20
-64.74384928462287
 30
0.0
 10
115.4831655565147
 20
-64.74384928449838
 30
0.0
 10
116.8632674657498
 20
-64.74384928437517
 30
0.0
 10
117.9829135483965
 20
-65.86317786682844
 30
0.0
 10
117.982913548521
 20
-67.24327977606356
 30
0.0
 10
117.9829135486442
 20
-68.62405196305934
 30
0.0
 10
116.8632674661977
 20
-69.7433805457154
 30
0.0
 10
115.4831655569626
 20
-69.7433805458386
 30
0.0
 10
114.1030636477275
 20
-69.74338054596309
 30
0.0
 10
112.9833822873033
 20
-68.62405196350853
 30
0.0
 10
112.9833822871801
 20
-67.24327977651275
 30
0.0
  0
ENDBLK
  5
5C
330
59
100
AcDbEntity
  8
0
100
AcDbBlockEnd
  0
BLOCK
  5
60
330
5E
100
AcDbEntity
  8
0
100
AcDbBlockBegin
  2
block 8
 70
     0
 10
0.0
 20
0.0
 30
0.0
  3
block 8
  1

  0
SPLINE
  5
62
330
5E
100
AcDbEntity
  8
Layer 1
 62
    22
420
 13900569
370
    35
100
AcDbSpline
210
0.0
220
0.0
230
1.0
 70
    11
 71
     3
 72
    17
 73
    13
 74
     0
 42
0.0000000001
 43
0.0000000001
 12
1.0
 22
0.0
 32
0.0
 13
1.0
 23
0.0
 33
0.0
 40
0.0
 40
0.0
 40
0.0
 40
0.0
 40
1.0
 40
1.0
 40
1.0
 40
2.0
 40
2.0
 40
2.0
 40
3.0
 40
3.0
 40
3.0
 40
4.0
 40
4.0
 40
4.0
 40
4.0
 10
105.363382289085
 20
-67.24327977740471
 30
0.0
 10
105.3633822889605
 20
-65.8631778681696
 30
0.0
 10
106.4830636491838
 20
-64.74384928551355
 30
0.0
 10
107.8631655584189
 20
-64.74384928539034
 30
0.0
 10
109.2446433009523
 20
-64.74384928526585
 30
0.0
 10
110.3629135503007
 20
-65.86317786772041
 30
0.0
 10
110.3629135504246
 20
-67.24327977695552
 30
0.0
 10
110.3629135505471
 20
-68.6240519639513
 30
0.0
 10
109.2446433014002
 20
-69.74338054660608
 30
0.0
 10
107.8631655588668
 20
-69.74338054673056
 30
0.0
 10
106.4830636496317
 20
-69.74338054685377
 30
0.0
 10
105.3633822892076
 20
-68.6240519644005
 30
0.0
 10
105.363382289085
 20
-67.24327977740471
 30
0.0
  0
ENDBLK
  5
61
330
5E
100
AcDbEntity
  8
0
100
AcDbBlockEnd
  0
BLOCK
  5
65
330
63
100
AcDbEntity
  8
0
100
AcDbBlockBegin
  2
block 9
 70
     0
 10
0.0
 20
0.0
 30
0.0
  3
block 9
  1

  0
SPLINE
  5
67
330
63
100
AcDbEntity
  8
Layer 1
 62
    22
420
 13900569
370
    35
100
AcDbSpline
210
0.0
220
0.0
230
1.0
 70
    11
 71
     3
 72
    17
 73
    13
 74
     0
 42
0.0000000001
 43
0.0000000001
 12
1.0
 22
0.0
 32
0.0
 13
1.0
 23
0.0
 33
0.0
 40
0.0
 40
0.0
 40
0.0
 40
0.0
 40
1.0
 40
1.0
 40
1.0
 40
2.0
 40
2.0
 40
2.0
 40
3.0
 40
3.0
 40
3.0
 40
4.0
 40
4.0
 40
4.0
 40
4.0
 10
97.74338331975791
 20
-67.24327977829539
 30
0.0
 10
97.74338331963406
 20
-65.86317786906027
 30
0.0
 10
98.86165141319456
 20
-64.74384928640423
 30
0.0
 10
100.2421082557862
 20
-64.7438492862823
 30
0.0
 10
101.6232684983276
 20
-64.74384928615653
 30
0.0
 10
102.7429125234356
 20
-65.86317786861109
 30
0.0
 10
102.7429125235601
 20
-67.2432797778462
 30
0.0
 10
102.7429125236827
 20
-68.62405196484198
 30
0.0
 10
101.6232684987755
 20
-69.74338054749674
 30
0.0
 10
100.2421082562341
 20
-69.74338054762252
 30
0.0
 10
98.86165141364248
 20
-69.74338054774445
 30
0.0
 10
97.74338331988112
 20
-68.62405196529117
 30
0.0
 10
97.74338331975791
 20
-67.24327977829539
 30
0.0
  0
ENDBLK
  5
66
330
63
100
AcDbEntity
  8
0
100
AcDbBlockEnd
  0
BLOCK
  5
6A
330
68
100
AcDbEntity
  8
0
100
AcDbBlockBegin
  2
block 10
 70
     0
 10
0.0
 20
0.0
 30
0.0
  3
block 10
  1

  0
SPLINE
  5
6C
330
68
100
AcDbEntity
  8
Layer 1
 62
    22
420
 13900569
370
    35
100
AcDbSpline
210
0.0
220
0.0
230
1.0
 70
    11
 71
     3
 72
    17
 73
    13
 74
     0
 42
0.0000000001
 43
0.0000000001
 12
1.0
 22
0.0
 32
0.0
 13
1.0
 23
0.0
 33
0.0
 40
0.0
 40
0.0
 40
0.0
 40
0.0
 40
1.0
 40
1.0
 40
1.0
 40
2.0
 40
2.0
 40
2.0
 40
3.0
 40
3.0
 40
3.0
 40
4.0
 40
4.0
 40
4.0
 40
4.0
 10
90.1233822928928
 20
-67.24327977918735
 30
0.0
 10
90.12338229276895
 20
-65.86317786995224
 30
0.0
 10
91.2430283752154
 20
-64.74384928729619
 30
0.0
 10
92.62313028445053
 20
-64.7438492871717
 30
0.0
 10
94.00464330476075
 20
-64.74384928704849
 30
0.0
 10
95.12291355410918
 20
-65.86317786950305
 30
0.0
 10
95.12291355423302
 20
-67.24327977873816
 30
0.0
 10
95.12291355435623
 20
-68.62405196573394
 30
0.0
 10
94.00464330520865
 20
-69.74338054838871
 30
0.0
 10
92.62313028489842
 20
-69.74338054851192
 30
0.0
 10
91.24302837566331
 20
-69.74338054863641
 30
0.0
 10
90.12338229301601
 20
-68.62405196618313
 30
0.0
 10
90.1233822928928
 20
-67.24327977918735
 30
0.0
  0
ENDBLK
  5
6B
330
68
100
AcDbEntity
  8
0
100
AcDbBlockEnd
  0
BLOCK
  5
6F
330
6D
100
AcDbEntity
  8
0
100
AcDbBlockBegin
  2
block 11
 70
     0
 10
0.0
 20
0.0
 30
0.0
  3
block 11
  1

  0
SPLINE
  5
71
330
6D
100
AcDbEntity
  8
Layer 1
 62
    22
420
 13900569
370
    35
100
AcDbSpline
210
0.0
220
0.0
230
1.0
 70
    11
 71
     3
 72
    17
 73
    13
 74
     0
 42
0.0000000001
 43
0.0000000001
 12
1.0
 22
0.0
 32
0.0
 13
1.0
 23
0.0
 33
0.0
 40
0.0
 40
0.0
 40
0.0
 40
0.0
 40
1.0
 40
1.0
 40
1.0
 40
2.0
 40
2.0
 40
2.0
 40
3.0
 40
3.0
 40
3.0
 40
4.0
 40
4.0
 40
4.0
 40
4.0
 10
82.50338095215858
 20
-67.24327978007803
 30
0.0
 10
82.50338095203345
 20
-65.86317787084292
 30
0.0
 10
83.6230297197568
 20
-64.74384928818687
 30
0.0
 10
85.00313162899192
 20
-64.74384928806366
 30
0.0
 10
86.3832688160039
 20
-64.74384928793917
 30
0.0
 10
87.50291489865121
 20
-65.86317787039373
 30
0.0
 10
87.50291489877506
 20
-67.24327977962884
 30
0.0
 10
87.50291489889891
 20
-68.62405196662462
 30
0.0
 10
86.3832688164531
 20
-69.7433805492794
 30
0.0
 10
85.0031316294411
 20
-69.74338054940388
 30
0.0
 10
83.62302972020599
 20
-69.74338054952709
 30
0.0
 10
82.5033809522837
 20
-68.62405196707381
 30
0.0
 10
82.50338095215858
 20
-67.24327978007803
 30
0.0
  0
ENDBLK
  5
70
330
6D
100
AcDbEntity
  8
0
100
AcDbBlockEnd
  0
BLOCK
  5
74
330
72
100
AcDbEntity
  8
0
100
AcDbBlockBegin
  2
block 12
 70
     0
 10
0.0
 20
0.0
 30
0.0
  3
block 12
  1

  0
SPLINE
  5
76
330
72
100
AcDbEntity
  8
Layer 1
 62
    22
420
 13900569
370
    35
100
AcDbSpline
210
0.0
220
0.0
230
1.0
 70
    11
 71
     3
 72
    17
 73
    13
 74
     0
 42
0.0000000001
 43
0.0000000001
 12
1.0
 22
0.0
 32
0.0
 13
1.0
 23
0.0
 33
0.0
 40
0.0
 40
0.0
 40
0.0
 40
0.0
 40
1.0
 40
1.0
 40
1.0
 40
2.0
 40
2.0
 40
2.0
 40
3.0
 40
3.0
 40
3.0
 40
4.0
 40
4.0
 40
4.0
 40
4.0
 10
74.88338229670126
 20
-67.2432797809687
 30
0.0
 10
74.88338229657741
 20
-65.8631778717336
 30
0.0
 10
76.00302547131483
 20
-64.74384928907882
 30
0.0
 10
77.38313028825898
 20
-64.74384928895434
 30
0.0
 10
78.7646433085692
 20
-64.74384928882985
 30
0.0
 10
79.88291355791763
 20
-65.86317787128569
 30
0.0
 10
79.88291355804148
 20
-67.2432797805208
 30
0.0
 10
79.88291355816469
 20
-68.62405196751658
 30
0.0
 10
78.7646433090171
 20
-69.74338055017007
 30
0.0
 10
77.38313028870688
 20
-69.74338055029456
 30
0.0
 10
76.00302547176402
 20
-69.74338055041905
 30
0.0
 10
74.88338229682446
 20
-68.62405196796449
 30
0.0
 10
74.88338229670126
 20
-67.2432797809687
 30
0.0
  0
ENDBLK
  5
75
330
72
100
AcDbEntity
  8
0
100
AcDbBlockEnd
  0
BLOCK
  5
B9
330
B7
100
AcDbEntity
  8
0
100
AcDbBlockBegin
  2
block 13
 70
     0
 10
0.0
 20
0.0
 30
0.0
  3
block 13
  1

  0
POLYLINE
  5
BB
330
B7
100
AcDbEntity
  8
Layer 1
 62
   155
420
  2976177
370
    35
100
AcDb2dPolyline
 66
     1
 10
0.0
 20
0.0
 30
0.0
  0
VERTEX
  5
BC
330
BB
100
AcDbEntity
  8
Layer 1
 62
   155
420
  2976177
370
    35
100
AcDbVertex
100
AcDb2dVertex
 10
-41.66754130447413
 20
26.79494141100262
 30
0.0
  0
VERTEX
  5
BD
330
BB
100
AcDbEntity
  8
Layer 1
 62
   155
420
  2976177
370
    35
100
AcDbVertex
100
AcDb2dVertex
 10
-41.67598178841299
 20
26.79494141100262
 30
0.0
  0
VERTEX
  5
BE
330
BB
100
AcDbEntity
  8
Layer 1
 62
   155
420
  2976177
370
    35
100
AcDbVertex
100
AcDb2dVertex
 10
-42.15416104176567
 20
26.53690375915741
 30
0.0
  0
VERTEX
  5
BF
330
BB
100
AcDbEntity
  8
Layer 1
 62
   155
420
  2976177
370
    35
100
AcDbVertex
100
AcDb2dVertex
 10
-42.22616353740739
 20
26.82043511759347
 30
0.0
  0
VERTEX
  5
C0
330
BB
100
AcDbEntity
  8
Layer 1
 62
   155
420
  2976177
370
    35
100
AcDbVertex
100
AcDb2dVertex
 10
-41.62533888477981
 20
27.14203478114154
 30
0.0
  0
VERTEX
  5
C1
330
BB
100
AcDbEntity
  8
Layer 1
 62
   155
420
  2976177
370
    35
100
AcDbVertex
100
AcDb2dVertex
 10
-41.30787333581404
 20
27.14203478114154
 30
0.0
  0
VERTEX
  5
C2
330
BB
100
AcDbEntity
  8
Layer 1
 62
   155
420
  2976177
370
    35
100
AcDbVertex
100
AcDb2dVertex
 10
-41.30787333581404
 20
24.3918150552666
 30
0.0
  0
VERTEX
  5
C3
330
BB
100
AcDbEntity
  8
Layer 1
 62
   155
420
  2976177
370
    35
100
AcDbVertex
100
AcDb2dVertex
 10
-41.66754130447413
 20
24.3918150552666
 30
0.0
  0
VERTEX
  5
C4
330
BB
100
AcDbEntity
  8
Layer 1
 62
   155
420
  2976177
370
    35
100
AcDbVertex
100
AcDb2dVertex
 10
-41.66754130447413
 20
26.79494141100262
 30
0.0
  0
SEQEND
  5
C5
330
BB
100
AcDbEntity
  8
Layer 1
 62
   155
420
  2976177
370
    35
  0
ENDBLK
  5
BA
330
B7
100
AcDbEntity
  8
0
100
AcDbBlockEnd
  0
BLOCK
  5
EE
330
EC
100
AcDbEntity
  8
0
100
AcDbBlockBegin
  2
block 14
 70
     0
 10
0.0
 20
0.0
 30
0.0
  3
block 14
  1

  0
INSERT
  5
F1
330
EC
100
AcDbEntity
  8
Layer 1
100
AcDbBlockReference
  2
block 15
 10
0.0
 20
0.0
 30
0.0
  0
INSERT
  5
F6
330
EC
100
AcDbEntity
  8
Layer 1
100
AcDbBlockReference
  2
block 16
 10
0.0
 20
0.0
 30
0.0
  0
INSERT
  5
FB
330
EC
100
AcDbEntity
  8
Layer 1
100
AcDbBlockReference
  2
block 17
 10
0.0
 20
0.0
 30
0.0
  0
INSERT
  5
100
330
EC
100
AcDbEntity
  8
Layer 1
100
AcDbBlockReference
  2
block 18
 10
0.0
 20
0.0
 30
0.0
  0
INSERT
  5
105
330
EC
100
AcDbEntity
  8
Layer 1
100
AcDbBlockReference
  2
block 19
 10
0.0
 20
0.0
 30
0.0
  0
INSERT
  5
10A
330
EC
100
AcDbEntity
  8
Layer 1
100
AcDbBlockReference
  2
block 20
 10
0.0
 20
0.0
 30
0.0
  0
INSERT
  5
10F
330
EC
100
AcDbEntity
  8
Layer 1
100
AcDbBlockReference
  2
block 21
 10
0.0
 20
0.0
 30
0.0
  0
INSERT
  5
114
330
EC
100
AcDbEntity
  8
Layer 1
100
AcDbBlockReference
  2
block 22
 10
0.0
 20
0.0
 30
0.0
  0
INSERT
  5
119
330
EC
100
AcDbEntity
  8
Layer 1
100
AcDbBlockReference
  2
block 23
 10
0.0
 20
0.0
 30
0.0
  0
ENDBLK
  5
EF
330
EC
100
AcDbEntity
  8
0
100
AcDbBlockEnd
  0
BLOCK
  5
F2
330
F0
100
AcDbEntity
  8
0
100
AcDbBlockBegin
  2
block 15
 70
     0
 10
0.0
 20
0.0
 30
0.0
  3
block 15
  1

  0
SPLINE
  5
F4
330
F0
100
AcDbEntity
  8
Layer 1
 62
    12
420
 13900057
370
    35
100
AcDbSpline
210
0.0
220
0.0
230
1.0
 70
    11
 71
     3
 72
    17
 73
    13
 74
     0
 42
0.0000000001
 43
0.0000000001
 12
1.0
 22
0.0
 32
0.0
 13
1.0
 23
0.0
 33
0.0
 40
0.0
 40
0.0
 40
0.0
 40
0.0
 40
1.0
 40
1.0
 40
1.0
 40
2.0
 40
2.0
 40
2.0
 40
3.0
 40
3.0
 40
3.0
 40
4.0
 40
4.0
 40
4.0
 40
4.0
 10
33.12776930950223
 20
-186.6104722898137
 30
0.0
 10
33.12776930937774
 20
-185.2303703805785
 30
0.0
 10
34.24603955852596
 20
-184.1110417979238
 30
0.0
 10
35.62649424552921
 20
-184.1110417977993
 30
0.0
 10
37.00761921029378
 20
-184.1110417976748
 30
0.0
 10
38.12726529294044
 20
-185.2303703801294
 30
0.0
 10
38.12726529306493
 20
-186.6104722893645
 30
0.0
 10
38.12726529318813
 20
-187.9912444763603
 30
0.0
 10
37.00761921074168
 20
-189.110573059015
 30
0.0
 10
35.62649424597711
 20
-189.1105730591395
 30
0.0
 10
34.24603955897386
 20
-189.110573059264
 30
0.0
 10
33.12776930962544
 20
-187.9912444768094
 30
0.0
 10
33.12776930950223
 20
-186.6104722898137
 30
0.0
  0
ENDBLK
  5
F3
330
F0
100
AcDbEntity
  8
0
100
AcDbBlockEnd
  0
BLOCK
  5
F7
330
F5
100
AcDbEntity
  8
0
100
AcDbBlockBegin
  2
block 16
 70
     0
 10
0.0
 20
0.0
 30
0.0
  3
block 16
  1

  0
SPLINE
  5
F9
330
F5
100
AcDbEntity
  8
Layer 1
 62
    12
420
 13900057
370
    35
100
AcDbSpline
210
0.0
220
0.0
230
1.0
 70
    11
 71
     3
 72
    17
 73
    13
 74
     0
 42
0.0000000001
 43
0.0000000001
 12
1.0
 22
0.0
 32
0.0
 13
1.0
 23
0.0
 33
0.0
 40
0.0
 40
0.0
 40
0.0
 40
0.0
 40
1.0
 40
1.0
 40
1.0
 40
2.0
 40
2.0
 40
2.0
 40
3.0
 40
3.0
 40
3.0
 40
4.0
 40
4.0
 40
4.0
 40
4.0
 10
22.9677503305156
 20
-186.6104722898137
 30
0.0
 10
22.96775033039111
 20
-185.2303703805785
 30
0.0
 10
24.08602057953933
 20
-184.1110417979238
 30
0.0
 10
25.46647526654386
 20
-184.1110417978006
 30
0.0
 10
26.84760023130778
 20
-184.1110417976761
 30
0.0
 10
27.96724631395445
 20
-185.2303703801294
 30
0.0
 10
27.96724631407894
 20
-186.6104722893645
 30
0.0
 10
27.96724631420343
 20
-187.9912444763603
 30
0.0
 10
26.84760023175761
 20
-189.1105730590163
 30
0.0
 10
25.4664752669924
 20
-189.1105730591408
 30
0.0
 10
24.08602057998852
 20
-189.110573059264
 30
0.0
 10
22.96775033064008
 20
-187.9912444768094
 30
0.0
 10
22.9677503305156
 20
-186.6104722898137
 30
0.0
  0
ENDBLK
  5
F8
330
F5
100
AcDbEntity
  8
0
100
AcDbBlockEnd
  0
BLOCK
  5
FC
330
FA
100
AcDbEntity
  8
0
100
AcDbBlockBegin
  2
block 17
 70
     0
 10
0.0
 20
0.0
 30
0.0
  3
block 17
  1

  0
SPLINE
  5
FE
330
FA
100
AcDbEntity
  8
Layer 1
 62
    12
420
 13900057
370
    35
100
AcDbSpline
210
0.0
220
0.0
230
1.0
 70
    11
 71
     3
 72
    17
 73
    13
 74
     0
 42
0.0000000001
 43
0.0000000001
 12
1.0
 22
0.0
 32
0.0
 13
1.0
 23
0.0
 33
0.0
 40
0.0
 40
0.0
 40
0.0
 40
0.0
 40
1.0
 40
1.0
 40
1.0
 40
2.0
 40
2.0
 40
2.0
 40
3.0
 40
3.0
 40
3.0
 40
4.0
 40
4.0
 40
4.0
 40
4.0
 10
15.34776931394704
 20
-186.6104722907056
 30
0.0
 10
15.34776931382222
 20
-185.2303703814705
 30
0.0
 10
16.46741539626868
 20
-184.1110417988145
 30
0.0
 10
17.8475159369715
 20
-184.11104179869
 30
0.0
 10
19.22899371440429
 20
-184.1110417985668
 30
0.0
 10
20.34726529738557
 20
-185.23037038102
 30
0.0
 10
20.34726529751006
 20
-186.6104722902552
 30
0.0
 10
20.34726529763326
 20
-187.9912444772509
 30
0.0
 10
19.22899371485348
 20
-189.110573059907
 30
0.0
 10
17.84751593742069
 20
-189.1105730600302
 30
0.0
 10
16.46741539671659
 20
-189.1105730601547
 30
0.0
 10
15.34776931406992
 20
-187.9912444777014
 30
0.0
 10
15.34776931394704
 20
-186.6104722907056
 30
0.0
  0
ENDBLK
  5
FD
330
FA
100
AcDbEntity
  8
0
100
AcDbBlockEnd
  0
BLOCK
  5
101
330
FF
100
AcDbEntity
  8
0
100
AcDbBlockBegin
  2
block 18
 70
     0
 10
0.0
 20
0.0
 30
0.0
  3
block 18
  1

  0
SPLINE
  5
103
330
FF
100
AcDbEntity
  8
Layer 1
 62
    12
420
 13900057
370
    35
100
AcDbSpline
210
0.0
220
0.0
230
1.0
 70
    11
 71
     3
 72
    17
 73
    13
 74
     0
 42
0.0000000001
 43
0.0000000001
 12
1.0
 22
0.0
 32
0.0
 13
1.0
 23
0.0
 33
0.0
 40
0.0
 40
0.0
 40
0.0
 40
0.0
 40
1.0
 40
1.0
 40
1.0
 40
2.0
 40
2.0
 40
2.0
 40
3.0
 40
3.0
 40
3.0
 40
4.0
 40
4.0
 40
4.0
 40
4.0
 10
7.727751676962504
 20
-186.6104722915963
 30
0.0
 10
7.727751676838015
 20
-185.2303703823612
 30
0.0
 10
8.847433037061668
 20
-184.1110417997051
 30
0.0
 10
10.22753494629646
 20
-184.1110417995806
 30
0.0
 10
11.60763685553157
 20
-184.1110417994587
 30
0.0
 10
12.72728293817888
 20
-185.230370381912
 30
0.0
 10
12.72728293830337
 20
-186.6104722911471
 30
0.0
 10
12.72728293842593
 20
-187.9912444781429
 30
0.0
 10
11.60763685597948
 20
-189.1105730607989
 30
0.0
 10
10.22753494674437
 20
-189.1105730609209
 30
0.0
 10
8.847433037509253
 20
-189.1105730610454
 30
0.0
 10
7.727751677085711
 20
-187.9912444785921
 30
0.0
 10
7.727751676962504
 20
-186.6104722915963
 30
0.0
  0
ENDBLK
  5
102
330
FF
100
AcDbEntity
  8
0
100
AcDbBlockEnd
  0
BLOCK
  5
106
330
104
100
AcDbEntity
  8
0
100
AcDbBlockBegin
  2
block 19
 70
     0
 10
0.0
 20
0.0
 30
0.0
  3
block 19
  1

  0
SPLINE
  5
108
330
104
100
AcDbEntity
  8
Layer 1
 62
    12
420
 13900057
370
    35
100
AcDbSpline
210
0.0
220
0.0
230
1.0
 70
    11
 71
     3
 72
    17
 73
    13
 74
     0
 42
0.0000000001
 43
0.0000000001
 12
1.0
 22
0.0
 32
0.0
 13
1.0
 23
0.0
 33
0.0
 40
0.0
 40
0.0
 40
0.0
 40
0.0
 40
1.0
 40
1.0
 40
1.0
 40
2.0
 40
2.0
 40
2.0
 40
3.0
 40
3.0
 40
3.0
 40
4.0
 40
4.0
 40
4.0
 40
4.0
 10
0.1077516788673754
 20
-186.610472292487
 30
0.0
 10
0.1077516787422441
 20
-185.2303703832519
 30
0.0
 10
1.227433038965577
 20
-184.1110418005971
 30
0.0
 10
2.607534948200046
 20
-184.1110418004739
 30
0.0
 10
3.989012690734032
 20
-184.1110418003481
 30
0.0
 10
5.107282940082464
 20
-185.2303703828027
 30
0.0
 10
5.107282940206954
 20
-186.6104722920378
 30
0.0
 10
5.107282940329519
 20
-187.9912444790336
 30
0.0
 10
3.989012691181938
 20
-189.1105730616883
 30
0.0
 10
2.607534948648594
 20
-189.1105730618141
 30
0.0
 10
1.227433039413482
 20
-189.1105730619373
 30
0.0
 10
0.10775167898994
 20
-187.9912444794828
 30
0.0
 10
0.1077516788673754
 20
-186.610472292487
 30
0.0
  0
ENDBLK
  5
107
330
104
100
AcDbEntity
  8
0
100
AcDbBlockEnd
  0
BLOCK
  5
10B
330
109
100
AcDbEntity
  8
0
100
AcDbBlockBegin
  2
block 20
 70
     0
 10
0.0
 20
0.0
 30
0.0
  3
block 20
  1

  0
SPLINE
  5
10D
330
109
100
AcDbEntity
  8
Layer 1
 62
    12
420
 13900057
370
    35
100
AcDbSpline
210
0.0
220
0.0
230
1.0
 70
    11
 71
     3
 72
    17
 73
    13
 74
     0
 42
0.0000000001
 43
0.0000000001
 12
1.0
 22
0.0
 32
0.0
 13
1.0
 23
0.0
 33
0.0
 40
0.0
 40
0.0
 40
0.0
 40
0.0
 40
1.0
 40
1.0
 40
1.0
 40
2.0
 40
2.0
 40
2.0
 40
3.0
 40
3.0
 40
3.0
 40
4.0
 40
4.0
 40
4.0
 40
4.0
 10
-7.512247290459704
 20
-186.6104722933789
 30
0.0
 10
-7.512247290584193
 20
-185.2303703841438
 30
0.0
 10
-6.393979197023684
 20
-184.1110418014878
 30
0.0
 10
-5.013522354431441
 20
-184.1110418013646
 30
0.0
 10
-3.632362111890638
 20
-184.1110418012401
 30
0.0
 10
-2.512718086782318
 20
-185.2303703836946
 30
0.0
 10
-2.512718086657508
 20
-186.6104722929298
 30
0.0
 10
-2.512718086534943
 20
-187.9912444799255
 30
0.0
 10
-3.63236211144209
 20
-189.1105730625803
 30
0.0
 10
-5.013522353984176
 20
-189.1105730627048
 30
0.0
 10
-6.393979196575778
 20
-189.110573062828
 30
0.0
 10
-7.512247290336497
 20
-187.9912444803747
 30
0.0
 10
-7.512247290459704
 20
-186.6104722933789
 30
0.0
  0
ENDBLK
  5
10C
330
109
100
AcDbEntity
  8
0
100
AcDbBlockEnd
  0
BLOCK
  5
110
330
10E
100
AcDbEntity
  8
0
100
AcDbBlockBegin
  2
block 21
 70
     0
 10
0.0
 20
0.0
 30
0.0
  3
block 21
  1

  0
SPLINE
  5
112
330
10E
100
AcDbEntity
  8
Layer 1
 62
    12
420
 13900057
370
    35
100
AcDbSpline
210
0.0
220
0.0
230
1.0
 70
    11
 71
     3
 72
    17
 73
    13
 74
     0
 42
0.0000000001
 43
0.0000000001
 12
1.0
 22
0.0
 32
0.0
 13
1.0
 23
0.0
 33
0.0
 40
0.0
 40
0.0
 40
0.0
 40
0.0
 40
1.0
 40
1.0
 40
1.0
 40
2.0
 40
2.0
 40
2.0
 40
3.0
 40
3.0
 40
3.0
 40
4.0
 40
4.0
 40
4.0
 40
4.0
 10
-15.13224831732481
 20
-186.6104722942696
 30
0.0
 10
-15.1322483174493
 20
-185.2303703850345
 30
0.0
 10
-14.0126022350022
 20
-184.1110418023785
 30
0.0
 10
-12.63250032576741
 20
-184.1110418022552
 30
0.0
 10
-11.25098730545719
 20
-184.1110418021308
 30
0.0
 10
-10.13271705610908
 20
-185.2303703845853
 30
0.0
 10
-10.13271705598459
 20
-186.6104722938204
 30
0.0
 10
-10.13271705586138
 20
-187.9912444808162
 30
0.0
 10
-11.2509873050096
 20
-189.110573063471
 30
0.0
 10
-12.63250032531982
 20
-189.1105730635955
 30
0.0
 10
-14.01260223455494
 20
-189.1105730637187
 30
0.0
 10
-15.13224831720096
 20
-187.9912444812654
 30
0.0
 10
-15.13224831732481
 20
-186.6104722942696
 30
0.0
  0
ENDBLK
  5
111
330
10E
100
AcDbEntity
  8
0
100
AcDbBlockEnd
  0
BLOCK
  5
115
330
113
100
AcDbEntity
  8
0
100
AcDbBlockBegin
  2
block 22
 70
     0
 10
0.0
 20
0.0
 30
0.0
  3
block 22
  1

  0
SPLINE
  5
117
330
113
100
AcDbEntity
  8
Layer 1
 62
    12
420
 13900057
370
    35
100
AcDbSpline
210
0.0
220
0.0
230
1.0
 70
    11
 71
     3
 72
    17
 73
    13
 74
     0
 42
0.0000000001
 43
0.0000000001
 12
1.0
 22
0.0
 32
0.0
 13
1.0
 23
0.0
 33
0.0
 40
0.0
 40
0.0
 40
0.0
 40
0.0
 40
1.0
 40
1.0
 40
1.0
 40
2.0
 40
2.0
 40
2.0
 40
3.0
 40
3.0
 40
3.0
 40
4.0
 40
4.0
 40
4.0
 40
4.0
 10
-22.75224965805903
 20
-186.6104722951616
 30
0.0
 10
-22.7522496581848
 20
-185.2303703859265
 30
0.0
 10
-21.63260089046144
 20
-184.1110418032704
 30
0.0
 10
-20.25249898122633
 20
-184.1110418031459
 30
0.0
 10
-18.8723617942137
 20
-184.1110418030214
 30
0.0
 10
-17.7527157115664
 20
-185.2303703854773
 30
0.0
 10
-17.75271571144319
 20
-186.6104722947124
 30
0.0
 10
-17.7527157113187
 20
-187.9912444817082
 30
0.0
 10
-18.87236179376515
 20
-189.1105730643617
 30
0.0
 10
-20.25249898077714
 20
-189.1105730644861
 30
0.0
 10
-21.63260089001226
 20
-189.1105730646106
 30
0.0
 10
-22.7522496579339
 20
-187.9912444821574
 30
0.0
 10
-22.75224965805903
 20
-186.6104722951616
 30
0.0
  0
ENDBLK
  5
116
330
113
100
AcDbEntity
  8
0
100
AcDbBlockEnd
  0
BLOCK
  5
11A
330
118
100
AcDbEntity
  8
0
100
AcDbBlockBegin
  2
block 23
 70
     0
 10
0.0
 20
0.0
 30
0.0
  3
block 23
  1

  0
SPLINE
  5
11C
330
118
100
AcDbEntity
  8
Layer 1
 62
    12
420
 13900057
370
    35
100
AcDbSpline
210
0.0
220
0.0
230
1.0
 70
    11
 71
     3
 72
    17
 73
    13
 74
     0
 42
0.0000000001
 43
0.0000000001
 12
1.0
 22
0.0
 32
0.0
 13
1.0
 23
0.0
 33
0.0
 40
0.0
 40
0.0
 40
0.0
 40
0.0
 40
1.0
 40
1.0
 40
1.0
 40
2.0
 40
2.0
 40
2.0
 40
3.0
 40
3.0
 40
3.0
 40
4.0
 40
4.0
 40
4.0
 40
4.0
 10
-30.37224831351635
 20
-186.610472296051
 30
0.0
 10
-30.37224831364084
 20
-185.2303703868158
 30
0.0
 10
-29.25260513890406
 20
-184.1110418041611
 30
0.0
 10
-27.87250032195927
 20
-184.1110418040379
 30
0.0
 10
-26.49098730164905
 20
-184.1110418039134
 30
0.0
 10
-25.3727170523003
 20
-185.230370386368
 30
0.0
 10
-25.37271705217677
 20
-186.6104722956031
 30
0.0
 10
-25.37271705205292
 20
-187.9912444825989
 30
0.0
 10
-26.49098730120114
 20
-189.1105730652536
 30
0.0
 10
-27.87250032151136
 20
-189.1105730653781
 30
0.0
 10
-29.25260513845423
 20
-189.1105730655013
 30
0.0
 10
-30.37224831339314
 20
-187.991244483048
 30
0.0
 10
-30.37224831351635
 20
-186.610472296051
 30
0.0
  0
ENDBLK
  5
11B
330
118
100
AcDbEntity
  8
0
100
AcDbBlockEnd
  0
BLOCK
  5
136
330
134
100
AcDbEntity
  8
0
100
AcDbBlockBegin
  2
block 24
 70
     0
 10
0.0
 20
0.0
 30
0.0
  3
block 24
  1

  0
SPLINE
  5
138
330
134
100
AcDbEntity
  8
Layer 1
 62
   155
420
  2976177
370
    35
100
AcDbSpline
210
0.0
220
0.0
230
1.0
 70
    11
 71
     3
 72
    35
 73
    31
 74
     0
 42
0.0000000001
 43
0.0000000001
 12
1.0
 22
0.0
 32
0.0
 13
1.0
 23
0.0
 33
0.0
 40
0.0
 40
0.0
 40
0.0
 40
0.0
 40
1.0
 40
1.0
 40
1.0
 40
2.0
 40
2.0
 40
2.0
 40
3.0
 40
3.0
 40
3.0
 40
4.0
 40
4.0
 40
4.0
 40
5.0
 40
5.0
 40
5.0
 40
6.0
 40
6.0
 40
6.0
 40
7.0
 40
7.0
 40
7.0
 40
8.0
 40
8.0
 40
8.0
 40
9.0
 40
9.0
 40
9.0
 40
10.0
 40
10.0
 40
10.0
 40
10.0
 10
-43.15487515284362
 20
-95.19990553878321
 30
0.0
 10
-43.15487515284362
 20
-94.85298442341855
 30
0.0
 10
-42.94765265940583
 20
-94.60734911532025
 30
0.0
 10
-42.60917202798004
 20
-94.46368863358532
 30
0.0
 10
-42.60917202798004
 20
-94.46368863358532
 30
0.0
 10
-42.61330614256234
 20
-94.4509417802899
 30
0.0
 10
-42.61330614256234
 20
-94.4509417802899
 30
0.0
 10
-42.91802483823269
 20
-94.30693678900646
 30
0.0
 10
-43.04911072144645
 20
-94.06991421962127
 30
0.0
 10
-43.04911072144645
 20
-93.8332361597846
 30
0.0
 10
-43.04911072144645
 20
-93.3974315809005
 30
0.0
 10
-42.6810022688475
 20
-93.10115336916901
 30
0.0
 10
-42.19868890091252
 20
-93.10115336916901
 30
0.0
 10
-41.66556037457011
 20
-93.10115336916901
 30
0.0
 10
-41.39908223878604
 20
-93.43532763123825
 30
0.0
 10
-41.39908223878604
 20
-93.7781146320206
 30
0.0
 10
-41.39908223878604
 20
-94.0110030868235
 30
0.0
 10
-41.51328715412207
 20
-94.26042799995558
 30
0.0
 10
-41.85176778554786
 20
-94.42131395911674
 30
0.0
 10
-41.85176778554786
 20
-94.42131395911674
 30
0.0
 10
-41.85176778554786
 20
-94.43406081241217
 30
0.0
 10
-41.85176778554786
 20
-94.43406081241217
 30
0.0
 10
-41.50898078476551
 20
-94.5694530649825
 30
0.0
 10
-41.29745192197117
 20
-94.81060974894999
 30
0.0
 10
-41.29745192197117
 20
-95.14478401101921
 30
0.0
 10
-41.29745192197117
 20
-95.62296326437189
 30
0.0
 10
-41.70793504903868
 20
-95.9443906731457
 30
0.0
 10
-42.23262309144224
 20
-95.9443906731457
 30
0.0
 10
-42.80795403747896
 20
-95.9443906731457
 30
0.0
 10
-43.15487515284362
 20
-95.60160367236334
 30
0.0
 10
-43.15487515284362
 20
-95.19990553878321
 30
0.0
  0
SPLINE
  5
139
330
134
100
AcDbEntity
  8
Layer 1
 62
   155
420
  2976177
370
    35
100
AcDbSpline
210
0.0
220
0.0
230
1.0
 70
    11
 71
     3
 72
    17
 73
    13
 74
     0
 42
0.0000000001
 43
0.0000000001
 12
1.0
 22
0.0
 32
0.0
 13
1.0
 23
0.0
 33
0.0
 40
0.0
 40
0.0
 40
0.0
 40
0.0
 40
1.0
 40
1.0
 40
1.0
 40
2.0
 40
2.0
 40
2.0
 40
3.0
 40
3.0
 40
3.0
 40
4.0
 40
4.0
 40
4.0
 40
4.0
 10
-41.67400085850897
 20
-95.18268006135696
 30
0.0
 10
-41.67400085850897
 20
-94.84850579928774
 30
0.0
 10
-41.90671705853759
 20
-94.68796434967508
 30
0.0
 10
-42.2791318804931
 20
-94.58219991827792
 30
0.0
 10
-42.60055928926692
 20
-94.67521749637966
 30
0.0
 10
-42.77419210172351
 20
-94.886746359174
 30
0.0
 10
-42.77419210172351
 20
-95.14891812560151
 30
0.0
 10
-42.78676670024467
 20
-95.42831536945528
 30
0.0
 10
-42.57523783745033
 20
-95.67360616800507
 30
0.0
 10
-42.22401035272911
 20
-95.67360616800507
 30
0.0
 10
-41.88983609065988
 20
-95.67360616800507
 30
0.0
 10
-41.67400085850897
 20
-95.46621141979303
 30
0.0
 10
-41.67400085850897
 20
-95.18268006135696
 30
0.0
  0
SPLINE
  5
13A
330
134
100
AcDbEntity
  8
Layer 1
 62
   155
420
  2976177
370
    35
100
AcDbSpline
210
0.0
220
0.0
230
1.0
 70
    11
 71
     3
 72
    17
 73
    13
 74
     0
 42
0.0000000001
 43
0.0000000001
 12
1.0
 22
0.0
 32
0.0
 13
1.0
 23
0.0
 33
0.0
 40
0.0
 40
0.0
 40
0.0
 40
0.0
 40
1.0
 40
1.0
 40
1.0
 40
2.0
 40
2.0
 40
2.0
 40
3.0
 40
3.0
 40
3.0
 40
4.0
 40
4.0
 40
4.0
 40
4.0
 10
-42.69788323672523
 20
-93.80774245319375
 30
0.0
 10
-42.69788323672523
 20
-94.0826610729167
 30
0.0
 10
-42.49066074328744
 20
-94.23080017878243
 30
0.0
 10
-42.17336744909593
 20
-94.31554952771958
 30
0.0
 10
-41.93634487971075
 20
-94.23493429336473
 30
0.0
 10
-41.75444383808956
 20
-94.06578010503897
 30
0.0
 10
-41.75444383808956
 20
-93.81635519190688
 30
0.0
 10
-41.75444383808956
 20
-93.59621359039942
 30
0.0
 10
-41.88552972130331
 20
-93.36780375972735
 30
0.0
 10
-42.21987623814681
 20
-93.36780375972735
 30
0.0
 10
-42.52872904839946
 20
-93.36780375972735
 30
0.0
 10
-42.69788323672523
 20
-93.57071988380856
 30
0.0
 10
-42.69788323672523
 20
-93.80774245319375
 30
0.0
  0
ENDBLK
  5
137
330
134
100
AcDbEntity
  8
0
100
AcDbBlockEnd
  0
BLOCK
  5
13D
330
13B
100
AcDbEntity
  8
0
100
AcDbBlockBegin
  2
block 25
 70
     0
 10
0.0
 20
0.0
 30
0.0
  3
block 25
  1

  0
SPLINE
  5
13F
330
13B
100
AcDbEntity
  8
Layer 1
 62
   155
420
  2976177
370
    35
100
AcDbSpline
210
0.0
220
0.0
230
1.0
 70
    11
 71
     3
 72
    41
 73
    37
 74
     0
 42
0.0000000001
 43
0.0000000001
 12
1.0
 22
0.0
 32
0.0
 13
1.0
 23
0.0
 33
0.0
 40
0.0
 40
0.0
 40
0.0
 40
0.0
 40
1.0
 40
1.0
 40
1.0
 40
2.0
 40
2.0
 40
2.0
 40
3.0
 40
3.0
 40
3.0
 40
4.0
 40
4.0
 40
4.0
 40
5.0
 40
5.0
 40
5.0
 40
6.0
 40
6.0
 40
6.0
 40
7.0
 40
7.0
 40
7.0
 40
8.0
 40
8.0
 40
8.0
 40
9.0
 40
9.0
 40
9.0
 40
10.0
 40
10.0
 40
10.0
 40
11.0
 40
11.0
 40
11.0
 40
12.0
 40
12.0
 40
12.0
 40
12.0
 10
62.46867317432827
 20
-94.95596535831122
 30
0.0
 10
62.54894389913458
 20
-94.96423358747582
 30
0.0
 10
62.64230598678486
 20
-94.95596535831122
 30
0.0
 10
62.76908550064205
 20
-94.94321850501579
 30
0.0
 10
62.98474847801869
 20
-94.91359068384264
 30
0.0
 10
63.18800911164843
 20
-94.82470722032319
 30
0.0
 10
63.34441644667878
 20
-94.67656811445745
 30
0.0
 10
63.52631748829997
 20
-94.51154804071398
 30
0.0
 10
63.65757562628799
 20
-94.2703913567465
 30
0.0
 10
63.70821852992115
 20
-93.94448532384186
 30
0.0
 10
63.70821852992115
 20
-93.94448532384186
 30
0.0
 10
63.69581618617426
 20
-93.94448532384186
 30
0.0
 10
63.69581618617426
 20
-93.94448532384186
 30
0.0
 10
63.54319845617769
 20
-94.13086498959387
 30
0.0
 10
63.32340136421875
 20
-94.24076353557335
 30
0.0
 10
63.04848274449581
 20
-94.24076353557335
 30
0.0
 10
62.55342252326541
 20
-94.24076353557335
 30
0.0
 10
62.2361292290739
 20
-93.86834871361783
 30
0.0
 10
62.2361292290739
 20
-93.39878219897828
 30
0.0
 10
62.2361292290739
 20
-92.87822827115703
 30
0.0
 10
62.61267816561171
 20
-92.4214086098129
 30
0.0
 10
63.17526225835301
 20
-92.4214086098129
 30
0.0
 10
63.7378463510943
 20
-92.4214086098129
 30
0.0
 10
64.08476746645897
 20
-92.87822827115703
 30
0.0
 10
64.08476746645897
 20
-93.58068324059947
 30
0.0
 10
64.08476746645897
 20
-94.18564200780935
 30
0.0
 10
63.88185134237775
 20
-94.60869973339803
 30
0.0
 10
63.61106683723711
 20
-94.87121600937407
 30
0.0
 10
63.39953797444277
 20
-95.0786107575861
 30
0.0
 10
63.10739387729359
 20
-95.2053902714433
 30
0.0
 10
62.81146017511062
 20
-95.23915220719874
 30
0.0
 10
62.67606792254031
 20
-95.2605117992073
 30
0.0
 10
62.55755663784771
 20
-95.2646459137896
 30
0.0
 10
62.46867317432827
 20
-95.2605117992073
 30
0.0
 10
62.46867317432827
 20
-95.2605117992073
 30
0.0
 10
62.46867317432827
 20
-94.95596535831122
 30
0.0
 10
62.46867317432827
 20
-94.95596535831122
 30
0.0
  0
SPLINE
  5
140
330
13B
100
AcDbEntity
  8
Layer 1
 62
   155
420
  2976177
370
    35
100
AcDbSpline
210
0.0
220
0.0
230
1.0
 70
    11
 71
     3
 72
    20
 73
    16
 74
     0
 42
0.0000000001
 43
0.0000000001
 12
1.0
 22
0.0
 32
0.0
 13
1.0
 23
0.0
 33
0.0
 40
0.0
 40
0.0
 40
0.0
 40
0.0
 40
1.0
 40
1.0
 40
1.0
 40
2.0
 40
2.0
 40
2.0
 40
3.0
 40
3.0
 40
3.0
 40
4.0
 40
4.0
 40
4.0
 40
5.0
 40
5.0
 40
5.0
 40
5.0
 10
62.60406542689859
 20
-93.37328849238743
 30
0.0
 10
62.60406542689859
 20
-93.7160754931698
 30
0.0
 10
62.81146017511062
 20
-93.95723217713729
 30
0.0
 10
63.13288758388443
 20
-93.95723217713729
 30
0.0
 10
63.38265700656505
 20
-93.95723217713729
 30
0.0
 10
63.57730490148166
 20
-93.83458677786238
 30
0.0
 10
63.67445659416571
 20
-93.66956670411892
 30
0.0
 10
63.69581618617426
 20
-93.63580476836347
 30
0.0
 10
63.70821852992115
 20
-93.5934300938949
 30
0.0
 10
63.70821852992115
 20
-93.53417445154861
 30
0.0
 10
63.70821852992115
 20
-93.06460793690906
 30
0.0
 10
63.53493022701309
 20
-92.70493996824896
 30
0.0
 10
63.14563443717986
 20
-92.70493996824896
 30
0.0
 10
62.82834114298835
 20
-92.70493996824896
 30
0.0
 10
62.60406542689859
 20
-92.9839927025542
 30
0.0
 10
62.60406542689859
 20
-93.37328849238743
 30
0.0
  0
ENDBLK
  5
13E
330
13B
100
AcDbEntity
  8
0
100
AcDbBlockEnd
  0
BLOCK
  5
189
330
187
100
AcDbEntity
  8
0
100
AcDbBlockBegin
  2
block 26
 70
     0
 10
0.0
 20
0.0
 30
0.0
  3
block 26
  1

  0
POLYLINE
  5
18B
330
187
100
AcDbEntity
  8
Layer 1
 62
   155
420
  2976177
370
    35
100
AcDb2dPolyline
 66
     1
 10
0.0
 20
0.0
 30
0.0
  0
VERTEX
  5
18C
330
18B
100
AcDbEntity
  8
Layer 1
 62
   155
420
  2976177
370
    35
100
AcDbVertex
100
AcDb2dVertex
 10
169.5992571810354
 20
26.47833713590816
 30
0.0
  0
VERTEX
  5
18D
330
18B
100
AcDbEntity
  8
Layer 1
 62
   155
420
  2976177
370
    35
100
AcDbVertex
100
AcDb2dVertex
 10
169.5909889518708
 20
26.47833713590816
 30
0.0
  0
VERTEX
  5
18E
330
18B
100
AcDbEntity
  8
Layer 1
 62
   155
420
  2976177
370
    35
100
AcDbVertex
100
AcDb2dVertex
 10
169.1128096985181
 20
26.22012722928869
 30
0.0
  0
VERTEX
  5
18F
330
18B
100
AcDbEntity
  8
Layer 1
 62
   155
420
  2976177
370
    35
100
AcDbVertex
100
AcDb2dVertex
 10
169.0408072028764
 20
26.50365858772475
 30
0.0
  0
VERTEX
  5
190
330
18B
100
AcDbEntity
  8
Layer 1
 62
   155
420
  2976177
370
    35
100
AcDbVertex
100
AcDb2dVertex
 10
169.6416318555039
 20
26.82525825127282
 30
0.0
  0
VERTEX
  5
191
330
18B
100
AcDbEntity
  8
Layer 1
 62
   155
420
  2976177
370
    35
100
AcDbVertex
100
AcDb2dVertex
 10
169.9589251496955
 20
26.82525825127282
 30
0.0
  0
VERTEX
  5
192
330
18B
100
AcDbEntity
  8
Layer 1
 62
   155
420
  2976177
370
    35
100
AcDbVertex
100
AcDb2dVertex
 10
169.9589251496955
 20
24.07503852539788
 30
0.0
  0
VERTEX
  5
193
330
18B
100
AcDbEntity
  8
Layer 1
 62
   155
420
  2976177
370
    35
100
AcDbVertex
100
AcDb2dVertex
 10
169.5992571810354
 20
24.07503852539788
 30
0.0
  0
VERTEX
  5
194
330
18B
100
AcDbEntity
  8
Layer 1
 62
   155
420
  2976177
370
    35
100
AcDbVertex
100
AcDb2dVertex
 10
169.5992571810354
 20
26.47833713590816
 30
0.0
  0
SEQEND
  5
195
330
18B
100
AcDbEntity
  8
Layer 1
 62
   155
420
  2976177
370
    35
  0
SPLINE
  5
196
330
187
100
AcDbEntity
  8
Layer 1
 62
   155
420
  2976177
370
    35
100
AcDbSpline
210
0.0
220
0.0
230
1.0
 70
    11
 71
     3
 72
    17
 73
    13
 74
     0
 42
0.0000000001
 43
0.0000000001
 12
1.0
 22
0.0
 32
0.0
 13
1.0
 23
0.0
 33
0.0
 40
0.0
 40
0.0
 40
0.0
 40
0.0
 40
1.0
 40
1.0
 40
1.0
 40
2.0
 40
2.0
 40
2.0
 40
3.0
 40
3.0
 40
3.0
 40
4.0
 40
4.0
 40
4.0
 40
4.0
 10
172.7907936385708
 20
25.4797762095085
 30
0.0
 10
172.7907936385708
 20
24.54460504003743
 30
0.0
 10
172.4438725232062
 20
24.028529736347
 30
0.0
 10
171.834779641414
 20
24.028529736347
 30
0.0
 10
171.297344745715
 20
24.028529736347
 30
0.0
 10
170.9335426624726
 20
24.53203044151627
 30
0.0
 10
170.9249299237595
 20
25.44170790439649
 30
0.0
 10
170.9249299237595
 20
26.36395996579787
 30
0.0
 10
171.3228384523059
 20
26.87176704032369
 30
0.0
 10
171.8812884304649
 20
26.87176704032369
 30
0.0
 10
172.4607534910839
 20
26.87176704032369
 30
0.0
 10
172.7907936385708
 20
26.35551948185901
 30
0.0
 10
172.7907936385708
 20
25.4797762095085
 30
0.0
  0
SPLINE
  5
197
330
187
100
AcDbEntity
  8
Layer 1
 62
   155
420
  2976177
370
    35
100
AcDbSpline
210
0.0
220
0.0
230
1.0
 70
    11
 71
     3
 72
    17
 73
    13
 74
     0
 42
0.0000000001
 43
0.0000000001
 12
1.0
 22
0.0
 32
0.0
 13
1.0
 23
0.0
 33
0.0
 40
0.0
 40
0.0
 40
0.0
 40
0.0
 40
1.0
 40
1.0
 40
1.0
 40
2.0
 40
2.0
 40
2.0
 40
3.0
 40
3.0
 40
3.0
 40
4.0
 40
4.0
 40
4.0
 40
4.0
 10
171.297344745715
 20
25.43740153503992
 30
0.0
 10
171.297344745715
 20
24.72237196707632
 30
0.0
 10
171.5174863472225
 20
24.31619520936536
 30
0.0
 10
171.855794723874
 20
24.31619520936536
 30
0.0
 10
172.2364777749941
 20
24.31619520936536
 30
0.0
 10
172.4183788166153
 20
24.76044027218833
 30
0.0
 10
172.4183788166153
 20
25.46272298685651
 30
0.0
 10
172.4183788166153
 20
26.1396842497081
 30
0.0
 10
172.2450905137073
 20
26.58410156730533
 30
0.0
 10
171.8599288384563
 20
26.58410156730533
 30
0.0
 10
171.5343673151002
 20
26.58410156730533
 30
0.0
 10
171.297344745715
 20
26.18636529353324
 30
0.0
 10
171.297344745715
 20
25.43740153503992
 30
0.0
  0
ENDBLK
  5
18A
330
187
100
AcDbEntity
  8
0
100
AcDbBlockEnd
  0
BLOCK
  5
19A
330
198
100
AcDbEntity
  8
0
100
AcDbBlockBegin
  2
block 27
 70
     0
 10
0.0
 20
0.0
 30
0.0
  3
block 27
  1

  0
POLYLINE
  5
19C
330
198
100
AcDbEntity
  8
Layer 1
 62
   155
420
  2976177
370
    35
100
AcDb2dPolyline
 66
     1
 10
0.0
 20
0.0
 30
0.0
  0
VERTEX
  5
19D
330
19C
100
AcDbEntity
  8
Layer 1
 62
   155
420
  2976177
370
    35
100
AcDbVertex
100
AcDb2dVertex
 10
170.3108416535137
 20
-92.33961501215454
 30
0.0
  0
VERTEX
  5
19E
330
19C
100
AcDbEntity
  8
Layer 1
 62
   155
420
  2976177
370
    35
100
AcDbVertex
100
AcDb2dVertex
 10
170.3025734243491
 20
-92.33961501215454
 30
0.0
  0
VERTEX
  5
19F
330
19C
100
AcDbEntity
  8
Layer 1
 62
   155
420
  2976177
370
    35
100
AcDbVertex
100
AcDb2dVertex
 10
169.8243941709964
 20
-92.59782491877401
 30
0.0
  0
VERTEX
  5
1A0
330
19C
100
AcDbEntity
  8
Layer 1
 62
   155
420
  2976177
370
    35
100
AcDbVertex
100
AcDb2dVertex
 10
169.7523916753547
 20
-92.31429356033794
 30
0.0
  0
VERTEX
  5
1A1
330
19C
100
AcDbEntity
  8
Layer 1
 62
   155
420
  2976177
370
    35
100
AcDbVertex
100
AcDb2dVertex
 10
170.3532163279823
 20
-91.99269389678987
 30
0.0
  0
VERTEX
  5
1A2
330
19C
100
AcDbEntity
  8
Layer 1
 62
   155
420
  2976177
370
    35
100
AcDbVertex
100
AcDb2dVertex
 10
170.6705096221738
 20
-91.99269389678987
 30
0.0
  0
VERTEX
  5
1A3
330
19C
100
AcDbEntity
  8
Layer 1
 62
   155
420
  2976177
370
    35
100
AcDbVertex
100
AcDb2dVertex
 10
170.6705096221738
 20
-94.74291362266482
 30
0.0
  0
VERTEX
  5
1A4
330
19C
100
AcDbEntity
  8
Layer 1
 62
   155
420
  2976177
370
    35
100
AcDbVertex
100
AcDb2dVertex
 10
170.3108416535137
 20
-94.74291362266482
 30
0.0
  0
VERTEX
  5
1A5
330
19C
100
AcDbEntity
  8
Layer 1
 62
   155
420
  2976177
370
    35
100
AcDbVertex
100
AcDb2dVertex
 10
170.3108416535137
 20
-92.33961501215454
 30
0.0
  0
SEQEND
  5
1A6
330
19C
100
AcDbEntity
  8
Layer 1
 62
   155
420
  2976177
370
    35
  0
POLYLINE
  5
1A7
330
198
100
AcDbEntity
  8
Layer 1
 62
   155
420
  2976177
370
    35
100
AcDb2dPolyline
 66
     1
 10
0.0
 20
0.0
 30
0.0
  0
VERTEX
  5
1A8
330
1A7
100
AcDbEntity
  8
Layer 1
 62
   155
420
  2976177
370
    35
100
AcDbVertex
100
AcDb2dVertex
 10
172.4826298474152
 20
-92.33961501215454
 30
0.0
  0
VERTEX
  5
1A9
330
1A7
100
AcDbEntity
  8
Layer 1
 62
   155
420
  2976177
370
    35
100
AcDbVertex
100
AcDb2dVertex
 10
172.4743616182506
 20
-92.33961501215454
 30
0.0
  0
VERTEX
  5
1AA
330
1A7
100
AcDbEntity
  8
Layer 1
 62
   155
420
  2976177
370
    35
100
AcDbVertex
100
AcDb2dVertex
 10
171.9961823648979
 20
-92.59782491877401
 30
0.0
  0
VERTEX
  5
1AB
330
1A7
100
AcDbEntity
  8
Layer 1
 62
   155
420
  2976177
370
    35
100
AcDbVertex
100
AcDb2dVertex
 10
171.9241798692562
 20
-92.31429356033794
 30
0.0
  0
VERTEX
  5
1AC
330
1A7
100
AcDbEntity
  8
Layer 1
 62
   155
420
  2976177
370
    35
100
AcDbVertex
100
AcDb2dVertex
 10
172.5250045218838
 20
-91.99269389678987
 30
0.0
  0
VERTEX
  5
1AD
330
1A7
100
AcDbEntity
  8
Layer 1
 62
   155
420
  2976177
370
    35
100
AcDbVertex
100
AcDb2dVertex
 10
172.8422978160753
 20
-91.99269389678987
 30
0.0
  0
VERTEX
  5
1AE
330
1A7
100
AcDbEntity
  8
Layer 1
 62
   155
420
  2976177
370
    35
100
AcDbVertex
100
AcDb2dVertex
 10
172.8422978160753
 20
-94.74291362266482
 30
0.0
  0
VERTEX
  5
1AF
330
1A7
100
AcDbEntity
  8
Layer 1
 62
   155
420
  2976177
370
    35
100
AcDbVertex
100
AcDb2dVertex
 10
172.4826298474152
 20
-94.74291362266482
 30
0.0
  0
VERTEX
  5
1B0
330
1A7
100
AcDbEntity
  8
Layer 1
 62
   155
420
  2976177
370
    35
100
AcDbVertex
100
AcDb2dVertex
 10
172.4826298474152
 20
-92.33961501215454
 30
0.0
  0
SEQEND
  5
1B1
330
1A7
100
AcDbEntity
  8
Layer 1
 62
   155
420
  2976177
370
    35
  0
ENDBLK
  5
19B
330
198
100
AcDbEntity
  8
0
100
AcDbBlockEnd
  0
ENDSEC
  0
SECTION
  2
ENTITIES
  0
INSERT
  5
42
330
1F
100
AcDbEntity
  8
Layer 1
100
AcDbBlockReference
  2
block 2
 10
0.0
 20
0.0
 30
0.0
  0
INSERT
  5
47
330
1F
100
AcDbEntity
  8
Layer 1
100
AcDbBlockReference
  2
block 3
 10
0.0
 20
0.0
 30
0.0
  0
SPLINE
  5
77
330
1F
100
AcDbEntity
  8
Layer 1
 62
    22
420
 13900569
370
    35
100
AcDbSpline
210
0.0
220
0.0
230
1.0
 70
    11
 71
     3
 72
    17
 73
    13
 74
     0
 42
0.0000000001
 43
0.0000000001
 12
1.0
 22
0.0
 32
0.0
 13
1.0
 23
0.0
 33
0.0
 40
0.0
 40
0.0
 40
0.0
 40
0.0
 40
1.0
 40
1.0
 40
1.0
 40
2.0
 40
2.0
 40
2.0
 40
3.0
 40
3.0
 40
3.0
 40
4.0
 40
4.0
 40
4.0
 40
4.0
 10
64.98861597973057
 20
-74.85704083829997
 30
0.0
 10
64.98861597973057
 20
-75.68546796279261
 30
0.0
 10
64.31704310459824
 20
-76.35704083792496
 30
0.0
 10
63.48861598010559
 20
-76.35704083792496
 30
0.0
 10
62.66018885561231
 20
-76.35704083792496
 30
0.0
 10
61.98861598048062
 20
-75.68546796279261
 30
0.0
 10
61.98861598048062
 20
-74.85704083829997
 30
0.0
 10
61.98861598048062
 20
-74.02861371380733
 30
0.0
 10
62.66018885561231
 20
-73.35704083867499
 30
0.0
 10
63.48861598010559
 20
-73.35704083867499
 30
0.0
 10
64.31704310459824
 20
-73.35704083867499
 30
0.0
 10
64.98861597973057
 20
-74.02861371380733
 30
0.0
 10
64.98861597973057
 20
-74.85704083829997
 30
0.0
  0
SPLINE
  5
78
330
1F
100
AcDbEntity
  8
Layer 1
 62
    22
420
 13900569
370
    35
100
AcDbSpline
210
0.0
220
0.0
230
1.0
 70
    11
 71
     3
 72
    17
 73
    13
 74
     0
 42
0.0000000001
 43
0.0000000001
 12
1.0
 22
0.0
 32
0.0
 13
1.0
 23
0.0
 33
0.0
 40
0.0
 40
0.0
 40
0.0
 40
0.0
 40
1.0
 40
1.0
 40
1.0
 40
2.0
 40
2.0
 40
2.0
 40
3.0
 40
3.0
 40
3.0
 40
4.0
 40
4.0
 40
4.0
 40
4.0
 10
157.2400048455566
 20
-74.85704083829997
 30
0.0
 10
157.2400048455566
 20
-75.68546796279261
 30
0.0
 10
156.5684319704243
 20
-76.35704083792496
 30
0.0
 10
155.7400048459317
 20
-76.35704083792496
 30
0.0
 10
154.911577721439
 20
-76.35704083792496
 30
0.0
 10
154.2400048463067
 20
-75.68546796279261
 30
0.0
 10
154.2400048463067
 20
-74.85704083829997
 30
0.0
 10
154.2400048463067
 20
-74.02861371380733
 30
0.0
 10
154.911577721439
 20
-73.35704083867499
 30
0.0
 10
155.7400048459317
 20
-73.35704083867499
 30
0.0
 10
156.5684319704243
 20
-73.35704083867499
 30
0.0
 10
157.2400048455566
 20
-74.02861371380733
 30
0.0
 10
157.2400048455566
 20
-74.85704083829997
 30
0.0
  0
SPLINE
  5
79
330
1F
100
AcDbEntity
  8
Layer 1
 62
    22
420
 13900569
370
    35
100
AcDbSpline
210
0.0
220
0.0
230
1.0
 70
    11
 71
     3
 72
    17
 73
    13
 74
     0
 42
0.0000000001
 43
0.0000000001
 12
1.0
 22
0.0
 32
0.0
 13
1.0
 23
0.0
 33
0.0
 40
0.0
 40
0.0
 40
0.0
 40
0.0
 40
1.0
 40
1.0
 40
1.0
 40
2.0
 40
2.0
 40
2.0
 40
3.0
 40
3.0
 40
3.0
 40
4.0
 40
4.0
 40
4.0
 40
4.0
 10
64.98861597973057
 20
-32.75083890438273
 30
0.0
 10
64.98861597973057
 20
-33.57926602887536
 30
0.0
 10
64.31704310459824
 20
-34.2508389040077
 30
0.0
 10
63.48861598010559
 20
-34.2508389040077
 30
0.0
 10
62.66018885561231
 20
-34.2508389040077
 30
0.0
 10
61.98861598048062
 20
-33.57926602887536
 30
0.0
 10
61.98861598048062
 20
-32.75083890438273
 30
0.0
 10
61.98861598048062
 20
-31.92241177989008
 30
0.0
 10
62.66018885561231
 20
-31.25083890475774
 30
0.0
 10
63.48861598010559
 20
-31.25083890475774
 30
0.0
 10
64.31704310459824
 20
-31.25083890475774
 30
0.0
 10
64.98861597973057
 20
-31.92241177989008
 30
0.0
 10
64.98861597973057
 20
-32.75083890438273
 30
0.0
  0
SPLINE
  5
7A
330
1F
100
AcDbEntity
  8
Layer 1
 62
    22
420
 13900569
370
    35
100
AcDbSpline
210
0.0
220
0.0
230
1.0
 70
    11
 71
     3
 72
    17
 73
    13
 74
     0
 42
0.0000000001
 43
0.0000000001
 12
1.0
 22
0.0
 32
0.0
 13
1.0
 23
0.0
 33
0.0
 40
0.0
 40
0.0
 40
0.0
 40
0.0
 40
1.0
 40
1.0
 40
1.0
 40
2.0
 40
2.0
 40
2.0
 40
3.0
 40
3.0
 40
3.0
 40
4.0
 40
4.0
 40
4.0
 40
4.0
 10
157.2400048455566
 20
-32.75083890438273
 30
0.0
 10
157.2400048455566
 20
-33.57926602887536
 30
0.0
 10
156.5684319704243
 20
-34.2508389040077
 30
0.0
 10
155.7400048459317
 20
-34.2508389040077
 30
0.0
 10
154.911577721439
 20
-34.2508389040077
 30
0.0
 10
154.2400048463067
 20
-33.57926602887536
 30
0.0
 10
154.2400048463067
 20
-32.75083890438273
 30
0.0
 10
154.2400048463067
 20
-31.92241177989008
 30
0.0
 10
154.911577721439
 20
-31.25083890475774
 30
0.0
 10
155.7400048459317
 20
-31.25083890475774
 30
0.0
 10
156.5684319704243
 20
-31.25083890475774
 30
0.0
 10
157.2400048455566
 20
-31.92241177989008
 30
0.0
 10
157.2400048455566
 20
-32.75083890438273
 30
0.0
  0
POLYLINE
  5
7B
330
1F
100
AcDbEntity
  8
Layer 1
 62
   178
420
        1
370
    35
100
AcDb2dPolyline
 66
     1
 10
0.0
 20
0.0
 30
0.0
  0
VERTEX
  5
7C
330
7B
100
AcDbEntity
  8
Layer 1
 62
   178
420
        1
370
    35
100
AcDbVertex
100
AcDb2dVertex
 10
152.2122379515816
 20
30.25508765715364
 30
0.0
  0
VERTEX
  5
7D
330
7B
100
AcDbEntity
  8
Layer 1
 62
   178
420
        1
370
    35
100
AcDbVertex
100
AcDb2dVertex
 10
67.31037894367293
 20
30.25508765715364
 30
0.0
  0
VERTEX
  5
7E
330
7B
100
AcDbEntity
  8
Layer 1
 62
   178
420
        1
370
    35
100
AcDbVertex
100
AcDb2dVertex
 10
59.52612109921057
 20
30.25508765715364
 30
0.0
  0
VERTEX
  5
7F
330
7B
100
AcDbEntity
  8
Layer 1
 62
   178
420
        1
370
    35
100
AcDbVertex
100
AcDb2dVertex
 10
59.52612109921057
 20
27.2550769767513
 30
0.0
  0
VERTEX
  5
80
330
7B
100
AcDbEntity
  8
Layer 1
 62
   178
420
        1
370
    35
100
AcDbVertex
100
AcDb2dVertex
 10
59.52612109921057
 20
-62.62113387046281
 30
0.0
  0
VERTEX
  5
81
330
7B
100
AcDbEntity
  8
Layer 1
 62
   178
420
        1
370
    35
100
AcDbVertex
100
AcDb2dVertex
 10
59.52612109921057
 20
-83.74490909304645
 30
0.0
  0
VERTEX
  5
82
330
7B
100
AcDbEntity
  8
Layer 1
 62
   178
420
        1
370
    35
100
AcDbVertex
100
AcDb2dVertex
 10
67.31037894367293
 20
-83.74490909304645
 30
0.0
  0
VERTEX
  5
83
330
7B
100
AcDbEntity
  8
Layer 1
 62
   178
420
        1
370
    35
100
AcDbVertex
100
AcDb2dVertex
 10
152.2122379515816
 20
-83.74490909304645
 30
0.0
  0
VERTEX
  5
84
330
7B
100
AcDbEntity
  8
Layer 1
 62
   178
420
        1
370
    35
100
AcDbVertex
100
AcDb2dVertex
 10
159.5261110712266
 20
-83.74490909304645
 30
0.0
  0
VERTEX
  5
85
330
7B
100
AcDbEntity
  8
Layer 1
 62
   178
420
        1
370
    35
100
AcDbVertex
100
AcDb2dVertex
 10
159.5261110712266
 20
-71.85702576132874
 30
0.0
  0
VERTEX
  5
86
330
7B
100
AcDbEntity
  8
Layer 1
 62
   178
420
        1
370
    35
100
AcDbVertex
100
AcDb2dVertex
 10
154.5261148024028
 20
-71.85702576132874
 30
0.0
  0
VERTEX
  5
87
330
7B
100
AcDbEntity
  8
Layer 1
 62
   178
420
        1
370
    35
100
AcDbVertex
100
AcDb2dVertex
 10
154.5261148024028
 20
-65.35703491822719
 30
0.0
  0
VERTEX
  5
88
330
7B
100
AcDbEntity
  8
Layer 1
 62
   178
420
        1
370
    35
100
AcDbVertex
100
AcDb2dVertex
 10
159.5261110712266
 20
-65.35703491822719
 30
0.0
  0
VERTEX
  5
89
330
7B
100
AcDbEntity
  8
Layer 1
 62
   178
420
        1
370
    35
100
AcDbVertex
100
AcDb2dVertex
 10
159.5261110712266
 20
-62.62113387046281
 30
0.0
  0
VERTEX
  5
8A
330
7B
100
AcDbEntity
  8
Layer 1
 62
   178
420
        1
370
    35
100
AcDbVertex
100
AcDb2dVertex
 10
159.5261110712266
 20
27.2550769767513
 30
0.0
  0
VERTEX
  5
8B
330
7B
100
AcDbEntity
  8
Layer 1
 62
   178
420
        1
370
    35
100
AcDbVertex
100
AcDb2dVertex
 10
159.5261110712266
 20
30.25508765715364
 30
0.0
  0
VERTEX
  5
8C
330
7B
100
AcDbEntity
  8
Layer 1
 62
   178
420
        1
370
    35
100
AcDbVertex
100
AcDb2dVertex
 10
152.2122379515816
 20
30.25508765715364
 30
0.0
  0
SEQEND
  5
8D
330
7B
100
AcDbEntity
  8
Layer 1
 62
   178
420
        1
370
    35
  0
POLYLINE
  5
8E
330
1F
100
AcDbEntity
  8
Layer 1
 62
   178
420
        1
370
    35
100
AcDb2dPolyline
 66
     1
 10
0.0
 20
0.0
 30
0.0
  0
VERTEX
  5
8F
330
8E
100
AcDbEntity
  8
Layer 1
 62
   178
420
        1
370
    35
100
AcDbVertex
100
AcDb2dVertex
 10
152.2122379515816
 20
-62.62113387046281
 30
0.0
  0
VERTEX
  5
90
330
8E
100
AcDbEntity
  8
Layer 1
 62
   178
420
        1
370
    35
100
AcDbVertex
100
AcDb2dVertex
 10
67.31037894367293
 20
-62.62113387046281
 30
0.0
  0
VERTEX
  5
91
330
8E
100
AcDbEntity
  8
Layer 1
 62
   178
420
        1
370
    35
100
AcDbVertex
100
AcDb2dVertex
 10
67.31037894367293
 20
27.2550769767513
 30
0.0
  0
VERTEX
  5
92
330
8E
100
AcDbEntity
  8
Layer 1
 62
   178
420
        1
370
    35
100
AcDbVertex
100
AcDb2dVertex
 10
152.2122379515816
 20
27.2550769767513
 30
0.0
  0
VERTEX
  5
93
330
8E
100
AcDbEntity
  8
Layer 1
 62
   178
420
        1
370
    35
100
AcDbVertex
100
AcDb2dVertex
 10
152.2122379515816
 20
-62.62113387046281
 30
0.0
  0
SEQEND
  5
94
330
8E
100
AcDbEntity
  8
Layer 1
 62
   178
420
        1
370
    35
  0
SPLINE
  5
95
330
1F
100
AcDbEntity
  8
Layer 1
 62
    12
420
 13900057
370
    35
100
AcDbSpline
210
0.0
220
0.0
230
1.0
 70
    11
 71
     3
 72
    17
 73
    13
 74
     0
 42
0.0000000001
 43
0.0000000001
 12
1.0
 22
0.0
 32
0.0
 13
1.0
 23
0.0
 33
0.0
 40
0.0
 40
0.0
 40
0.0
 40
0.0
 40
1.0
 40
1.0
 40
1.0
 40
2.0
 40
2.0
 40
2.0
 40
3.0
 40
3.0
 40
3.0
 40
4.0
 40
4.0
 40
4.0
 40
4.0
 10
-40.26701843698574
 20
-74.46634683497955
 30
0.0
 10
-40.26701843683686
 20
-75.2947739594722
 30
0.0
 10
-40.93859131184856
 20
-75.96634683472453
 30
0.0
 10
-41.7670184363412
 20
-75.96634683487468
 30
0.0
 10
-42.59544556083384
 20
-75.96634683502485
 30
0.0
 10
-43.26701843608682
 20
-75.29477396001123
 30
0.0
 10
-43.26701843623569
 20
-74.46634683551858
 30
0.0
 10
-43.26701843638457
 20
-73.63791971102658
 30
0.0
 10
-42.59544556137287
 20
-72.9663468357736
 30
0.0
 10
-41.76701843688023
 20
-72.96634683562473
 30
0.0
 10
-40.93859131238759
 20
-72.96634683547585
 30
0.0
 10
-40.26701843713461
 20
-73.63791971048691
 30
0.0
 10
-40.26701843698574
 20
-74.46634683497955
 30
0.0
  0
SPLINE
  5
96
330
1F
100
AcDbEntity
  8
Layer 1
 62
    12
420
 13900057
370
    35
100
AcDbSpline
210
0.0
220
0.0
230
1.0
 70
    11
 71
     3
 72
    17
 73
    13
 74
     0
 42
0.0000000001
 43
0.0000000001
 12
1.0
 22
0.0
 32
0.0
 13
1.0
 23
0.0
 33
0.0
 40
0.0
 40
0.0
 40
0.0
 40
0.0
 40
1.0
 40
1.0
 40
1.0
 40
2.0
 40
2.0
 40
2.0
 40
3.0
 40
3.0
 40
3.0
 40
4.0
 40
4.0
 40
4.0
 40
4.0
 10
51.98437042884031
 20
-74.4663468184128
 30
0.0
 10
51.98437042898918
 20
-75.29477394290545
 30
0.0
 10
51.3127975539778
 20
-75.96634681815843
 30
0.0
 10
50.48437042948484
 20
-75.96634681830858
 30
0.0
 10
49.6559433049922
 20
-75.9663468184549
 30
0.0
 10
48.98437042973922
 20
-75.29477394344448
 30
0.0
 10
48.98437042959035
 20
-74.46634681895183
 30
0.0
 10
48.98437042944148
 20
-73.6379196944592
 30
0.0
 10
49.65594330445317
 20
-72.96634681920557
 30
0.0
 10
50.48437042894582
 20
-72.9663468190567
 30
0.0
 10
51.31279755343846
 20
-72.96634681890782
 30
0.0
 10
51.98437042869143
 20
-73.63791969392017
 30
0.0
 10
51.98437042884031
 20
-74.4663468184128
 30
0.0
  0
SPLINE
  5
97
330
1F
100
AcDbEntity
  8
Layer 1
 62
    12
420
 13900057
370
    35
100
AcDbSpline
210
0.0
220
0.0
230
1.0
 70
    11
 71
     3
 72
    17
 73
    13
 74
     0
 42
0.0000000001
 43
0.0000000001
 12
1.0
 22
0.0
 32
0.0
 13
1.0
 23
0.0
 33
0.0
 40
0.0
 40
0.0
 40
0.0
 40
0.0
 40
1.0
 40
1.0
 40
1.0
 40
2.0
 40
2.0
 40
2.0
 40
3.0
 40
3.0
 40
3.0
 40
4.0
 40
4.0
 40
4.0
 40
4.0
 10
-40.26701844454752
 20
-32.3601449010623
 30
0.0
 10
-40.26701844439864
 20
-33.18857202555494
 30
0.0
 10
-40.93859131941034
 20
-33.86014490080728
 30
0.0
 10
-41.76701844390298
 20
-33.86014490095615
 30
0.0
 10
-42.59544556839563
 20
-33.86014490110503
 30
0.0
 10
-43.2670184436486
 20
-33.18857202609333
 30
0.0
 10
-43.26701844379748
 20
-32.36014490160068
 30
0.0
 10
-43.26701844394603
 20
-31.53171777710805
 30
0.0
 10
-42.59544556893433
 20
-30.86014490185507
 30
0.0
 10
-41.76701844444169
 20
-30.86014490170619
 30
0.0
 10
-40.93859131994905
 20
-30.86014490155732
 30
0.0
 10
-40.26701844469607
 20
-31.53171777656966
 30
0.0
 10
-40.26701844454752
 20
-32.3601449010623
 30
0.0
  0
SPLINE
  5
98
330
1F
100
AcDbEntity
  8
Layer 1
 62
    12
420
 13900057
370
    35
100
AcDbSpline
210
0.0
220
0.0
230
1.0
 70
    11
 71
     3
 72
    17
 73
    13
 74
     0
 42
0.0000000001
 43
0.0000000001
 12
1.0
 22
0.0
 32
0.0
 13
1.0
 23
0.0
 33
0.0
 40
0.0
 40
0.0
 40
0.0
 40
0.0
 40
1.0
 40
1.0
 40
1.0
 40
2.0
 40
2.0
 40
2.0
 40
3.0
 40
3.0
 40
3.0
 40
4.0
 40
4.0
 40
4.0
 40
4.0
 10
51.98437042127853
 20
-32.36014488449428
 30
0.0
 10
51.9843704214274
 20
-33.18857200898692
 30
0.0
 10
51.31279754641602
 20
-33.86014488423989
 30
0.0
 10
50.48437042192306
 20
-33.86014488438877
 30
0.0
 10
49.65594329743042
 20
-33.86014488453764
 30
0.0
 10
48.98437042217744
 20
-33.18857200952594
 30
0.0
 10
48.98437042202857
 20
-32.3601448850333
 30
0.0
 10
48.98437042188002
 20
-31.53171776054066
 30
0.0
 10
49.65594329689171
 20
-30.86014488528768
 30
0.0
 10
50.48437042138436
 20
-30.86014488513881
 30
0.0
 10
51.31279754587668
 20
-30.86014488498993
 30
0.0
 10
51.98437042112997
 20
-31.53171776000163
 30
0.0
 10
51.98437042127853
 20
-32.36014488449428
 30
0.0
  0
POLYLINE
  5
99
330
1F
100
AcDbEntity
  8
Layer 1
 62
     7
420
 16777215
370
    35
100
AcDb2dPolyline
 66
     1
 10
0.0
 20
0.0
 30
0.0
  0
VERTEX
  5
9A
330
99
100
AcDbEntity
  8
Layer 1
 62
     7
420
 16777215
370
    35
100
AcDbVertex
100
AcDb2dVertex
 10
22.13094782879772
 20
27.64576971364819
 30
0.0
  0
VERTEX
  5
9B
330
99
100
AcDbEntity
  8
Layer 1
 62
     7
420
 16777215
370
    35
100
AcDbVertex
100
AcDb2dVertex
 10
-37.94525166654564
 20
27.64576971364819
 30
0.0
  0
VERTEX
  5
9C
330
99
100
AcDbEntity
  8
Layer 1
 62
     7
420
 16777215
370
    35
100
AcDbVertex
100
AcDb2dVertex
 10
-37.94525166654564
 20
-79.3542021156128
 30
0.0
  0
VERTEX
  5
9D
330
99
100
AcDbEntity
  8
Layer 1
 62
     7
420
 16777215
370
    35
100
AcDbVertex
100
AcDb2dVertex
 10
46.95660734136333
 20
-79.3542021156128
 30
0.0
  0
VERTEX
  5
9E
330
99
100
AcDbEntity
  8
Layer 1
 62
     7
420
 16777215
370
    35
100
AcDbVertex
100
AcDb2dVertex
 10
46.95660734136333
 20
27.64576971364819
 30
0.0
  0
VERTEX
  5
9F
330
99
100
AcDbEntity
  8
Layer 1
 62
     7
420
 16777215
370
    35
100
AcDbVertex
100
AcDb2dVertex
 10
37.29046608808293
 20
27.64576971364819
 30
0.0
  0
VERTEX
  5
A0
330
99
100
AcDbEntity
  8
Layer 1
 62
     7
420
 16777215
370
    35
100
AcDbVertex
100
AcDb2dVertex
 10
22.13094782879772
 20
27.64576971364819
 30
0.0
  0
SEQEND
  5
A1
330
99
100
AcDbEntity
  8
Layer 1
 62
     7
420
 16777215
370
    35
  0
POLYLINE
  5
A2
330
1F
100
AcDbEntity
  8
Layer 1
 62
     7
420
 16777215
370
    35
100
AcDb2dPolyline
 66
     1
 10
0.0
 20
0.0
 30
0.0
  0
VERTEX
  5
A3
330
A2
100
AcDbEntity
  8
Layer 1
 62
     7
420
 16777215
370
    35
100
AcDbVertex
100
AcDb2dVertex
 10
37.29046608808293
 20
30.64578039405053
 30
0.0
  0
VERTEX
  5
A4
330
A2
100
AcDbEntity
  8
Layer 1
 62
     7
420
 16777215
370
    35
100
AcDbVertex
100
AcDb2dVertex
 10
46.95660734136333
 20
30.64578039405053
 30
0.0
  0
VERTEX
  5
A5
330
A2
100
AcDbEntity
  8
Layer 1
 62
     7
420
 16777215
370
    35
100
AcDbVertex
100
AcDb2dVertex
 10
54.27048046100807
 20
30.64578039405053
 30
0.0
  0
VERTEX
  5
A6
330
A2
100
AcDbEntity
  8
Layer 1
 62
     7
420
 16777215
370
    35
100
AcDbVertex
100
AcDb2dVertex
 10
54.27048046100807
 20
27.64576971364819
 30
0.0
  0
VERTEX
  5
A7
330
A2
100
AcDbEntity
  8
Layer 1
 62
     7
420
 16777215
370
    35
100
AcDbVertex
100
AcDb2dVertex
 10
54.27048046100807
 20
-64.96634218133062
 30
0.0
  0
VERTEX
  5
A8
330
A2
100
AcDbEntity
  8
Layer 1
 62
     7
420
 16777215
370
    35
100
AcDbVertex
100
AcDb2dVertex
 10
49.27048419218428
 20
-64.96634218133062
 30
0.0
  0
VERTEX
  5
A9
330
A2
100
AcDbEntity
  8
Layer 1
 62
     7
420
 16777215
370
    35
100
AcDbVertex
100
AcDb2dVertex
 10
49.27048419218428
 20
-71.46633302443153
 30
0.0
  0
VERTEX
  5
AA
330
A2
100
AcDbEntity
  8
Layer 1
 62
     7
420
 16777215
370
    35
100
AcDbVertex
100
AcDb2dVertex
 10
54.27048046100807
 20
-71.46633302443153
 30
0.0
  0
VERTEX
  5
AB
330
A2
100
AcDbEntity
  8
Layer 1
 62
     7
420
 16777215
370
    35
100
AcDbVertex
100
AcDb2dVertex
 10
54.27048046100807
 20
-79.3542021156128
 30
0.0
  0
VERTEX
  5
AC
330
A2
100
AcDbEntity
  8
Layer 1
 62
     7
420
 16777215
370
    35
100
AcDbVertex
100
AcDb2dVertex
 10
54.27048046100807
 20
-83.35421635614924
 30
0.0
  0
VERTEX
  5
AD
330
A2
100
AcDbEntity
  8
Layer 1
 62
     7
420
 16777215
370
    35
100
AcDbVertex
100
AcDb2dVertex
 10
46.95660734136333
 20
-83.35421635614924
 30
0.0
  0
VERTEX
  5
AE
330
A2
100
AcDbEntity
  8
Layer 1
 62
     7
420
 16777215
370
    35
100
AcDbVertex
100
AcDb2dVertex
 10
-37.94525166654564
 20
-83.35421635614924
 30
0.0
  0
VERTEX
  5
AF
330
A2
100
AcDbEntity
  8
Layer 1
 62
     7
420
 16777215
370
    35
100
AcDbVertex
100
AcDb2dVertex
 10
-45.729509511008
 20
-83.35421635614924
 30
0.0
  0
VERTEX
  5
B0
330
A2
100
AcDbEntity
  8
Layer 1
 62
     7
420
 16777215
370
    35
100
AcDbVertex
100
AcDb2dVertex
 10
-45.729509511008
 20
-79.3542021156128
 30
0.0
  0
VERTEX
  5
B1
330
A2
100
AcDbEntity
  8
Layer 1
 62
     7
420
 16777215
370
    35
100
AcDbVertex
100
AcDb2dVertex
 10
-45.729509511008
 20
27.64576971364819
 30
0.0
  0
VERTEX
  5
B2
330
A2
100
AcDbEntity
  8
Layer 1
 62
     7
420
 16777215
370
    35
100
AcDbVertex
100
AcDb2dVertex
 10
-45.729509511008
 20
30.64578039405053
 30
0.0
  0
VERTEX
  5
B3
330
A2
100
AcDbEntity
  8
Layer 1
 62
     7
420
 16777215
370
    35
100
AcDbVertex
100
AcDb2dVertex
 10
-37.94525166654564
 20
30.64578039405053
 30
0.0
  0
VERTEX
  5
B4
330
A2
100
AcDbEntity
  8
Layer 1
 62
     7
420
 16777215
370
    35
100
AcDbVertex
100
AcDb2dVertex
 10
22.13094782879772
 20
30.64578039405053
 30
0.0
  0
VERTEX
  5
B5
330
A2
100
AcDbEntity
  8
Layer 1
 62
     7
420
 16777215
370
    35
100
AcDbVertex
100
AcDb2dVertex
 10
37.29046608808293
 20
30.64578039405053
 30
0.0
  0
SEQEND
  5
B6
330
A2
100
AcDbEntity
  8
Layer 1
 62
     7
420
 16777215
370
    35
  0
INSERT
  5
B8
330
1F
100
AcDbEntity
  8
Layer 1
100
AcDbBlockReference
  2
block 13
 10
0.0
 20
0.0
 30
0.0
  0
SPLINE
  5
C6
330
1F
100
AcDbEntity
  8
Layer 1
 62
    12
420
 13900057
370
    35
100
AcDbSpline
210
0.0
220
0.0
230
1.0
 70
    11
 71
     3
 72
    17
 73
    13
 74
     0
 42
0.0000000001
 43
0.0000000001
 12
1.0
 22
0.0
 32
0.0
 13
1.0
 23
0.0
 33
0.0
 40
0.0
 40
0.0
 40
0.0
 40
0.0
 40
1.0
 40
1.0
 40
1.0
 40
2.0
 40
2.0
 40
2.0
 40
3.0
 40
3.0
 40
3.0
 40
4.0
 40
4.0
 40
4.0
 40
4.0
 10
65.22380453564149
 20
-194.224232086959
 30
0.0
 10
65.22380453579036
 20
-195.0526592114517
 30
0.0
 10
64.55223166077866
 20
-195.724232086704
 30
0.0
 10
63.72380453628602
 20
-195.7242320868542
 30
0.0
 10
62.89537741179338
 20
-195.7242320870043
 30
0.0
 10
62.2238045365404
 20
-195.0526592119907
 30
0.0
 10
62.22380453639153
 20
-194.2242320874981
 30
0.0
 10
62.22380453624265
 20
-193.395804963006
 30
0.0
 10
62.89537741125435
 20
-192.7242320877531
 30
0.0
 10
63.72380453574699
 20
-192.7242320876042
 30
0.0
 10
64.55223166023963
 20
-192.7242320874553
 30
0.0
 10
65.2238045354926
 20
-193.3958049624664
 30
0.0
 10
65.22380453564149
 20
-194.224232086959
 30
0.0
  0
SPLINE
  5
C7
330
1F
100
AcDbEntity
  8
Layer 1
 62
    12
420
 13900057
370
    35
100
AcDbSpline
210
0.0
220
0.0
230
1.0
 70
    11
 71
     3
 72
    17
 73
    13
 74
     0
 42
0.0000000001
 43
0.0000000001
 12
1.0
 22
0.0
 32
0.0
 13
1.0
 23
0.0
 33
0.0
 40
0.0
 40
0.0
 40
0.0
 40
0.0
 40
1.0
 40
1.0
 40
1.0
 40
2.0
 40
2.0
 40
2.0
 40
3.0
 40
3.0
 40
3.0
 40
4.0
 40
4.0
 40
4.0
 40
4.0
 10
157.4751934014675
 20
-194.2242320703923
 30
0.0
 10
157.4751934016164
 20
-195.0526591948849
 30
0.0
 10
156.8036205266047
 20
-195.7242320701379
 30
0.0
 10
155.9751934021121
 20
-195.7242320702881
 30
0.0
 10
155.1467662776194
 20
-195.7242320704344
 30
0.0
 10
154.4751934023664
 20
-195.052659195424
 30
0.0
 10
154.4751934022176
 20
-194.2242320709313
 30
0.0
 10
154.4751934020687
 20
-193.3958049464387
 30
0.0
 10
155.1467662770804
 20
-192.724232071185
 30
0.0
 10
155.975193401573
 20
-192.7242320710362
 30
0.0
 10
156.8036205260657
 20
-192.7242320708873
 30
0.0
 10
157.4751934013186
 20
-193.3958049458996
 30
0.0
 10
157.4751934014675
 20
-194.2242320703923
 30
0.0
  0
SPLINE
  5
C8
330
1F
100
AcDbEntity
  8
Layer 1
 62
    12
420
 13900057
370
    35
100
AcDbSpline
210
0.0
220
0.0
230
1.0
 70
    11
 71
     3
 72
    17
 73
    13
 74
     0
 42
0.0000000001
 43
0.0000000001
 12
1.0
 22
0.0
 32
0.0
 13
1.0
 23
0.0
 33
0.0
 40
0.0
 40
0.0
 40
0.0
 40
0.0
 40
1.0
 40
1.0
 40
1.0
 40
2.0
 40
2.0
 40
2.0
 40
3.0
 40
3.0
 40
3.0
 40
4.0
 40
4.0
 40
4.0
 40
4.0
 10
65.2238045280797
 20
-152.1180301530418
 30
0.0
 10
65.22380452822858
 20
-152.9464572775344
 30
0.0
 10
64.55223165321688
 20
-153.6180301527868
 30
0.0
 10
63.72380452872424
 20
-153.6180301529356
 30
0.0
 10
62.8953774042316
 20
-153.6180301530845
 30
0.0
 10
62.22380452897862
 20
-152.9464572780728
 30
0.0
 10
62.22380452882975
 20
-152.1180301535802
 30
0.0
 10
62.22380452868119
 20
-151.2896030290875
 30
0.0
 10
62.89537740369289
 20
-150.6180301538346
 30
0.0
 10
63.72380452818553
 20
-150.6180301536857
 30
0.0
 10
64.55223165267817
 20
-150.6180301535368
 30
0.0
 10
65.22380452793115
 20
-151.2896030285491
 30
0.0
 10
65.2238045280797
 20
-152.1180301530418
 30
0.0
  0
SPLINE
  5
C9
330
1F
100
AcDbEntity
  8
Layer 1
 62
    12
420
 13900057
370
    35
100
AcDbSpline
210
0.0
220
0.0
230
1.0
 70
    11
 71
     3
 72
    17
 73
    13
 74
     0
 42
0.0000000001
 43
0.0000000001
 12
1.0
 22
0.0
 32
0.0
 13
1.0
 23
0.0
 33
0.0
 40
0.0
 40
0.0
 40
0.0
 40
0.0
 40
1.0
 40
1.0
 40
1.0
 40
2.0
 40
2.0
 40
2.0
 40
3.0
 40
3.0
 40
3.0
 40
4.0
 40
4.0
 40
4.0
 40
4.0
 10
157.4751933939058
 20
-152.1180301364737
 30
0.0
 10
157.4751933940546
 20
-152.9464572609664
 30
0.0
 10
156.8036205190429
 20
-153.6180301362194
 30
0.0
 10
155.9751933945503
 20
-153.6180301363682
 30
0.0
 10
155.1467662700576
 20
-153.6180301365171
 30
0.0
 10
154.4751933948047
 20
-152.9464572615054
 30
0.0
 10
154.4751933946558
 20
-152.1180301370128
 30
0.0
 10
154.4751933945069
 20
-151.2896030125201
 30
0.0
 10
155.1467662695186
 20
-150.6180301372672
 30
0.0
 10
155.9751933940113
 20
-150.6180301371183
 30
0.0
 10
156.8036205185039
 20
-150.6180301369694
 30
0.0
 10
157.4751933937569
 20
-151.2896030119811
 30
0.0
 10
157.4751933939058
 20
-152.1180301364737
 30
0.0
  0
POLYLINE
  5
CA
330
1F
100
AcDbEntity
  8
Layer 1
 62
     7
420
 16777215
370
    35
100
AcDb2dPolyline
 66
     1
 10
0.0
 20
0.0
 30
0.0
  0
VERTEX
  5
CB
330
CA
100
AcDbEntity
  8
Layer 1
 62
     7
420
 16777215
370
    35
100
AcDbVertex
100
AcDb2dVertex
 10
127.6217708014249
 20
-92.11211553833128
 30
0.0
  0
VERTEX
  5
CC
330
CA
100
AcDbEntity
  8
Layer 1
 62
     7
420
 16777215
370
    35
100
AcDbVertex
100
AcDb2dVertex
 10
67.54557130608158
 20
-92.11211553833128
 30
0.0
  0
VERTEX
  5
CD
330
CA
100
AcDbEntity
  8
Layer 1
 62
     7
420
 16777215
370
    35
100
AcDbVertex
100
AcDb2dVertex
 10
67.54557130608158
 20
-199.1120873675923
 30
0.0
  0
VERTEX
  5
CE
330
CA
100
AcDbEntity
  8
Layer 1
 62
     7
420
 16777215
370
    35
100
AcDbVertex
100
AcDb2dVertex
 10
152.4474303139909
 20
-199.1120873675923
 30
0.0
  0
VERTEX
  5
CF
330
CA
100
AcDbEntity
  8
Layer 1
 62
     7
420
 16777215
370
    35
100
AcDbVertex
100
AcDb2dVertex
 10
152.4474303139909
 20
-182.1120914408527
 30
0.0
  0
VERTEX
  5
D0
330
CA
100
AcDbEntity
  8
Layer 1
 62
     7
420
 16777215
370
    35
100
AcDbVertex
100
AcDb2dVertex
 10
157.1224033556275
 20
-182.1120914408527
 30
0.0
  0
VERTEX
  5
D1
330
CA
100
AcDbEntity
  8
Layer 1
 62
     7
420
 16777215
370
    35
100
AcDbVertex
100
AcDb2dVertex
 10
157.1224033556275
 20
-159.1120956851558
 30
0.0
  0
VERTEX
  5
D2
330
CA
100
AcDbEntity
  8
Layer 1
 62
     7
420
 16777215
370
    35
100
AcDbVertex
100
AcDb2dVertex
 10
152.4474303139909
 20
-159.1120956851558
 30
0.0
  0
VERTEX
  5
D3
330
CA
100
AcDbEntity
  8
Layer 1
 62
     7
420
 16777215
370
    35
100
AcDbVertex
100
AcDb2dVertex
 10
152.4474303139909
 20
-92.11211553833128
 30
0.0
  0
VERTEX
  5
D4
330
CA
100
AcDbEntity
  8
Layer 1
 62
     7
420
 16777215
370
    35
100
AcDbVertex
100
AcDb2dVertex
 10
142.7812890607102
 20
-92.11211553833128
 30
0.0
  0
VERTEX
  5
D5
330
CA
100
AcDbEntity
  8
Layer 1
 62
     7
420
 16777215
370
    35
100
AcDbVertex
100
AcDb2dVertex
 10
127.6217708014249
 20
-92.11211553833128
 30
0.0
  0
SEQEND
  5
D6
330
CA
100
AcDbEntity
  8
Layer 1
 62
     7
420
 16777215
370
    35
  0
POLYLINE
  5
D7
330
1F
100
AcDbEntity
  8
Layer 1
 62
     7
420
 16777215
370
    35
100
AcDb2dPolyline
 66
     1
 10
0.0
 20
0.0
 30
0.0
  0
VERTEX
  5
D8
330
D7
100
AcDbEntity
  8
Layer 1
 62
     7
420
 16777215
370
    35
100
AcDbVertex
100
AcDb2dVertex
 10
142.7812890607102
 20
-89.11210485792894
 30
0.0
  0
VERTEX
  5
D9
330
D7
100
AcDbEntity
  8
Layer 1
 62
     7
420
 16777215
370
    35
100
AcDbVertex
100
AcDb2dVertex
 10
152.4474303139909
 20
-89.11210485792894
 30
0.0
  0
VERTEX
  5
DA
330
D7
100
AcDbEntity
  8
Layer 1
 62
     7
420
 16777215
370
    35
100
AcDbVertex
100
AcDb2dVertex
 10
159.7613034336353
 20
-89.11210485792894
 30
0.0
  0
VERTEX
  5
DB
330
D7
100
AcDbEntity
  8
Layer 1
 62
     7
420
 16777215
370
    35
100
AcDbVertex
100
AcDb2dVertex
 10
159.7613034336353
 20
-92.11211553833128
 30
0.0
  0
VERTEX
  5
DC
330
D7
100
AcDbEntity
  8
Layer 1
 62
     7
420
 16777215
370
    35
100
AcDbVertex
100
AcDb2dVertex
 10
159.7613034336353
 20
-184.7242274333101
 30
0.0
  0
VERTEX
  5
DD
330
D7
100
AcDbEntity
  8
Layer 1
 62
     7
420
 16777215
370
    35
100
AcDbVertex
100
AcDb2dVertex
 10
154.7613071648115
 20
-184.7242274333101
 30
0.0
  0
VERTEX
  5
DE
330
D7
100
AcDbEntity
  8
Layer 1
 62
     7
420
 16777215
370
    35
100
AcDbVertex
100
AcDb2dVertex
 10
154.7613071648115
 20
-191.224218276411
 30
0.0
  0
VERTEX
  5
DF
330
D7
100
AcDbEntity
  8
Layer 1
 62
     7
420
 16777215
370
    35
100
AcDbVertex
100
AcDb2dVertex
 10
159.7613034336353
 20
-191.224218276411
 30
0.0
  0
VERTEX
  5
E0
330
D7
100
AcDbEntity
  8
Layer 1
 62
     7
420
 16777215
370
    35
100
AcDbVertex
100
AcDb2dVertex
 10
159.7613034336353
 20
-199.1120873675923
 30
0.0
  0
VERTEX
  5
E1
330
D7
100
AcDbEntity
  8
Layer 1
 62
     7
420
 16777215
370
    35
100
AcDbVertex
100
AcDb2dVertex
 10
159.7613034336353
 20
-203.1121016081287
 30
0.0
  0
VERTEX
  5
E2
330
D7
100
AcDbEntity
  8
Layer 1
 62
     7
420
 16777215
370
    35
100
AcDbVertex
100
AcDb2dVertex
 10
152.4474303139909
 20
-203.1121016081287
 30
0.0
  0
VERTEX
  5
E3
330
D7
100
AcDbEntity
  8
Layer 1
 62
     7
420
 16777215
370
    35
100
AcDbVertex
100
AcDb2dVertex
 10
67.54557130608158
 20
-203.1121016081287
 30
0.0
  0
VERTEX
  5
E4
330
D7
100
AcDbEntity
  8
Layer 1
 62
     7
420
 16777215
370
    35
100
AcDbVertex
100
AcDb2dVertex
 10
59.76131346161922
 20
-203.1121016081287
 30
0.0
  0
VERTEX
  5
E5
330
D7
100
AcDbEntity
  8
Layer 1
 62
     7
420
 16777215
370
    35
100
AcDbVertex
100
AcDb2dVertex
 10
59.76131346161922
 20
-199.1120873675923
 30
0.0
  0
VERTEX
  5
E6
330
D7
100
AcDbEntity
  8
Layer 1
 62
     7
420
 16777215
370
    35
100
AcDbVertex
100
AcDb2dVertex
 10
59.76131346161922
 20
-92.11211553833128
 30
0.0
  0
VERTEX
  5
E7
330
D7
100
AcDbEntity
  8
Layer 1
 62
     7
420
 16777215
370
    35
100
AcDbVertex
100
AcDb2dVertex
 10
59.76131346161922
 20
-89.11210485792894
 30
0.0
  0
VERTEX
  5
E8
330
D7
100
AcDbEntity
  8
Layer 1
 62
     7
420
 16777215
370
    35
100
AcDbVertex
100
AcDb2dVertex
 10
67.54557130608158
 20
-89.11210485792894
 30
0.0
  0
VERTEX
  5
E9
330
D7
100
AcDbEntity
  8
Layer 1
 62
     7
420
 16777215
370
    35
100
AcDbVertex
100
AcDb2dVertex
 10
127.6217708014249
 20
-89.11210485792894
 30
0.0
  0
VERTEX
  5
EA
330
D7
100
AcDbEntity
  8
Layer 1
 62
     7
420
 16777215
370
    35
100
AcDbVertex
100
AcDb2dVertex
 10
142.7812890607102
 20
-89.11210485792894
 30
0.0
  0
SEQEND
  5
EB
330
D7
100
AcDbEntity
  8
Layer 1
 62
     7
420
 16777215
370
    35
  0
INSERT
  5
ED
330
1F
100
AcDbEntity
  8
Layer 1
100
AcDbBlockReference
  2
block 14
 10
0.0
 20
0.0
 30
0.0
  0
SPLINE
  5
11D
330
1F
100
AcDbEntity
  8
Layer 1
 62
    12
420
 13900057
370
    35
100
AcDbSpline
210
0.0
220
0.0
230
1.0
 70
    11
 71
     3
 72
    17
 73
    13
 74
     0
 42
0.0000000001
 43
0.0000000001
 12
1.0
 22
0.0
 32
0.0
 13
1.0
 23
0.0
 33
0.0
 40
0.0
 40
0.0
 40
0.0
 40
0.0
 40
1.0
 40
1.0
 40
1.0
 40
2.0
 40
2.0
 40
2.0
 40
3.0
 40
3.0
 40
3.0
 40
4.0
 40
4.0
 40
4.0
 40
4.0
 10
-40.26701463048767
 20
-194.2242333533835
 30
0.0
 10
-40.26701463048767
 20
-195.0526604778762
 30
0.0
 10
-40.93858750562001
 20
-195.7242333530085
 30
0.0
 10
-41.76701463011266
 20
-195.7242333530085
 30
0.0
 10
-42.59544175460498
 20
-195.7242333530085
 30
0.0
 10
-43.26701462973764
 20
-195.0526604778762
 30
0.0
 10
-43.26701462973764
 20
-194.2242333533835
 30
0.0
 10
-43.26701462973764
 20
-193.3958062288909
 30
0.0
 10
-42.59544175460498
 20
-192.7242333537585
 30
0.0
 10
-41.76701463011266
 20
-192.7242333537585
 30
0.0
 10
-40.93858750562001
 20
-192.7242333537585
 30
0.0
 10
-40.26701463048767
 20
-193.3958062288909
 30
0.0
 10
-40.26701463048767
 20
-194.2242333533835
 30
0.0
  0
SPLINE
  5
11E
330
1F
100
AcDbEntity
  8
Layer 1
 62
    12
420
 13900057
370
    35
100
AcDbSpline
210
0.0
220
0.0
230
1.0
 70
    11
 71
     3
 72
    17
 73
    13
 74
     0
 42
0.0000000001
 43
0.0000000001
 12
1.0
 22
0.0
 32
0.0
 13
1.0
 23
0.0
 33
0.0
 40
0.0
 40
0.0
 40
0.0
 40
0.0
 40
1.0
 40
1.0
 40
1.0
 40
2.0
 40
2.0
 40
2.0
 40
3.0
 40
3.0
 40
3.0
 40
4.0
 40
4.0
 40
4.0
 40
4.0
 10
51.98437423533773
 20
-194.2242333533835
 30
0.0
 10
51.98437423533773
 20
-195.0526604778762
 30
0.0
 10
51.31280136020539
 20
-195.7242333530085
 30
0.0
 10
50.48437423571275
 20
-195.7242333530085
 30
0.0
 10
49.65594711122011
 20
-195.7242333530085
 30
0.0
 10
48.98437423608777
 20
-195.0526604778762
 30
0.0
 10
48.98437423608777
 20
-194.2242333533835
 30
0.0
 10
48.98437423608777
 20
-193.3958062288909
 30
0.0
 10
49.65594711122011
 20
-192.7242333537585
 30
0.0
 10
50.48437423571275
 20
-192.7242333537585
 30
0.0
 10
51.31280136020539
 20
-192.7242333537585
 30
0.0
 10
51.98437423533773
 20
-193.3958062288909
 30
0.0
 10
51.98437423533773
 20
-194.2242333533835
 30
0.0
  0
SPLINE
  5
11F
330
1F
100
AcDbEntity
  8
Layer 1
 62
    12
420
 13900057
370
    35
100
AcDbSpline
210
0.0
220
0.0
230
1.0
 70
    11
 71
     3
 72
    17
 73
    13
 74
     0
 42
0.0000000001
 43
0.0000000001
 12
1.0
 22
0.0
 32
0.0
 13
1.0
 23
0.0
 33
0.0
 40
0.0
 40
0.0
 40
0.0
 40
0.0
 40
1.0
 40
1.0
 40
1.0
 40
2.0
 40
2.0
 40
2.0
 40
3.0
 40
3.0
 40
3.0
 40
4.0
 40
4.0
 40
4.0
 40
4.0
 10
-40.26701463048767
 20
-152.118031419465
 30
0.0
 10
-40.26701463048767
 20
-152.9464585439576
 30
0.0
 10
-40.93858750562001
 20
-153.61803141909
 30
0.0
 10
-41.76701463011266
 20
-153.61803141909
 30
0.0
 10
-42.59544175460498
 20
-153.61803141909
 30
0.0
 10
-43.26701462973764
 20
-152.9464585439576
 30
0.0
 10
-43.26701462973764
 20
-152.118031419465
 30
0.0
 10
-43.26701462973764
 20
-151.2896042949723
 30
0.0
 10
-42.59544175460498
 20
-150.61803141984
 30
0.0
 10
-41.76701463011266
 20
-150.61803141984
 30
0.0
 10
-40.93858750562001
 20
-150.61803141984
 30
0.0
 10
-40.26701463048767
 20
-151.2896042949723
 30
0.0
 10
-40.26701463048767
 20
-152.118031419465
 30
0.0
  0
SPLINE
  5
120
330
1F
100
AcDbEntity
  8
Layer 1
 62
    12
420
 13900057
370
    35
100
AcDbSpline
210
0.0
220
0.0
230
1.0
 70
    11
 71
     3
 72
    17
 73
    13
 74
     0
 42
0.0000000001
 43
0.0000000001
 12
1.0
 22
0.0
 32
0.0
 13
1.0
 23
0.0
 33
0.0
 40
0.0
 40
0.0
 40
0.0
 40
0.0
 40
1.0
 40
1.0
 40
1.0
 40
2.0
 40
2.0
 40
2.0
 40
3.0
 40
3.0
 40
3.0
 40
4.0
 40
4.0
 40
4.0
 40
4.0
 10
51.98437423533773
 20
-152.118031419465
 30
0.0
 10
51.98437423533773
 20
-152.9464585439576
 30
0.0
 10
51.31280136020539
 20
-153.61803141909
 30
0.0
 10
50.48437423571275
 20
-153.61803141909
 30
0.0
 10
49.65594711122011
 20
-153.61803141909
 30
0.0
 10
48.98437423608777
 20
-152.9464585439576
 30
0.0
 10
48.98437423608777
 20
-152.118031419465
 30
0.0
 10
48.98437423608777
 20
-151.2896042949723
 30
0.0
 10
49.65594711122011
 20
-150.61803141984
 30
0.0
 10
50.48437423571275
 20
-150.61803141984
 30
0.0
 10
51.31280136020539
 20
-150.61803141984
 30
0.0
 10
51.98437423533773
 20
-151.2896042949723
 30
0.0
 10
51.98437423533773
 20
-152.118031419465
 30
0.0
  0
POLYLINE
  5
121
330
1F
100
AcDbEntity
  8
Layer 1
 62
     7
420
 16777215
370
    35
100
AcDb2dPolyline
 66
     1
 10
0.0
 20
0.0
 30
0.0
  0
VERTEX
  5
122
330
121
100
AcDbEntity
  8
Layer 1
 62
     7
420
 16777215
370
    35
100
AcDbVertex
100
AcDb2dVertex
 10
46.95660734136269
 20
-89.11210485792894
 30
0.0
  0
VERTEX
  5
123
330
121
100
AcDbEntity
  8
Layer 1
 62
     7
420
 16777215
370
    35
100
AcDbVertex
100
AcDb2dVertex
 10
-37.94525166654532
 20
-89.11210485792894
 30
0.0
  0
VERTEX
  5
124
330
121
100
AcDbEntity
  8
Layer 1
 62
     7
420
 16777215
370
    35
100
AcDbVertex
100
AcDb2dVertex
 10
-45.72950951100768
 20
-89.11210485792894
 30
0.0
  0
VERTEX
  5
125
330
121
100
AcDbEntity
  8
Layer 1
 62
     7
420
 16777215
370
    35
100
AcDbVertex
100
AcDb2dVertex
 10
-45.72950951100768
 20
-92.11211553833128
 30
0.0
  0
VERTEX
  5
126
330
121
100
AcDbEntity
  8
Layer 1
 62
     7
420
 16777215
370
    35
100
AcDbVertex
100
AcDb2dVertex
 10
-45.72950951100768
 20
-181.9883263855451
 30
0.0
  0
VERTEX
  5
127
330
121
100
AcDbEntity
  8
Layer 1
 62
     7
420
 16777215
370
    35
100
AcDbVertex
100
AcDb2dVertex
 10
-45.72950951100768
 20
-203.1121016081287
 30
0.0
  0
VERTEX
  5
128
330
121
100
AcDbEntity
  8
Layer 1
 62
     7
420
 16777215
370
    35
100
AcDbVertex
100
AcDb2dVertex
 10
-37.94525166654532
 20
-203.1121016081287
 30
0.0
  0
VERTEX
  5
129
330
121
100
AcDbEntity
  8
Layer 1
 62
     7
420
 16777215
370
    35
100
AcDbVertex
100
AcDb2dVertex
 10
46.95660734136269
 20
-203.1121016081287
 30
0.0
  0
VERTEX
  5
12A
330
121
100
AcDbEntity
  8
Layer 1
 62
     7
420
 16777215
370
    35
100
AcDbVertex
100
AcDb2dVertex
 10
54.27048046100774
 20
-203.1121016081287
 30
0.0
  0
VERTEX
  5
12B
330
121
100
AcDbEntity
  8
Layer 1
 62
     7
420
 16777215
370
    35
100
AcDbVertex
100
AcDb2dVertex
 10
54.27048046100774
 20
-191.224218276411
 30
0.0
  0
VERTEX
  5
12C
330
121
100
AcDbEntity
  8
Layer 1
 62
     7
420
 16777215
370
    35
100
AcDbVertex
100
AcDb2dVertex
 10
49.27048419218396
 20
-191.224218276411
 30
0.0
  0
VERTEX
  5
12D
330
121
100
AcDbEntity
  8
Layer 1
 62
     7
420
 16777215
370
    35
100
AcDbVertex
100
AcDb2dVertex
 10
49.27048419218396
 20
-184.7242274333095
 30
0.0
  0
VERTEX
  5
12E
330
121
100
AcDbEntity
  8
Layer 1
 62
     7
420
 16777215
370
    35
100
AcDbVertex
100
AcDb2dVertex
 10
54.27048046100774
 20
-184.7242274333095
 30
0.0
  0
VERTEX
  5
12F
330
121
100
AcDbEntity
  8
Layer 1
 62
     7
420
 16777215
370
    35
100
AcDbVertex
100
AcDb2dVertex
 10
54.27048046100774
 20
-181.9883263855451
 30
0.0
  0
VERTEX
  5
130
330
121
100
AcDbEntity
  8
Layer 1
 62
     7
420
 16777215
370
    35
100
AcDbVertex
100
AcDb2dVertex
 10
54.27048046100774
 20
-92.11211553833128
 30
0.0
  0
VERTEX
  5
131
330
121
100
AcDbEntity
  8
Layer 1
 62
     7
420
 16777215
370
    35
100
AcDbVertex
100
AcDb2dVertex
 10
54.27048046100774
 20
-89.11210485792894
 30
0.0
  0
VERTEX
  5
132
330
121
100
AcDbEntity
  8
Layer 1
 62
     7
420
 16777215
370
    35
100
AcDbVertex
100
AcDb2dVertex
 10
46.95660734136269
 20
-89.11210485792894
 30
0.0
  0
SEQEND
  5
133
330
121
100
AcDbEntity
  8
Layer 1
 62
     7
420
 16777215
370
    35
  0
INSERT
  5
135
330
1F
100
AcDbEntity
  8
Layer 1
100
AcDbBlockReference
  2
block 24
 10
0.0
 20
0.0
 30
0.0
  0
INSERT
  5
13C
330
1F
100
AcDbEntity
  8
Layer 1
100
AcDbBlockReference
  2
block 25
 10
0.0
 20
0.0
 30
0.0
  0
SPLINE
  5
141
330
1F
100
AcDbEntity
  8
Layer 1
 62
    12
420
 13900057
370
    35
100
AcDbSpline
210
0.0
220
0.0
230
1.0
 70
    11
 71
     3
 72
    17
 73
    13
 74
     0
 42
0.0000000001
 43
0.0000000001
 12
1.0
 22
0.0
 32
0.0
 13
1.0
 23
0.0
 33
0.0
 40
0.0
 40
0.0
 40
0.0
 40
0.0
 40
1.0
 40
1.0
 40
1.0
 40
2.0
 40
2.0
 40
2.0
 40
3.0
 40
3.0
 40
3.0
 40
4.0
 40
4.0
 40
4.0
 40
4.0
 10
172.7100847046063
 20
-74.85703957187644
 30
0.0
 10
172.7100847047552
 20
-75.68546669636908
 30
0.0
 10
172.0385118297434
 20
-76.35703957162141
 30
0.0
 10
171.2100847052508
 20
-76.35703957177157
 30
0.0
 10
170.3816575807582
 20
-76.35703957192173
 30
0.0
 10
169.7100847055052
 20
-75.68546669690811
 30
0.0
 10
169.7100847053563
 20
-74.85703957241546
 30
0.0
 10
169.7100847052074
 20
-74.02861244792346
 30
0.0
 10
170.3816575802192
 20
-73.35703957267049
 30
0.0
 10
171.2100847047118
 20
-73.35703957252161
 30
0.0
 10
172.0385118292044
 20
-73.35703957237274
 30
0.0
 10
172.7100847044574
 20
-74.0286124473838
 30
0.0
 10
172.7100847046063
 20
-74.85703957187644
 30
0.0
  0
SPLINE
  5
142
330
1F
100
AcDbEntity
  8
Layer 1
 62
    12
420
 13900057
370
    35
100
AcDbSpline
210
0.0
220
0.0
230
1.0
 70
    11
 71
     3
 72
    17
 73
    13
 74
     0
 42
0.0000000001
 43
0.0000000001
 12
1.0
 22
0.0
 32
0.0
 13
1.0
 23
0.0
 33
0.0
 40
0.0
 40
0.0
 40
0.0
 40
0.0
 40
1.0
 40
1.0
 40
1.0
 40
2.0
 40
2.0
 40
2.0
 40
3.0
 40
3.0
 40
3.0
 40
4.0
 40
4.0
 40
4.0
 40
4.0
 10
264.9614735704323
 20
-74.8570395553097
 30
0.0
 10
264.9614735705812
 20
-75.68546667980233
 30
0.0
 10
264.2899006955702
 20
-76.35703955505531
 30
0.0
 10
263.4614735710769
 20
-76.35703955520547
 30
0.0
 10
262.6330464465842
 20
-76.35703955535178
 30
0.0
 10
261.9614735713312
 20
-75.68546668034136
 30
0.0
 10
261.9614735711824
 20
-74.85703955584871
 30
0.0
 10
261.9614735710335
 20
-74.02861243135608
 30
0.0
 10
262.6330464460452
 20
-73.35703955610246
 30
0.0
 10
263.4614735705378
 20
-73.35703955595359
 30
0.0
 10
264.2899006950305
 20
-73.3570395558047
 30
0.0
 10
264.9614735702834
 20
-74.02861243081705
 30
0.0
 10
264.9614735704323
 20
-74.8570395553097
 30
0.0
  0
SPLINE
  5
143
330
1F
100
AcDbEntity
  8
Layer 1
 62
    12
420
 13900057
370
    35
100
AcDbSpline
210
0.0
220
0.0
230
1.0
 70
    11
 71
     3
 72
    17
 73
    13
 74
     0
 42
0.0000000001
 43
0.0000000001
 12
1.0
 22
0.0
 32
0.0
 13
1.0
 23
0.0
 33
0.0
 40
0.0
 40
0.0
 40
0.0
 40
0.0
 40
1.0
 40
1.0
 40
1.0
 40
2.0
 40
2.0
 40
2.0
 40
3.0
 40
3.0
 40
3.0
 40
4.0
 40
4.0
 40
4.0
 40
4.0
 10
172.7100846970445
 20
-32.75083763795919
 30
0.0
 10
172.7100846971934
 20
-33.57926476245183
 30
0.0
 10
172.0385118221817
 20
-34.25083763770417
 30
0.0
 10
171.210084697689
 20
-34.25083763785304
 30
0.0
 10
170.3816575731964
 20
-34.25083763800191
 30
0.0
 10
169.7100846979434
 20
-33.57926476299021
 30
0.0
 10
169.7100846977945
 20
-32.75083763849757
 30
0.0
 10
169.7100846976463
 20
-31.92241051400493
 30
0.0
 10
170.381657572658
 20
-31.25083763875195
 30
0.0
 10
171.2100846971506
 20
-31.25083763860308
 30
0.0
 10
172.0385118216433
 20
-31.2508376384542
 30
0.0
 10
172.7100846968963
 20
-31.92241051346655
 30
0.0
 10
172.7100846970445
 20
-32.75083763795919
 30
0.0
  0
SPLINE
  5
144
330
1F
100
AcDbEntity
  8
Layer 1
 62
    12
420
 13900057
370
    35
100
AcDbSpline
210
0.0
220
0.0
230
1.0
 70
    11
 71
     3
 72
    17
 73
    13
 74
     0
 42
0.0000000001
 43
0.0000000001
 12
1.0
 22
0.0
 32
0.0
 13
1.0
 23
0.0
 33
0.0
 40
0.0
 40
0.0
 40
0.0
 40
0.0
 40
1.0
 40
1.0
 40
1.0
 40
2.0
 40
2.0
 40
2.0
 40
3.0
 40
3.0
 40
3.0
 40
4.0
 40
4.0
 40
4.0
 40
4.0
 10
264.9614735628705
 20
-32.75083762139116
 30
0.0
 10
264.9614735630194
 20
-33.5792647458838
 30
0.0
 10
264.2899006880083
 20
-34.25083762113678
 30
0.0
 10
263.4614735635151
 20
-34.25083762128565
 30
0.0
 10
262.6330464390225
 20
-34.25083762143453
 30
0.0
 10
261.9614735637695
 20
-33.57926474642283
 30
0.0
 10
261.9614735636206
 20
-32.75083762193019
 30
0.0
 10
261.9614735634723
 20
-31.92241049743755
 30
0.0
 10
262.633046438484
 20
-31.25083762218457
 30
0.0
 10
263.4614735629767
 20
-31.25083762203569
 30
0.0
 10
264.2899006874687
 20
-31.25083762188682
 30
0.0
 10
264.9614735627223
 20
-31.92241049689852
 30
0.0
 10
264.9614735628705
 20
-32.75083762139116
 30
0.0
  0
POLYLINE
  5
145
330
1F
100
AcDbEntity
  8
Layer 1
 62
     7
420
 16777215
370
    35
100
AcDb2dPolyline
 66
     1
 10
0.0
 20
0.0
 30
0.0
  0
VERTEX
  5
146
330
145
100
AcDbEntity
  8
Layer 1
 62
     7
420
 16777215
370
    35
100
AcDbVertex
100
AcDb2dVertex
 10
259.933710482955
 20
30.25508765715364
 30
0.0
  0
VERTEX
  5
147
330
145
100
AcDbEntity
  8
Layer 1
 62
     7
420
 16777215
370
    35
100
AcDbVertex
100
AcDb2dVertex
 10
250.2675692296749
 20
30.25508765715364
 30
0.0
  0
VERTEX
  5
148
330
145
100
AcDbEntity
  8
Layer 1
 62
     7
420
 16777215
370
    35
100
AcDbVertex
100
AcDb2dVertex
 10
250.2675692296749
 20
27.2550769767513
 30
0.0
  0
VERTEX
  5
149
330
145
100
AcDbEntity
  8
Layer 1
 62
     7
420
 16777215
370
    35
100
AcDbVertex
100
AcDb2dVertex
 10
259.933710482955
 20
27.2550769767513
 30
0.0
  0
VERTEX
  5
14A
330
145
100
AcDbEntity
  8
Layer 1
 62
     7
420
 16777215
370
    35
100
AcDbVertex
100
AcDb2dVertex
 10
259.933710482955
 20
-39.74490317007324
 30
0.0
  0
VERTEX
  5
14B
330
145
100
AcDbEntity
  8
Layer 1
 62
     7
420
 16777215
370
    35
100
AcDbVertex
100
AcDb2dVertex
 10
264.6086835245923
 20
-39.74490317007324
 30
0.0
  0
VERTEX
  5
14C
330
145
100
AcDbEntity
  8
Layer 1
 62
     7
420
 16777215
370
    35
100
AcDbVertex
100
AcDb2dVertex
 10
264.6086835245923
 20
-62.74489892577009
 30
0.0
  0
VERTEX
  5
14D
330
145
100
AcDbEntity
  8
Layer 1
 62
     7
420
 16777215
370
    35
100
AcDbVertex
100
AcDb2dVertex
 10
259.933710482955
 20
-62.74489892577009
 30
0.0
  0
VERTEX
  5
14E
330
145
100
AcDbEntity
  8
Layer 1
 62
     7
420
 16777215
370
    35
100
AcDbVertex
100
AcDb2dVertex
 10
259.933710482955
 20
-79.74489485251031
 30
0.0
  0
VERTEX
  5
14F
330
145
100
AcDbEntity
  8
Layer 1
 62
     7
420
 16777215
370
    35
100
AcDbVertex
100
AcDb2dVertex
 10
175.0318514750464
 20
-79.74489485251031
 30
0.0
  0
VERTEX
  5
150
330
145
100
AcDbEntity
  8
Layer 1
 62
     7
420
 16777215
370
    35
100
AcDbVertex
100
AcDb2dVertex
 10
175.0318514750464
 20
27.2550769767513
 30
0.0
  0
VERTEX
  5
151
330
145
100
AcDbEntity
  8
Layer 1
 62
     7
420
 16777215
370
    35
100
AcDbVertex
100
AcDb2dVertex
 10
235.1080509703897
 20
27.2550769767513
 30
0.0
  0
VERTEX
  5
152
330
145
100
AcDbEntity
  8
Layer 1
 62
     7
420
 16777215
370
    35
100
AcDbVertex
100
AcDb2dVertex
 10
235.1080509703897
 20
30.25508765715364
 30
0.0
  0
VERTEX
  5
153
330
145
100
AcDbEntity
  8
Layer 1
 62
     7
420
 16777215
370
    35
100
AcDbVertex
100
AcDb2dVertex
 10
175.0318514750464
 20
30.25508765715364
 30
0.0
  0
VERTEX
  5
154
330
145
100
AcDbEntity
  8
Layer 1
 62
     7
420
 16777215
370
    35
100
AcDbVertex
100
AcDb2dVertex
 10
167.247593630584
 20
30.25508765715364
 30
0.0
  0
VERTEX
  5
155
330
145
100
AcDbEntity
  8
Layer 1
 62
     7
420
 16777215
370
    35
100
AcDbVertex
100
AcDb2dVertex
 10
167.247593630584
 20
27.2550769767513
 30
0.0
  0
VERTEX
  5
156
330
145
100
AcDbEntity
  8
Layer 1
 62
     7
420
 16777215
370
    35
100
AcDbVertex
100
AcDb2dVertex
 10
167.247593630584
 20
-79.74489485251031
 30
0.0
  0
VERTEX
  5
157
330
145
100
AcDbEntity
  8
Layer 1
 62
     7
420
 16777215
370
    35
100
AcDbVertex
100
AcDb2dVertex
 10
167.247593630584
 20
-83.74490909304677
 30
0.0
  0
VERTEX
  5
158
330
145
100
AcDbEntity
  8
Layer 1
 62
     7
420
 16777215
370
    35
100
AcDbVertex
100
AcDb2dVertex
 10
175.0318514750464
 20
-83.74490909304677
 30
0.0
  0
VERTEX
  5
159
330
145
100
AcDbEntity
  8
Layer 1
 62
     7
420
 16777215
370
    35
100
AcDbVertex
100
AcDb2dVertex
 10
259.933710482955
 20
-83.74490909304677
 30
0.0
  0
VERTEX
  5
15A
330
145
100
AcDbEntity
  8
Layer 1
 62
     7
420
 16777215
370
    35
100
AcDbVertex
100
AcDb2dVertex
 10
267.2475836026001
 20
-83.74490909304677
 30
0.0
  0
VERTEX
  5
15B
330
145
100
AcDbEntity
  8
Layer 1
 62
     7
420
 16777215
370
    35
100
AcDbVertex
100
AcDb2dVertex
 10
267.2475836026001
 20
-79.74489485251031
 30
0.0
  0
VERTEX
  5
15C
330
145
100
AcDbEntity
  8
Layer 1
 62
     7
420
 16777215
370
    35
100
AcDbVertex
100
AcDb2dVertex
 10
267.2475836026001
 20
-71.85702576132843
 30
0.0
  0
VERTEX
  5
15D
330
145
100
AcDbEntity
  8
Layer 1
 62
     7
420
 16777215
370
    35
100
AcDbVertex
100
AcDb2dVertex
 10
262.2475873337763
 20
-71.85702576132843
 30
0.0
  0
VERTEX
  5
15E
330
145
100
AcDbEntity
  8
Layer 1
 62
     7
420
 16777215
370
    35
100
AcDbVertex
100
AcDb2dVertex
 10
262.2475873337763
 20
-65.3570349182275
 30
0.0
  0
VERTEX
  5
15F
330
145
100
AcDbEntity
  8
Layer 1
 62
     7
420
 16777215
370
    35
100
AcDbVertex
100
AcDb2dVertex
 10
267.2475836026001
 20
-65.3570349182275
 30
0.0
  0
VERTEX
  5
160
330
145
100
AcDbEntity
  8
Layer 1
 62
     7
420
 16777215
370
    35
100
AcDbVertex
100
AcDb2dVertex
 10
267.2475836026001
 20
27.2550769767513
 30
0.0
  0
VERTEX
  5
161
330
145
100
AcDbEntity
  8
Layer 1
 62
     7
420
 16777215
370
    35
100
AcDbVertex
100
AcDb2dVertex
 10
267.2475836026001
 20
30.25508765715364
 30
0.0
  0
VERTEX
  5
162
330
145
100
AcDbEntity
  8
Layer 1
 62
     7
420
 16777215
370
    35
100
AcDbVertex
100
AcDb2dVertex
 10
259.933710482955
 20
30.25508765715364
 30
0.0
  0
SEQEND
  5
163
330
145
100
AcDbEntity
  8
Layer 1
 62
     7
420
 16777215
370
    35
  0
SPLINE
  5
164
330
1F
100
AcDbEntity
  8
Layer 1
 62
    12
420
 13900057
370
    35
100
AcDbSpline
210
0.0
220
0.0
230
1.0
 70
    11
 71
     3
 72
    17
 73
    13
 74
     0
 42
0.0000000001
 43
0.0000000001
 12
1.0
 22
0.0
 32
0.0
 13
1.0
 23
0.0
 33
0.0
 40
0.0
 40
0.0
 40
0.0
 40
0.0
 40
1.0
 40
1.0
 40
1.0
 40
2.0
 40
2.0
 40
2.0
 40
3.0
 40
3.0
 40
3.0
 40
4.0
 40
4.0
 40
4.0
 40
4.0
 10
172.4158004279104
 20
-194.224232086959
 30
0.0
 10
172.4158004280592
 20
-195.0526592114517
 30
0.0
 10
171.7442275530475
 20
-195.724232086704
 30
0.0
 10
170.9158004285549
 20
-195.7242320868542
 30
0.0
 10
170.0873733040623
 20
-195.7242320870043
 30
0.0
 10
169.4158004288093
 20
-195.0526592119907
 30
0.0
 10
169.4158004286604
 20
-194.2242320874981
 30
0.0
 10
169.4158004285115
 20
-193.395804963006
 30
0.0
 10
170.0873733035232
 20
-192.7242320877531
 30
0.0
 10
170.9158004280159
 20
-192.7242320876042
 30
0.0
 10
171.7442275525085
 20
-192.7242320874553
 30
0.0
 10
172.4158004277615
 20
-193.3958049624664
 30
0.0
 10
172.4158004279104
 20
-194.224232086959
 30
0.0
  0
SPLINE
  5
165
330
1F
100
AcDbEntity
  8
Layer 1
 62
    12
420
 13900057
370
    35
100
AcDbSpline
210
0.0
220
0.0
230
1.0
 70
    11
 71
     3
 72
    17
 73
    13
 74
     0
 42
0.0000000001
 43
0.0000000001
 12
1.0
 22
0.0
 32
0.0
 13
1.0
 23
0.0
 33
0.0
 40
0.0
 40
0.0
 40
0.0
 40
0.0
 40
1.0
 40
1.0
 40
1.0
 40
2.0
 40
2.0
 40
2.0
 40
3.0
 40
3.0
 40
3.0
 40
4.0
 40
4.0
 40
4.0
 40
4.0
 10
264.6671892937364
 20
-194.2242320703923
 30
0.0
 10
264.6671892938853
 20
-195.0526591948849
 30
0.0
 10
263.9956164188742
 20
-195.7242320701379
 30
0.0
 10
263.1671892943809
 20
-195.7242320702881
 30
0.0
 10
262.3387621698883
 20
-195.7242320704344
 30
0.0
 10
261.6671892946353
 20
-195.052659195424
 30
0.0
 10
261.6671892944864
 20
-194.2242320709313
 30
0.0
 10
261.6671892943376
 20
-193.3958049464387
 30
0.0
 10
262.3387621693493
 20
-192.724232071185
 30
0.0
 10
263.1671892938419
 20
-192.7242320710362
 30
0.0
 10
263.9956164183346
 20
-192.7242320708873
 30
0.0
 10
264.6671892935875
 20
-193.3958049458996
 30
0.0
 10
264.6671892937364
 20
-194.2242320703923
 30
0.0
  0
SPLINE
  5
166
330
1F
100
AcDbEntity
  8
Layer 1
 62
    12
420
 13900057
370
    35
100
AcDbSpline
210
0.0
220
0.0
230
1.0
 70
    11
 71
     3
 72
    17
 73
    13
 74
     0
 42
0.0000000001
 43
0.0000000001
 12
1.0
 22
0.0
 32
0.0
 13
1.0
 23
0.0
 33
0.0
 40
0.0
 40
0.0
 40
0.0
 40
0.0
 40
1.0
 40
1.0
 40
1.0
 40
2.0
 40
2.0
 40
2.0
 40
3.0
 40
3.0
 40
3.0
 40
4.0
 40
4.0
 40
4.0
 40
4.0
 10
172.4158004203486
 20
-152.1180301530418
 30
0.0
 10
172.4158004204974
 20
-152.9464572775344
 30
0.0
 10
171.7442275454858
 20
-153.6180301527868
 30
0.0
 10
170.9158004209931
 20
-153.6180301529356
 30
0.0
 10
170.0873732965005
 20
-153.6180301530845
 30
0.0
 10
169.4158004212475
 20
-152.9464572780728
 30
0.0
 10
169.4158004210986
 20
-152.1180301535802
 30
0.0
 10
169.4158004209504
 20
-151.2896030290875
 30
0.0
 10
170.0873732959621
 20
-150.6180301538346
 30
0.0
 10
170.9158004204547
 20
-150.6180301536857
 30
0.0
 10
171.7442275449474
 20
-150.6180301535368
 30
0.0
 10
172.4158004202004
 20
-151.2896030285491
 30
0.0
 10
172.4158004203486
 20
-152.1180301530418
 30
0.0
  0
SPLINE
  5
167
330
1F
100
AcDbEntity
  8
Layer 1
 62
    12
420
 13900057
370
    35
100
AcDbSpline
210
0.0
220
0.0
230
1.0
 70
    11
 71
     3
 72
    17
 73
    13
 74
     0
 42
0.0000000001
 43
0.0000000001
 12
1.0
 22
0.0
 32
0.0
 13
1.0
 23
0.0
 33
0.0
 40
0.0
 40
0.0
 40
0.0
 40
0.0
 40
1.0
 40
1.0
 40
1.0
 40
2.0
 40
2.0
 40
2.0
 40
3.0
 40
3.0
 40
3.0
 40
4.0
 40
4.0
 40
4.0
 40
4.0
 10
264.6671892861746
 20
-152.1180301364737
 30
0.0
 10
264.6671892863235
 20
-152.9464572609664
 30
0.0
 10
263.9956164113124
 20
-153.6180301362194
 30
0.0
 10
263.1671892868192
 20
-153.6180301363682
 30
0.0
 10
262.3387621623265
 20
-153.6180301365171
 30
0.0
 10
261.6671892870735
 20
-152.9464572615054
 30
0.0
 10
261.6671892869247
 20
-152.1180301370128
 30
0.0
 10
261.6671892867764
 20
-151.2896030125201
 30
0.0
 10
262.3387621617881
 20
-150.6180301372672
 30
0.0
 10
263.1671892862807
 20
-150.6180301371183
 30
0.0
 10
263.9956164107728
 20
-150.6180301369694
 30
0.0
 10
264.6671892860264
 20
-151.2896030119811
 30
0.0
 10
264.6671892861746
 20
-152.1180301364737
 30
0.0
  0
POLYLINE
  5
168
330
1F
100
AcDbEntity
  8
Layer 1
 62
     7
420
 16777215
370
    35
100
AcDb2dPolyline
 66
     1
 10
0.0
 20
0.0
 30
0.0
  0
VERTEX
  5
169
330
168
100
AcDbEntity
  8
Layer 1
 62
     7
420
 16777215
370
    35
100
AcDbVertex
100
AcDb2dVertex
 10
259.6394262062591
 20
-89.11210485792894
 30
0.0
  0
VERTEX
  5
16A
330
168
100
AcDbEntity
  8
Layer 1
 62
     7
420
 16777215
370
    35
100
AcDbVertex
100
AcDb2dVertex
 10
249.973284952979
 20
-89.11210485792894
 30
0.0
  0
VERTEX
  5
16B
330
168
100
AcDbEntity
  8
Layer 1
 62
     7
420
 16777215
370
    35
100
AcDbVertex
100
AcDb2dVertex
 10
249.973284952979
 20
-92.11211553833128
 30
0.0
  0
VERTEX
  5
16C
330
168
100
AcDbEntity
  8
Layer 1
 62
     7
420
 16777215
370
    35
100
AcDbVertex
100
AcDb2dVertex
 10
259.6394262062591
 20
-92.11211553833128
 30
0.0
  0
VERTEX
  5
16D
330
168
100
AcDbEntity
  8
Layer 1
 62
     7
420
 16777215
370
    35
100
AcDbVertex
100
AcDb2dVertex
 10
259.6394262062591
 20
-159.1120956851558
 30
0.0
  0
VERTEX
  5
16E
330
168
100
AcDbEntity
  8
Layer 1
 62
     7
420
 16777215
370
    35
100
AcDbVertex
100
AcDb2dVertex
 10
264.3143992478963
 20
-159.1120956851558
 30
0.0
  0
VERTEX
  5
16F
330
168
100
AcDbEntity
  8
Layer 1
 62
     7
420
 16777215
370
    35
100
AcDbVertex
100
AcDb2dVertex
 10
264.3143992478963
 20
-182.1120914408527
 30
0.0
  0
VERTEX
  5
170
330
168
100
AcDbEntity
  8
Layer 1
 62
     7
420
 16777215
370
    35
100
AcDbVertex
100
AcDb2dVertex
 10
259.6394262062591
 20
-182.1120914408527
 30
0.0
  0
VERTEX
  5
171
330
168
100
AcDbEntity
  8
Layer 1
 62
     7
420
 16777215
370
    35
100
AcDbVertex
100
AcDb2dVertex
 10
259.6394262062591
 20
-199.1120873675929
 30
0.0
  0
VERTEX
  5
172
330
168
100
AcDbEntity
  8
Layer 1
 62
     7
420
 16777215
370
    35
100
AcDbVertex
100
AcDb2dVertex
 10
174.7375671983505
 20
-199.1120873675929
 30
0.0
  0
VERTEX
  5
173
330
168
100
AcDbEntity
  8
Layer 1
 62
     7
420
 16777215
370
    35
100
AcDbVertex
100
AcDb2dVertex
 10
174.7375671983505
 20
-92.11211553833128
 30
0.0
  0
VERTEX
  5
174
330
168
100
AcDbEntity
  8
Layer 1
 62
     7
420
 16777215
370
    35
100
AcDbVertex
100
AcDb2dVertex
 10
234.8137666936938
 20
-92.11211553833128
 30
0.0
  0
VERTEX
  5
175
330
168
100
AcDbEntity
  8
Layer 1
 62
     7
420
 16777215
370
    35
100
AcDbVertex
100
AcDb2dVertex
 10
234.8137666936938
 20
-89.11210485792894
 30
0.0
  0
VERTEX
  5
176
330
168
100
AcDbEntity
  8
Layer 1
 62
     7
420
 16777215
370
    35
100
AcDbVertex
100
AcDb2dVertex
 10
174.7375671983505
 20
-89.11210485792894
 30
0.0
  0
VERTEX
  5
177
330
168
100
AcDbEntity
  8
Layer 1
 62
     7
420
 16777215
370
    35
100
AcDbVertex
100
AcDb2dVertex
 10
166.9533093538881
 20
-89.11210485792894
 30
0.0
  0
VERTEX
  5
178
330
168
100
AcDbEntity
  8
Layer 1
 62
     7
420
 16777215
370
    35
100
AcDbVertex
100
AcDb2dVertex
 10
166.9533093538881
 20
-92.11211553833128
 30
0.0
  0
VERTEX
  5
179
330
168
100
AcDbEntity
  8
Layer 1
 62
     7
420
 16777215
370
    35
100
AcDbVertex
100
AcDb2dVertex
 10
166.9533093538881
 20
-199.1120873675929
 30
0.0
  0
VERTEX
  5
17A
330
168
100
AcDbEntity
  8
Layer 1
 62
     7
420
 16777215
370
    35
100
AcDbVertex
100
AcDb2dVertex
 10
166.9533093538881
 20
-203.1121016081294
 30
0.0
  0
VERTEX
  5
17B
330
168
100
AcDbEntity
  8
Layer 1
 62
     7
420
 16777215
370
    35
100
AcDbVertex
100
AcDb2dVertex
 10
174.7375671983505
 20
-203.1121016081294
 30
0.0
  0
VERTEX
  5
17C
330
168
100
AcDbEntity
  8
Layer 1
 62
     7
420
 16777215
370
    35
100
AcDbVertex
100
AcDb2dVertex
 10
259.6394262062591
 20
-203.1121016081294
 30
0.0
  0
VERTEX
  5
17D
330
168
100
AcDbEntity
  8
Layer 1
 62
     7
420
 16777215
370
    35
100
AcDbVertex
100
AcDb2dVertex
 10
266.9532993259041
 20
-203.1121016081294
 30
0.0
  0
VERTEX
  5
17E
330
168
100
AcDbEntity
  8
Layer 1
 62
     7
420
 16777215
370
    35
100
AcDbVertex
100
AcDb2dVertex
 10
266.9532993259041
 20
-199.1120873675929
 30
0.0
  0
VERTEX
  5
17F
330
168
100
AcDbEntity
  8
Layer 1
 62
     7
420
 16777215
370
    35
100
AcDbVertex
100
AcDb2dVertex
 10
266.9532993259041
 20
-191.224218276411
 30
0.0
  0
VERTEX
  5
180
330
168
100
AcDbEntity
  8
Layer 1
 62
     7
420
 16777215
370
    35
100
AcDbVertex
100
AcDb2dVertex
 10
261.9533030570804
 20
-191.224218276411
 30
0.0
  0
VERTEX
  5
181
330
168
100
AcDbEntity
  8
Layer 1
 62
     7
420
 16777215
370
    35
100
AcDbVertex
100
AcDb2dVertex
 10
261.9533030570804
 20
-184.7242274333101
 30
0.0
  0
VERTEX
  5
182
330
168
100
AcDbEntity
  8
Layer 1
 62
     7
420
 16777215
370
    35
100
AcDbVertex
100
AcDb2dVertex
 10
266.9532993259041
 20
-184.7242274333101
 30
0.0
  0
VERTEX
  5
183
330
168
100
AcDbEntity
  8
Layer 1
 62
     7
420
 16777215
370
    35
100
AcDbVertex
100
AcDb2dVertex
 10
266.9532993259041
 20
-92.11211553833128
 30
0.0
  0
VERTEX
  5
184
330
168
100
AcDbEntity
  8
Layer 1
 62
     7
420
 16777215
370
    35
100
AcDbVertex
100
AcDb2dVertex
 10
266.9532993259041
 20
-89.11210485792894
 30
0.0
  0
VERTEX
  5
185
330
168
100
AcDbEntity
  8
Layer 1
 62
     7
420
 16777215
370
    35
100
AcDbVertex
100
AcDb2dVertex
 10
259.6394262062591
 20
-89.11210485792894
 30
0.0
  0
SEQEND
  5
186
330
168
100
AcDbEntity
  8
Layer 1
 62
     7
420
 16777215
370
    35
  0
INSERT
  5
188
330
1F
100
AcDbEntity
  8
Layer 1
100
AcDbBlockReference
  2
block 26
 10
0.0
 20
0.0
 30
0.0
  0
INSERT
  5
199
330
1F
100
AcDbEntity
  8
Layer 1
100
AcDbBlockReference
  2
block 27
 10
0.0
 20
0.0
 30
0.0
  0
ENDSEC
  0
SECTION
  2
OBJECTS
  0
DICTIONARY
  5
C
330
0
100
AcDbDictionary
281
     1
  3
ACAD_GROUP
350
D
  3
ACAD_LAYOUT
350
1A
  3
ACAD_MATERIAL
350
3B
  3
ACAD_MLEADERSTYLE
350
1B3
  3
ACAD_MLINESTYLE
350
17
  3
ACAD_PLOTSETTINGS
350
19
  3
ACAD_PLOTSTYLENAME
350
E
  3
ACAD_TABLESTYLE
350
1B2
  3
ACAD_VISUALSTYLE
350
2A
  0
SUN
  5
3F
330
29
100
AcDbSun
 90
        1
290
     0
 63
     7
421
 16777215
 40
1.0
291
     1
 91
  2455826
 92
 54000000
292
     0
 70
     2
 71
   256
280
     1
  0
DICTIONARY
  5
D
102
{ACAD_REACTORS
330
C
102
}
330
C
100
AcDbDictionary
281
     1
  0
DICTIONARY
  5
1A
102
{ACAD_REACTORS
330
C
102
}
330
C
100
AcDbDictionary
281
     1
  3
Layout1
350
1E
  3
Layout2
350
26
  3
Model
350
22
  0
DICTIONARY
  5
3B
102
{ACAD_REACTORS
330
C
102
}
330
C
100
AcDbDictionary
281
     1
  3
ByBlock
350
3D
  3
ByLayer
350
3C
  3
Global
350
3E
  0
DICTIONARY
  5
1B3
102
{ACAD_REACTORS
330
C
102
}
330
C
100
AcDbDictionary
281
     1
  0
DICTIONARY
  5
17
102
{ACAD_REACTORS
330
C
102
}
330
C
100
AcDbDictionary
281
     1
  3
Standard
350
18
  0
DICTIONARY
  5
19
102
{ACAD_REACTORS
330
C
102
}
330
C
100
AcDbDictionary
281
     1
  0
ACDBDICTIONARYWDFLT
  5
E
102
{ACAD_REACTORS
330
C
102
}
330
C
100
AcDbDictionary
281
     1
  3
Normal
350
F
100
AcDbDictionaryWithDefault
340
F
  0
DICTIONARY
  5
1B2
102
{ACAD_REACTORS
330
C
102
}
330
C
100
AcDbDictionary
281
     1
  0
DICTIONARY
  5
2A
102
{ACAD_REACTORS
330
C
102
}
330
C
100
AcDbDictionary
281
     1
  3
2dWireframe
350
2F
  3
3D Hidden
350
31
  3
3dWireframe
350
30
  3
Basic
350
32
  3
Brighten
350
36
  3
ColorChange
350
3A
  3
Conceptual
350
34
  3
Dim
350
35
  3
Facepattern
350
39
  3
Flat
350
2B
  3
FlatWithEdges
350
2C
  3
Gouraud
350
2D
  3
GouraudWithEdges
350
2E
  3
Linepattern
350
38
  3
Realistic
350
33
  3
Thicken
350
37
  0
LAYOUT
  5
1E
102
{ACAD_REACTORS
330
1A
102
}
330
1A
100
AcDbPlotSettings
  1

  2
none_device
  4

  6

 40
0.0
 41
0.0
 42
0.0
 43
0.0
 44
0.0
 45
0.0
 46
0.0
 47
0.0
 48
0.0
 49
0.0
140
0.0
141
0.0
142
1.0
143
1.0
 70
   688
 72
     0
 73
     0
 74
     5
  7

 75
    16
 76
     0
 77
     2
 78
   300
147
1.0
148
0.0
149
0.0
100
AcDbLayout
  1
Layout1
 70
     1
 71
     1
 10
0.0
 20
0.0
 11
12.0
 21
9.0
 12
0.0
 22
0.0
 32
0.0
 14
1.000000000000000E+20
 24
1.000000000000000E+20
 34
1.000000000000000E+20
 15
-1.000000000000000E+20
 25
-1.000000000000000E+20
 35
-1.000000000000000E+20
146
0.0
 13
0.0
 23
0.0
 33
0.0
 16
1.0
 26
0.0
 36
0.0
 17
0.0
 27
1.0
 37
0.0
 76
     0
330
1B
  0
LAYOUT
  5
26
102
{ACAD_REACTORS
330
1A
102
}
330
1A
100
AcDbPlotSettings
  1

  2
none_device
  4

  6

 40
0.0
 41
0.0
 42
0.0
 43
0.0
 44
0.0
 45
0.0
 46
0.0
 47
0.0
 48
0.0
 49
0.0
140
0.0
141
0.0
142
1.0
143
1.0
 70
   688
 72
     0
 73
     0
 74
     5
  7

 75
    16
 76
     0
 77
     2
 78
   300
147
1.0
148
0.0
149
0.0
100
AcDbLayout
  1
Layout2
 70
     1
 71
     2
 10
0.0
 20
0.0
 11
0.0
 21
0.0
 12
0.0
 22
0.0
 32
0.0
 14
0.0
 24
0.0
 34
0.0
 15
0.0
 25
0.0
 35
0.0
146
0.0
 13
0.0
 23
0.0
 33
0.0
 16
1.0
 26
0.0
 36
0.0
 17
0.0
 27
1.0
 37
0.0
 76
     0
330
23
  0
LAYOUT
  5
22
102
{ACAD_REACTORS
330
1A
102
}
330
1A
100
AcDbPlotSettings
  1

  2
none_device
  4

  6

 40
0.0
 41
0.0
 42
0.0
 43
0.0
 44
0.0
 45
0.0
 46
0.0
 47
0.0
 48
0.0
 49
0.0
140
0.0
141
0.0
142
1.0
143
1.0
 70
  1712
 72
     0
 73
     0
 74
     0
  7

 75
     0
 76
     0
 77
     2
 78
   300
147
1.0
148
0.0
149
0.0
100
AcDbLayout
  1
Model
 70
     1
 71
     0
 10
0.0
 20
0.0
 11
12.0
 21
9.0
 12
0.0
 22
0.0
 32
0.0
 14
1.000000000000000E+20
 24
1.000000000000000E+20
 34
1.000000000000000E+20
 15
-1.000000000000000E+20
 25
-1.000000000000000E+20
 35
-1.000000000000000E+20
146
0.0
 13
0.0
 23
0.0
 33
0.0
 16
1.0
 26
0.0
 36
0.0
 17
0.0
 27
1.0
 37
0.0
 76
     0
330
1F
331
29
  0
MATERIAL
  5
3D
102
{ACAD_REACTORS
330
3B
102
}
330
3B
100
AcDbMaterial
  1
ByBlock
 72
     1
 94
      127
  0
MATERIAL
  5
3C
102
{ACAD_REACTORS
330
3B
102
}
330
3B
100
AcDbMaterial
  1
ByLayer
 72
     1
 94
      127
  0
MATERIAL
  5
3E
102
{ACAD_REACTORS
330
3B
102
}
330
3B
100
AcDbMaterial
  1
Global
 72
     1
 94
      127
  0
MLINESTYLE
  5
18
102
{ACAD_REACTORS
330
17
102
}
330
17
100
AcDbMlineStyle
  2
Standard
 70
     0
  3

 62
   256
 51
90.0
 52
90.0
 71
     2
 49
0.5
 62
   256
  6
BYLAYER
 49
-0.5
 62
   256
  6
BYLAYER
  0
ACDBPLACEHOLDER
  5
F
102
{ACAD_REACTORS
330
E
102
}
330
E
  0
VISUALSTYLE
  5
2F
102
{ACAD_REACTORS
330
2A
102
}
330
2A
100
AcDbVisualStyle
  2
2dWireframe
 70
     4
177
     2
291
     0
 71
     0
176
     1
 72
     2
176
     1
 73
     0
176
     1
 90
        0
176
     1
 40
-0.6
176
     1
 41
-30.0
176
     1
 62
     5
 63
     7
421
 16777215
176
     1
 74
     1
176
     1
 91
        4
176
     1
 64
     7
176
     1
 65
   257
176
     1
 75
     1
176
     1
175
     1
176
     1
 42
1.0
176
     1
 92
        0
176
     1
 66
   257
176
     1
 43
1.0
176
     1
 76
     1
176
     1
 77
     6
176
     1
 78
     2
176
     1
 67
     7
176
     1
 79
     5
176
     1
170
     0
176
     1
171
     0
176
     1
290
     0
176
     1
 93
        1
176
     1
 44
0.0
176
     1
173
     0
176
     1
  0
VISUALSTYLE
  5
31
102
{ACAD_REACTORS
330
2A
102
}
330
2A
100
AcDbVisualStyle
  2
3D Hidden
 70
     6
177
     2
291
     0
 71
     1
176
     1
 72
     2
176
     1
 73
     2
176
     1
 90
        0
176
     1
 40
-0.6
176
     1
 41
-30.0
176
     1
 62
     5
 63
     7
421
 16777215
176
     1
 74
     2
176
     1
 91
        2
176
     1
 64
     7
176
     1
 65
   257
176
     1
 75
     2
176
     1
175
     1
176
     1
 42
40.0
176
     1
 92
        0
176
     1
 66
   257
176
     1
 43
1.0
176
     1
 76
     1
176
     1
 77
     6
176
     1
 78
     2
176
     1
 67
     7
176
     1
 79
     3
176
     1
170
     0
176
     1
171
     0
176
     1
290
     0
176
     1
 93
        1
176
     1
 44
0.0
176
     1
173
     0
176
     1
  0
VISUALSTYLE
  5
30
102
{ACAD_REACTORS
330
2A
102
}
330
2A
100
AcDbVisualStyle
  2
3dWireframe
 70
     5
177
     2
291
     0
 71
     0
176
     1
 72
     2
176
     1
 73
     0
176
     1
 90
        0
176
     1
 40
-0.6
176
     1
 41
-30.0
176
     1
 62
     5
 63
     7
421
 16777215
176
     1
 74
     1
176
     1
 91
        4
176
     1
 64
     7
176
     1
 65
   257
176
     1
 75
     1
176
     1
175
     1
176
     1
 42
1.0
176
     1
 92
        0
176
     1
 66
   257
176
     1
 43
1.0
176
     1
 76
     1
176
     1
 77
     6
176
     1
 78
     2
176
     1
 67
     7
176
     1
 79
     5
176
     1
170
     0
176
     1
171
     0
176
     1
290
     0
176
     1
 93
        1
176
     1
 44
0.0
176
     1
173
     0
176
     1
  0
VISUALSTYLE
  5
32
102
{ACAD_REACTORS
330
2A
102
}
330
2A
100
AcDbVisualStyle
  2
Basic
 70
     7
177
     2
291
     1
 71
     1
176
     1
 72
     0
176
     1
 73
     1
176
     1
 90
        0
176
     1
 40
-0.6
176
     1
 41
-30.0
176
     1
 62
     5
 63
     7
421
 16777215
176
     1
 74
     0
176
     1
 91
        4
176
     1
 64
     7
176
     1
 65
   257
176
     1
 75
     1
176
     1
175
     1
176
     1
 42
1.0
176
     1
 92
        8
176
     1
 66
     7
176
     1
 43
1.0
176
     1
 76
     1
176
     1
 77
     6
176
     1
 78
     2
176
     1
 67
     7
176
     1
 79
     5
176
     1
170
     0
176
     1
171
     0
176
     1
290
     0
176
     1
 93
        1
176
     1
 44
0.0
176
     1
173
     0
176
     1
  0
VISUALSTYLE
  5
36
102
{ACAD_REACTORS
330
2A
102
}
330
2A
100
AcDbVisualStyle
  2
Brighten
 70
    12
177
     2
291
     1
 71
     2
176
     1
 72
     2
176
     1
 73
     0
176
     1
 90
        0
176
     1
 40
-0.6
176
     1
 41
-30.0
176
     1
 62
     5
 63
     7
421
 16777215
176
     1
 74
     1
176
     1
 91
        4
176
     1
 64
     7
176
     1
 65
   257
176
     1
 75
     1
176
     1
175
     1
176
     1
 42
1.0
176
     1
 92
        8
176
     1
 66
     7
176
     1
 43
1.0
176
     1
 76
     1
176
     1
 77
     6
176
     1
 78
     2
176
     1
 67
     7
176
     1
 79
     5
176
     1
170
     0
176
     1
171
     0
176
     1
290
     0
176
     1
 93
        1
176
     1
 44
50.0
176
     1
173
     0
176
     1
  0
VISUALSTYLE
  5
3A
102
{ACAD_REACTORS
330
2A
102
}
330
2A
100
AcDbVisualStyle
  2
ColorChange
 70
    16
177
     2
291
     1
 71
     2
176
     1
 72
     2
176
     1
 73
     3
176
     1
 90
        0
176
     1
 40
-0.6
176
     1
 41
-30.0
176
     1
 62
     5
 63
     8
421
  8421504
176
     1
 74
     1
176
     1
 91
        4
176
     1
 64
     7
176
     1
 65
   257
176
     1
 75
     1
176
     1
175
     1
176
     1
 42
1.0
176
     1
 92
        8
176
     1
 66
     8
424
  8421504
176
     1
 43
1.0
176
     1
 76
     1
176
     1
 77
     6
176
     1
 78
     2
176
     1
 67
     7
176
     1
 79
     5
176
     1
170
     0
176
     1
171
     0
176
     1
290
     0
176
     1
 93
        1
176
     1
 44
0.0
176
     1
173
     0
176
     1
  0
VISUALSTYLE
  5
34
102
{ACAD_REACTORS
330
2A
102
}
330
2A
100
AcDbVisualStyle
  2
Conceptual
 70
     9
177
     2
291
     0
 71
     3
176
     1
 72
     2
176
     1
 73
     0
176
     1
 90
        0
176
     1
 40
-0.6
176
     1
 41
-30.0
176
     1
 62
     5
 63
     7
421
 16777215
176
     1
 74
     2
176
     1
 91
        2
176
     1
 64
     7
176
     1
 65
   257
176
     1
 75
     1
176
     1
175
     1
176
     1
 42
40.0
176
     1
 92
        8
176
     1
 66
     7
176
     1
 43
1.0
176
     1
 76
     1
176
     1
 77
     6
176
     1
 78
     2
176
     1
 67
     7
176
     1
 79
     3
176
     1
170
     0
176
     1
171
     0
176
     1
290
     0
176
     1
 93
        1
176
     1
 44
0.0
176
     1
173
     0
176
     1
  0
VISUALSTYLE
  5
35
102
{ACAD_REACTORS
330
2A
102
}
330
2A
100
AcDbVisualStyle
  2
Dim
 70
    11
177
     2
291
     1
 71
     2
176
     1
 72
     2
176
     1
 73
     0
176
     1
 90
        0
176
     1
 40
-0.6
176
     1
 41
-30.0
176
     1
 62
     5
 63
     7
421
 16777215
176
     1
 74
     1
176
     1
 91
        4
176
     1
 64
     7
176
     1
 65
   257
176
     1
 75
     1
176
     1
175
     1
176
     1
 42
1.0
176
     1
 92
        8
176
     1
 66
     7
176
     1
 43
1.0
176
     1
 76
     1
176
     1
 77
     6
176
     1
 78
     2
176
     1
 67
     7
176
     1
 79
     5
176
     1
170
     0
176
     1
171
     0
176
     1
290
     0
176
     1
 93
        1
176
     1
 44
-50.0
176
     1
173
     0
176
     1
  0
VISUALSTYLE
  5
39
102
{ACAD_REACTORS
330
2A
102
}
330
2A
100
AcDbVisualStyle
  2
Facepattern
 70
    15
177
     2
291
     1
 71
     2
176
     1
 72
     2
176
     1
 73
     0
176
     1
 90
        0
176
     1
 40
-0.6
176
     1
 41
-30.0
176
     1
 62
     5
 63
     7
421
 16777215
176
     1
 74
     1
176
     1
 91
        4
176
     1
 64
     7
176
     1
 65
   257
176
     1
 75
     1
176
     1
175
     1
176
     1
 42
1.0
176
     1
 92
        8
176
     1
 66
     7
176
     1
 43
1.0
176
     1
 76
     1
176
     1
 77
     6
176
     1
 78
     2
176
     1
 67
     7
176
     1
 79
     5
176
     1
170
     0
176
     1
171
     0
176
     1
290
     0
176
     1
 93
        1
176
     1
 44
0.0
176
     1
173
     0
176
     1
  0
VISUALSTYLE
  5
2B
102
{ACAD_REACTORS
330
2A
102
}
330
2A
100
AcDbVisualStyle
  2
Flat
 70
     0
177
     2
291
     1
 71
     2
176
     1
 72
     1
176
     1
 73
     1
176
     1
 90
        2
176
     1
 40
-0.6
176
     1
 41
30.0
176
     1
 62
     5
 63
     7
421
 16777215
176
     1
 74
     0
176
     1
 91
        4
176
     1
 64
     7
176
     1
 65
   257
176
     1
 75
     1
176
     1
175
     1
176
     1
 42
1.0
176
     1
 92
        8
176
     1
 66
     7
176
     1
 43
1.0
176
     1
 76
     1
176
     1
 77
     6
176
     1
 78
     2
176
     1
 67
     7
176
     1
 79
     5
176
     1
170
     0
176
     1
171
     0
176
     1
290
     0
176
     1
 93
       13
176
     1
 44
0.0
176
     1
173
     0
176
     1
  0
VISUALSTYLE
  5
2C
102
{ACAD_REACTORS
330
2A
102
}
330
2A
100
AcDbVisualStyle
  2
FlatWithEdges
 70
     1
177
     2
291
     1
 71
     2
176
     1
 72
     1
176
     1
 73
     1
176
     1
 90
        2
176
     1
 40
-0.6
176
     1
 41
30.0
176
     1
 62
     5
 63
     7
421
 16777215
176
     1
 74
     1
176
     1
 91
        4
176
     1
 64
     7
176
     1
 65
   257
176
     1
 75
     1
176
     1
175
     1
176
     1
 42
1.0
176
     1
 92
        0
176
     1
 66
   257
176
     1
 43
1.0
176
     1
 76
     1
176
     1
 77
     6
176
     1
 78
     2
176
     1
 67
     7
176
     1
 79
     5
176
     1
170
     0
176
     1
171
     0
176
     1
290
     0
176
     1
 93
       13
176
     1
 44
0.0
176
     1
173
     0
176
     1
  0
VISUALSTYLE
  5
2D
102
{ACAD_REACTORS
330
2A
102
}
330
2A
100
AcDbVisualStyle
  2
Gouraud
 70
     2
177
     2
291
     1
 71
     2
176
     1
 72
     2
176
     1
 73
     1
176
     1
 90
        2
176
     1
 40
-0.6
176
     1
 41
30.0
176
     1
 62
     5
 63
     7
421
 16777215
176
     1
 74
     0
176
     1
 91
        4
176
     1
 64
     7
176
     1
 65
   257
176
     1
 75
     1
176
     1
175
     1
176
     1
 42
1.0
176
     1
 92
        0
176
     1
 66
     7
176
     1
 43
1.0
176
     1
 76
     1
176
     1
 77
     6
176
     1
 78
     2
176
     1
 67
     7
176
     1
 79
     5
176
     1
170
     0
176
     1
171
     0
176
     1
290
     0
176
     1
 93
       13
176
     1
 44
0.0
176
     1
173
     0
176
     1
  0
VISUALSTYLE
  5
2E
102
{ACAD_REACTORS
330
2A
102
}
330
2A
100
AcDbVisualStyle
  2
GouraudWithEdges
 70
     3
177
     2
291
     1
 71
     2
176
     1
 72
     2
176
     1
 73
     1
176
     1
 90
        2
176
     1
 40
-0.6
176
     1
 41
30.0
176
     1
 62
     5
 63
     7
421
 16777215
176
     1
 74
     1
176
     1
 91
        4
176
     1
 64
     7
176
     1
 65
   257
176
     1
 75
     1
176
     1
175
     1
176
     1
 42
1.0
176
     1
 92
        0
176
     1
 66
   257
176
     1
 43
1.0
176
     1
 76
     1
176
     1
 77
     6
176
     1
 78
     2
176
     1
 67
     7
176
     1
 79
     5
176
     1
170
     0
176
     1
171
     0
176
     1
290
     0
176
     1
 93
       13
176
     1
 44
0.0
176
     1
173
     0
176
     1
  0
VISUALSTYLE
  5
38
102
{ACAD_REACTORS
330
2A
102
}
330
2A
100
AcDbVisualStyle
  2
Linepattern
 70
    14
177
     2
291
     1
 71
     2
176
     1
 72
     2
176
     1
 73
     0
176
     1
 90
        0
176
     1
 40
-0.6
176
     1
 41
-30.0
176
     1
 62
     5
 63
     7
421
 16777215
176
     1
 74
     1
176
     1
 91
        4
176
     1
 64
     7
176
     1
 65
   257
176
     1
 75
     7
176
     1
175
     7
176
     1
 42
1.0
176
     1
 92
        8
176
     1
 66
     7
176
     1
 43
1.0
176
     1
 76
     1
176
     1
 77
     6
176
     1
 78
     2
176
     1
 67
     7
176
     1
 79
     5
176
     1
170
     0
176
     1
171
     0
176
     1
290
     0
176
     1
 93
        1
176
     1
 44
0.0
176
     1
173
     0
176
     1
  0
VISUALSTYLE
  5
33
102
{ACAD_REACTORS
330
2A
102
}
330
2A
100
AcDbVisualStyle
  2
Realistic
 70
     8
177
     2
291
     0
 71
     2
176
     1
 72
     2
176
     1
 73
     0
176
     1
 90
        0
176
     1
 40
-0.6
176
     1
 41
-30.0
176
     1
 62
     5
 63
     7
421
 16777215
176
     1
 74
     1
176
     1
 91
        0
176
     1
 64
     7
176
     1
 65
   257
176
     1
 75
     1
176
     1
175
     1
176
     1
 42
1.0
176
     1
 92
        8
176
     1
 66
     8
424
  7895160
176
     1
 43
1.0
176
     1
 76
     1
176
     1
 77
     6
176
     1
 78
     2
176
     1
 67
     7
176
     1
 79
     5
176
     1
170
     0
176
     1
171
     0
176
     1
290
     0
176
     1
 93
       13
176
     1
 44
0.0
176
     1
173
     0
176
     1
  0
VISUALSTYLE
  5
37
102
{ACAD_REACTORS
330
2A
102
}
330
2A
100
AcDbVisualStyle
  2
Thicken
 70
    13
177
     2
291
     1
 71
     2
176
     1
 72
     2
176
     1
 73
     0
176
     1
 90
        0
176
     1
 40
-0.6
176
     1
 41
-30.0
176
     1
 62
     5
 63
     7
421
 16777215
176
     1
 74
     1
176
     1
 91
        4
176
     1
 64
     7
176
     1
 65
   257
176
     1
 75
     1
176
     1
175
     1
176
     1
 42
1.0
176
     1
 92
       12
176
     1
 66
     7
176
     1
 43
1.0
176
     1
 76
     1
176
     1
 77
     6
176
     1
 78
     2
176
     1
 67
     7
176
     1
 79
     5
176
     1
170
     0
176
     1
171
     0
176
     1
290
     0
176
     1
 93
        1
176
     1
 44
0.0
176
     1
173
     0
176
     1
  0
ENDSEC
  0
EOF
